<?xml version="1.0" encoding="UTF-8" standalone="no"?>
<!-- Created with Inkscape (http://www.inkscape.org/) -->

<svg
   width="33.919582mm"
   height="33.0536mm"
   viewBox="0 0 33.919582 33.0536"
   version="1.1"
   id="svg1"
   inkscape:version="1.3.2 (091e20ef0f, 2023-11-25)"
   sodipodi:docname="australia.svg"
   xmlns:inkscape="http://www.inkscape.org/namespaces/inkscape"
   xmlns:sodipodi="http://sodipodi.sourceforge.net/DTD/sodipodi-0.dtd"
   xmlns="http://www.w3.org/2000/svg"
   xmlns:svg="http://www.w3.org/2000/svg">
  <sodipodi:namedview
     id="namedview1"
     pagecolor="#505050"
     bordercolor="#eeeeee"
     borderopacity="1"
     inkscape:showpageshadow="0"
     inkscape:pageopacity="0"
     inkscape:pagecheckerboard="0"
     inkscape:deskcolor="#d1d1d1"
     inkscape:document-units="mm"
     showgrid="false"
     inkscape:zoom="0.73406285"
     inkscape:cx="121.92416"
     inkscape:cy="231.5878"
     inkscape:window-width="1920"
     inkscape:window-height="1019"
     inkscape:window-x="0"
     inkscape:window-y="30"
     inkscape:window-maximized="1"
     inkscape:current-layer="layer1" />
  <defs
     id="defs1">
    <filter
       id="filter0_d_210_477"
       x="0.89999402"
       y="0.89990199"
       width="128.2"
       height="124.927"
       filterUnits="userSpaceOnUse"
       color-interpolation-filters="sRGB">
      <feFlood
         flood-opacity="0"
         result="BackgroundImageFix"
         id="feFlood2" />
      <feColorMatrix
         in="SourceAlpha"
         type="matrix"
         values="0 0 0 0 0 0 0 0 0 0 0 0 0 0 0 0 0 0 127 0"
         result="hardAlpha"
         id="feColorMatrix2" />
      <feOffset
         dy="5"
         id="feOffset2" />
      <feComposite
         in2="hardAlpha"
         operator="out"
         id="feComposite2" />
      <feColorMatrix
         type="matrix"
         values="0 0 0 0 0.490196 0 0 0 0 0.160784 0 0 0 0 0.231373 0 0 0 1 0"
         id="feColorMatrix3" />
      <feBlend
         mode="normal"
         in2="BackgroundImageFix"
         result="effect1_dropShadow_210_477"
         id="feBlend3" />
      <feBlend
         mode="normal"
         in="SourceGraphic"
         in2="effect1_dropShadow_210_477"
         result="shape"
         id="feBlend4" />
    </filter>
  </defs>
  <g
     inkscape:label="Layer 1"
     inkscape:groupmode="layer"
     id="layer1"
     transform="translate(-72.733956,-87.286016)">
    <g
       filter="url(#filter0_d_210_477)"
       id="g2"
       transform="matrix(0.26458333,0,0,0.26458333,72.495833,87.047917)">
      <path
         d="m 80.2138,110.528 2.0964,1.247 1.8699,-0.51 2.7765,-0.68 1.5865,0.226 -2.5498,4.307 -1.8698,1.19 -2.2665,2.946 -0.34,-1.02 -3.7397,2.493 -0.4533,-0.17 -1.6999,-0.113 0.2833,-3.06 1.1333,-2.38 0.3399,-3.173 1.1333,-1.643 z"
         fill="#ffb2bc"
         stroke="#000000"
         stroke-width="0.2"
         stroke-linecap="round"
         stroke-linejoin="round"
         id="path1" />
      <path
         d="m 108.828,12.2758 0.68,2.8331 2.267,-1.3599 0.793,1.5299 1.303,1.4165 -0.623,1.6433 0.113,3.1164 0.114,1.8132 0.736,0.4533 0.227,3.1164 -0.68,1.8698 0.453,2.4365 3.06,1.9265 1.813,1.6999 1.813,1.5865 -0.623,0.9066 1.303,2.2665 0.284,3.9664 1.473,-0.7933 0.85,1.5299 0.906,-0.51 -0.396,3.8531 1.643,2.2098 1.076,1.3599 1.587,2.9464 v 2.9465 l -0.567,2.0965 -1.02,2.2098 0.397,3.1164 -1.416,3.2298 -1.19,1.6998 -2.154,3.2298 -0.849,2.0965 -1.757,2.6064 -2.833,3.2864 -3.117,1.8132 -2.493,2.7765 -1.869,1.8132 -2.494,3.1164 -2.096,1.8132 -2.21,2.7198 -1.757,2.4931 -0.453,1.1899 -2.4363,1.2466 -3.4564,0.1133 -3.5697,1.5304 -2.1532,1.359 -2.7198,1.587 -1.5298,-1.643 -1.4732,-0.624 1.4732,-1.869 -1.9832,0.68 -4.0797,2.606 -2.0398,-0.963 -1.36,-0.567 -1.5865,-0.283 -2.3231,-1.02 -0.7366,-2.2666 0.8499,-2.7198 0.2267,-1.8699 -0.7933,-1.4732 -2.6631,-0.3966 1.8131,-1.8132 0.51,-2.6631 -2.6631,2.4931 -3.0031,0.68 2.5498,-1.9832 1.4166,-2.0965 1.9831,-1.8132 0.9066,-2.6631 -3.853,3.0597 -2.4365,1.2466 -2.4365,2.8898 -1.6998,-1.4732 0.9633,-1.9266 -0.7933,-2.6631 -1.02,-1.3599 0.9066,-0.8499 -3.0031,-2.2098 -2.1532,-0.0567 -2.2664,-1.8132 -5.6096,0.34 -4.4763,1.3032 -3.9097,1.2466 -2.8331,-0.2267 -3.9664,1.8699 -3.0031,0.7933 -1.3032,1.9265 -1.6998,1.4732 -2.6632,0.1133 -2.0398,0.2833 -2.3798,-0.6233 -2.3799,0.3967 -2.1531,0.17 -2.5498,1.9265 -0.8499,-0.17 -1.9266,1.0199 -1.92648,1.1333 -2.1532,-0.1134 H 4.68305 L 2.35991,87.2966 1,86.6167 1.84993,84.5201 3.49315,84.0102 4.34309,83.2169 4.68305,81.9137 5.9863,79.3639 6.38291,77.2107 5.9863,73.5277 6.0996,71.4311 6.89289,69.3913 6.38291,67.0115 6.55293,65.9349 5.5897,64.4617 5.9863,61.6286 4.90971,58.7388 4.85306,57.2089 5.87301,58.7955 5.5897,55.3957 6.89289,56.4723 7.51616,57.8889 7.85619,56.019 6.94953,53.1293 6.89289,51.996 6.43963,50.9194 7.1762,48.8229 8.02613,47.9163 8.76277,46.1032 8.81942,43.95 10.5759,41.3435 10.3493,44.12 l 1.7566,-2.4932 2.7763,-1.2465 1.8133,-1.5299 2.6631,-1.3599 1.4732,-0.2833 0.7933,0.4533 2.7198,-1.3599 1.9832,-0.3966 0.6232,-0.7933 0.85,-0.34 1.7565,0.1133 3.5131,-1.0766 1.9832,-1.6432 1.1332,-1.9265 2.2098,-1.8132 0.3967,-1.4732 0.3966,-1.9832 2.7764,-3.1164 0.7933,3.1731 1.4732,-0.7366 -0.8499,-1.6999 1.3032,-1.7565 1.2466,0.7933 0.8499,-2.7765 1.9832,-1.8132 1.0199,-1.4166 1.6432,-0.6232 0.2266,-1.0199 1.3033,0.3966 0.2267,-0.9066 1.4732,-0.5099 1.5865,-0.51 2.0965,1.6998 1.4732,2.1532 h 1.9832 l 1.9832,0.34 -0.3966,-1.9832 1.9832,-2.8898 1.5298,-0.9632 -0.34,-0.90662 1.6433,-2.09651 2.0964,-1.30323 1.5299,0.45329 2.7765,-0.67995 0.17,-1.86985 -2.2099,-1.18989 1.7565,-0.50997 2.0399,0.90661 1.5299,1.47321 2.5498,0.90658 0.9632,-0.33996 1.8699,1.13324 1.9832,-1.07659 1.1332,0.33999 0.85,-0.7366 1.2465,1.81316 -1.1332,1.98318 -1.4166,1.47321 -1.0766,0.1134 0.17,1.4165 -1.2465,1.8132 -1.4166,1.8132 0.1133,1.0199 2.1532,2.0399 2.2665,1.1332 1.4166,1.2466 1.8698,2.1531 h 0.9065 l 1.4733,0.9633 0.2833,1.1332 2.7764,1.1899 2.3232,-1.2465 1.0199,-1.9265 0.9633,-1.6433 0.7367,-1.9831 1.473,-2.8898 -0.113,-1.7565 0.396,-1.0766 -0.056,-2.0399 0.793,-2.77639 0.737,-0.73664 -0.34,-1.18989 1.02,-1.92653 0.85,-1.98318 0.226,-1.07656 L 106.958,1 l 0.737,1.8132 -0.057,2.26649 0.737,0.45329 -0.057,1.52989 0.907,1.81319 -0.057,2.09654 z"
         fill="#ffb2bc"
         stroke="#000000"
         stroke-width="0.2"
         stroke-linecap="round"
         stroke-linejoin="round"
         id="path2" />
    </g>
  </g>
</svg>
