<?xml version="1.0" encoding="UTF-8" standalone="no"?>
<!-- Created with Inkscape (http://www.inkscape.org/) -->

<svg
   width="42.770649mm"
   height="39.887276mm"
   viewBox="0 0 42.770649 39.887276"
   version="1.1"
   id="svg1"
   inkscape:version="1.3.2 (091e20ef0f, 2023-11-25)"
   sodipodi:docname="australia.svg"
   xmlns:inkscape="http://www.inkscape.org/namespaces/inkscape"
   xmlns:sodipodi="http://sodipodi.sourceforge.net/DTD/sodipodi-0.dtd"
   xmlns="http://www.w3.org/2000/svg"
   xmlns:svg="http://www.w3.org/2000/svg">
  <sodipodi:namedview
     id="namedview1"
     pagecolor="#505050"
     bordercolor="#eeeeee"
     borderopacity="1"
     inkscape:showpageshadow="0"
     inkscape:pageopacity="0"
     inkscape:pagecheckerboard="0"
     inkscape:deskcolor="#d1d1d1"
     inkscape:document-units="mm"
     inkscape:zoom="0.73406285"
     inkscape:cx="68.795199"
     inkscape:cy="192.08165"
     inkscape:window-width="1920"
     inkscape:window-height="1019"
     inkscape:window-x="0"
     inkscape:window-y="30"
     inkscape:window-maximized="1"
     inkscape:current-layer="layer1" />
  <defs
     id="defs1" />
  <g
     inkscape:label="Layer 1"
     inkscape:groupmode="layer"
     id="layer1"
     transform="translate(-86.70955,-97.771442)">
    <path
       d="m 122.67143,101.62137 0.22622,0.94226 0.75379,-0.4523 0.26379,0.50882 0.43339,0.47114 -0.20717,0.5465 0.0376,1.03648 0.0378,0.60301 0.24501,0.15079 0.0754,1.03647 -0.22622,0.62188 0.15081,0.81034 1.01759,0.64072 0.60298,0.56536 0.60299,0.52766 -0.20717,0.30151 0.43339,0.7538 0.0942,1.31914 0.49,-0.26382 0.28258,0.50879 0.30162,-0.16959 -0.13202,1.28145 0.54663,0.73496 0.35798,0.45228 0.52758,0.97994 v 0.97994 l -0.18839,0.69728 -0.33919,0.73493 0.13203,1.03648 -0.47123,1.07416 -0.39581,0.56536 -0.71597,1.07415 -0.28284,0.69729 -0.58393,0.86685 -0.94245,1.09294 -1.03637,0.60299 -0.8292,0.92339 -0.62178,0.60325 -0.8292,1.03637 -0.69744,0.60299 -0.73475,0.90461 -0.5842,0.8292 -0.15081,0.39582 -0.81042,0.4146 -1.14962,0.0376 -1.18718,0.5088 -0.71596,0.45243 -0.90461,0.52758 -0.5088,-0.54663 -0.49001,-0.20716 0.49001,-0.62204 -0.6596,0.22622 -1.35689,0.86704 -0.67842,-0.32041 -0.45228,-0.18865 -0.52763,-0.0942 -0.77266,-0.3392 -0.24498,-0.75379 0.28268,-0.90461 0.0754,-0.62177 -0.26384,-0.49001 -0.8857,-0.13177 0.60302,-0.60325 0.16962,-0.88556 -0.88575,0.82921 -0.99875,0.22595 0.84802,-0.65934 0.47112,-0.69744 0.65958,-0.60299 0.30152,-0.88582 -1.28149,1.01785 -0.81031,0.4146 -0.81034,0.96097 -0.56533,-0.49001 0.32035,-0.64082 -0.26381,-0.88556 -0.33922,-0.45217 0.30151,-0.28284 -0.99877,-0.73491 -0.71612,-0.0188 -0.7538,-0.60306 -1.86566,0.11308 -1.48873,0.43344 -1.300319,0.41458 -0.942234,-0.0754 -1.31916,0.6219 -0.998776,0.26379 -0.43344,0.64082 -0.565335,0.49001 -0.885719,0.0376 -0.678418,0.0942 -0.791501,-0.20717 -0.791501,0.13176 -0.716095,0.0566 -0.848016,0.64082 -0.282681,-0.0566 -0.640715,0.3392 -0.640742,0.37703 -0.716118,-0.0378 h -0.65958 l -0.772639,-0.77258 -0.452284,-0.22622 0.282676,-0.69717 0.546507,-0.1696 0.282676,-0.26379 0.113064,-0.43365 0.433443,-0.84791 0.131906,-0.71612 -0.131906,-1.22492 0.03768,-0.69725 0.263835,-0.67842 -0.169611,-0.7915 0.05654,-0.35804 -0.320355,-0.48998 0.131905,-0.94226 -0.358058,-0.96107 -0.01884,-0.50882 0.33922,0.52766 -0.09423,-1.1307 0.433422,0.35806 0.207288,0.47112 0.113088,-0.62188 -0.301538,-0.9611 -0.01884,-0.3769 -0.150747,-0.35806 0.24497,-0.69726 0.282676,-0.30151 0.244996,-0.60304 0.01884,-0.71612 0.5842,-0.86686 -0.07541,0.9234 0.584226,-0.82918 0.92337,-0.4146 0.603065,-0.50882 0.885692,-0.45226 0.489982,-0.0942 0.263816,0.15076 0.904584,-0.45228 0.65958,-0.13189 0.207275,-0.26384 0.28268,-0.11306 0.5842,0.0377 1.168401,-0.35806 0.659553,-0.5465 0.376899,-0.64071 0.734959,-0.60304 0.131922,-0.48998 0.131894,-0.65958 0.923428,-1.03648 0.26381,1.05534 0.48998,-0.245 -0.28268,-0.56534 0.43344,-0.5842 0.41458,0.26382 0.28268,-0.9234 0.65958,-0.60303 0.33922,-0.47112 0.54647,-0.2073 0.0754,-0.3392 0.43347,0.1319 0.0754,-0.30152 0.48995,-0.1696 0.52766,-0.1696 0.69726,0.56534 0.48998,0.71612 h 0.65955 l 0.65958,0.11306 -0.13189,-0.65956 0.65958,-0.9611 0.50879,-0.32038 -0.11305,-0.30152 0.54649,-0.69725 0.69726,-0.433436 0.50882,0.150757 0.9234,-0.226142 0.0565,-0.621882 -0.73496,-0.395737 0.5842,-0.169611 0.67841,0.301527 0.50882,0.489963 0.84813,0.301517 0.32014,-0.113065 0.62204,0.376899 0.6596,-0.35806 0.37677,0.113077 0.28284,-0.244983 0.4146,0.603031 -0.37703,0.659575 -0.47122,0.48999 -0.35798,0.0377 0.0566,0.47111 -0.41461,0.60304 -0.47122,0.60304 0.0378,0.33922 0.71596,0.67842 0.7538,0.3769 0.47123,0.4146 0.62177,0.7161 h 0.30162 l 0.49001,0.32035 0.0942,0.3769 0.92339,0.39574 0.77259,-0.41458 0.33919,-0.64071 0.32041,-0.54652 0.24501,-0.65958 0.49001,-0.96108 -0.0378,-0.5842 0.13202,-0.35806 -0.0188,-0.67842 0.26379,-0.92339 0.24501,-0.24501 -0.11324,-0.395727 0.33919,-0.640733 0.28284,-0.659575 0.0754,-0.358047 0.43339,-0.452284 0.245,0.603041 -0.0188,0.753798 0.24501,0.150759 -0.019,0.508815 0.30162,0.603043 -0.0188,0.69725 z"
       fill="#ffb2bc"
       stroke="#000000"
       stroke-width="0.2"
       stroke-linecap="round"
       stroke-linejoin="round"
       id="path1" />
    <path
       d="m 114.71885,134.16676 0.69744,0.41434 0.62177,-0.1696 0.92339,-0.22595 0.52758,0.0754 -0.84799,1.43219 -0.62177,0.39555 -0.75379,0.98002 -0.11298,-0.3392 -1.24381,0.82921 -0.15081,-0.0566 -0.56542,-0.0376 0.0942,-1.01759 0.37704,-0.79164 0.11297,-1.05516 0.37703,-0.54662 z"
       fill="#ffb2bc"
       stroke="#000000"
       stroke-width="0.2"
       stroke-linecap="round"
       stroke-linejoin="round"
       id="path2" />
  </g>
</svg>
