<?xml version="1.0" encoding="UTF-8" standalone="no"?>
<!-- Created with Inkscape (http://www.inkscape.org/) -->

<svg
   width="37.623749mm"
   height="43.709164mm"
   viewBox="0 0 37.623749 43.709164"
   version="1.1"
   id="svg1"
   inkscape:version="1.3.2 (091e20ef0f, 2023-11-25)"
   sodipodi:docname="brazil.svg"
   xmlns:inkscape="http://www.inkscape.org/namespaces/inkscape"
   xmlns:sodipodi="http://sodipodi.sourceforge.net/DTD/sodipodi-0.dtd"
   xmlns="http://www.w3.org/2000/svg"
   xmlns:svg="http://www.w3.org/2000/svg">
  <sodipodi:namedview
     id="namedview1"
     pagecolor="#505050"
     bordercolor="#eeeeee"
     borderopacity="1"
     inkscape:showpageshadow="0"
     inkscape:pageopacity="0"
     inkscape:pagecheckerboard="0"
     inkscape:deskcolor="#d1d1d1"
     inkscape:document-units="mm"
     showgrid="false"
     inkscape:zoom="0.73406285"
     inkscape:cx="40.187295"
     inkscape:cy="70.838621"
     inkscape:window-width="1920"
     inkscape:window-height="1019"
     inkscape:window-x="0"
     inkscape:window-y="30"
     inkscape:window-maximized="1"
     inkscape:current-layer="layer1" />
  <defs
     id="defs1">
    <filter
       id="filter0_d_207_26"
       x="0.89999402"
       y="0.89990199"
       width="142.2"
       height="165.2"
       filterUnits="userSpaceOnUse"
       color-interpolation-filters="sRGB">
      <feFlood
         flood-opacity="0"
         result="BackgroundImageFix"
         id="feFlood2" />
      <feColorMatrix
         in="SourceAlpha"
         type="matrix"
         values="0 0 0 0 0 0 0 0 0 0 0 0 0 0 0 0 0 0 127 0"
         result="hardAlpha"
         id="feColorMatrix2" />
      <feOffset
         dy="5"
         id="feOffset2" />
      <feComposite
         in2="hardAlpha"
         operator="out"
         id="feComposite2" />
      <feColorMatrix
         type="matrix"
         values="0 0 0 0 0.490196 0 0 0 0 0.160784 0 0 0 0 0.231373 0 0 0 1 0"
         id="feColorMatrix3" />
      <feBlend
         mode="normal"
         in2="BackgroundImageFix"
         result="effect1_dropShadow_207_26"
         id="feBlend3" />
      <feBlend
         mode="normal"
         in="SourceGraphic"
         in2="effect1_dropShadow_207_26"
         result="shape"
         id="feBlend4" />
    </filter>
  </defs>
  <g
     inkscape:label="Layer 1"
     inkscape:groupmode="layer"
     id="layer1"
     transform="translate(-94.373317,-129.87775)">
    <g
       filter="url(#filter0_d_207_26)"
       id="g2"
       transform="matrix(0.26458333,0,0,0.26458333,94.135194,129.63965)"
       style="fill:#ffb2bc;fill-opacity:1">
      <path
         d="m 63.5567,14.6741 1.9829,0.3834 0.3838,-0.8946 -0.6396,-0.7667 0.3837,-1.2141 1.4712,0.3834 1.727,-0.4473 2.0469,0.8946 1.5991,0.8306 1.0874,-1.0862 0.8315,0.1278 0.5117,1.1501 1.7271,-0.2555 1.4072,-1.5975 1.1513,-3.00319 2.1748,-3.76997 1.2793,-0.1917 0.8315,2.30032 1.9189,7.15654 1.9829,0.7029 0.064,2.8115 -2.7505,3.3866 1.0874,1.214 6.4604,0.639 0.1279,4.1534 2.7505,-2.6837 4.5414,1.4696 6.0766,2.492 1.791,2.3642 -0.576,2.3003 4.222,-1.2779 7.036,2.1725 5.437,-0.1278 5.373,3.3866 4.733,4.6006 2.815,1.1502 3.07,0.1917 1.343,1.278 1.279,5.2396 0.704,2.492 -1.343,6.7731 -1.727,2.6838 -4.925,5.6869 -2.175,4.6645 -2.559,3.5144 -0.895,0.1278 -0.832,3.0032 0.576,7.6677 -0.704,6.3259 -0.192,2.6837 -1.023,1.6613 -0.32,5.4953 -3.326,5.303 -0.32,4.282 -2.75,1.725 -0.704,2.492 h -3.838 l -5.437,1.533 -2.366,1.853 -3.838,1.214 -3.902,3.259 -2.6225,4.09 -0.1919,3.067 0.8315,2.236 -0.1919,4.154 -0.5117,1.98 -2.1748,2.301 -2.8784,7.22 -2.5585,3.195 -2.0469,1.981 -0.9594,3.898 -1.855,2.3 -1.3432,-2.3 1.1514,-1.981 -2.4307,-2.748 -3.0703,-2.3 -4.0297,-2.62 -1.2153,0.128 -4.0297,-3.195 -2.1748,0.447 3.8379,-5.559 3.39,-4.025 2.1108,-1.662 2.6865,-2.236 -0.2558,-3.259 -2.0469,-2.428 -1.663,0.831 0.4477,-2.365 0.1919,-2.428 -0.1919,-2.3 -1.3433,-0.703 -1.2792,0.639 -1.3433,-0.192 -0.5117,-1.533 -0.7036,-3.77 -0.7675,-1.214 -2.4946,-1.15 -1.4073,0.83 -3.7738,-0.83 -0.2559,-5.559 -1.2793,-2.237 1.0235,-0.894 -0.5118,-2.301 0.8316,-1.789 0.3838,-3.2587 -1.0874,-2.5559 -2.0469,-1.1501 -0.5117,-1.5975 0.3198,-2.3642 -6.8441,-0.1917 -1.791,-4.7923 1.0874,-0.0639 -0.1919,-1.7252 -0.7676,-1.2141 -0.3198,-2.3642 -2.1748,-1.2141 h -2.2387 l -1.5991,-1.1502 -2.4946,-0.8306 -1.4712,-1.5336 -4.0936,-0.7028 -4.1577,-3.6422 0.1919,-2.7476 -0.5757,-1.5975 0.2559,-3.0671 -4.6694,0.7029 -1.855,1.5336 -3.0702,1.6613 -0.7036,1.2141 -1.855,0.1278 -2.6865,-0.3834 -2.0468,0.7029 -1.6631,-0.4473 -0.0639,-6.1981 -2.8145,2.3642 L 8.03604,63.7476 6.56487,61.5112 4.13425,61.3195 4.77389,59.5303 2.66305,57.0384 1,53.3323 1.95946,52.6294 1.83152,50.8403 4.00631,49.6901 3.55856,47.4537 4.45407,46.0479 4.64595,44.131 8.67568,41.3195 11.618,40.5527 l 0.5117,-0.639 3.2622,0.1917 1.4072,-11.246 0.064,-1.7891 -0.5757,-2.3003 -1.6631,-1.5336 0.064,-3.0032 2.0468,-0.639 0.7036,0.4473 0.128,-1.5974 -2.1109,-0.4473 v -2.5559 l 7.0361,0.1278 1.2153,-1.4697 1.0234,1.3419 0.6397,2.4281 0.7036,-0.5112 1.9828,2.1726 2.8145,-0.2557 0.7036,-1.2779 2.6865,-0.9585 1.5351,-0.7028 0.4477,-1.7253 2.6226,-1.1501 L 38.6748,12.5655 35.6045,12.246 35.1568,9.6262 35.3487,6.87858 33.7496,5.85622 34.4531,5.47284 37.0757,5.98402 39.9541,7.00639 41.0414,6.04792 43.664,5.40894 47.7576,3.8754 49.1009,2.27796 48.6532,1.12778 50.5721,1 l 0.7675,0.89456 -0.5117,1.85304 1.2793,0.57507 0.7676,1.91694 -1.0235,1.46966 -0.6396,3.45043 0.8955,2.1087 0.1919,1.9169 2.2387,1.9169 1.791,0.1917 0.3838,-0.8307 1.1514,-0.1916 1.663,-0.7029 1.1514,-1.0863 2.0468,0.3834 z"
         fill="#ffb2bc"
         id="path1"
         style="fill:#ffb2bc;fill-opacity:1" />
      <path
         d="m 63.5567,14.6741 1.9829,0.3834 0.3838,-0.8946 -0.6396,-0.7667 0.3837,-1.2141 1.4712,0.3834 1.727,-0.4473 2.0469,0.8946 1.5991,0.8306 1.0874,-1.0862 0.8315,0.1278 0.5117,1.1501 1.7271,-0.2555 1.4072,-1.5975 1.1513,-3.00319 2.1748,-3.76997 1.2793,-0.1917 0.8315,2.30032 1.9189,7.15654 1.9829,0.7029 0.064,2.8115 -2.7505,3.3866 1.0874,1.214 6.4604,0.639 0.1279,4.1534 2.7505,-2.6837 4.5414,1.4696 6.0766,2.492 1.791,2.3642 -0.576,2.3003 4.222,-1.2779 7.036,2.1725 5.437,-0.1278 5.373,3.3866 4.733,4.6006 2.815,1.1502 3.07,0.1917 1.343,1.278 1.279,5.2396 0.704,2.492 -1.343,6.7731 -1.727,2.6838 -4.925,5.6869 -2.175,4.6645 -2.559,3.5144 -0.895,0.1278 -0.832,3.0032 0.576,7.6677 -0.704,6.3259 -0.192,2.6837 -1.023,1.6613 -0.32,5.4953 -3.326,5.303 -0.32,4.282 -2.75,1.725 -0.704,2.492 h -3.838 l -5.437,1.533 -2.366,1.853 -3.838,1.214 -3.902,3.259 -2.6225,4.09 -0.1919,3.067 0.8315,2.236 -0.1919,4.154 -0.5117,1.98 -2.1748,2.301 -2.8784,7.22 -2.5585,3.195 -2.0469,1.981 -0.9594,3.898 -1.855,2.3 -1.3432,-2.3 1.1514,-1.981 -2.4307,-2.748 -3.0703,-2.3 -4.0297,-2.62 -1.2153,0.128 -4.0297,-3.195 -2.1748,0.447 3.8379,-5.559 3.39,-4.025 2.1108,-1.662 2.6865,-2.236 -0.2558,-3.259 -2.0469,-2.428 -1.663,0.831 0.4477,-2.365 0.1919,-2.428 -0.1919,-2.3 -1.3433,-0.703 -1.2792,0.639 -1.3433,-0.192 -0.5117,-1.533 -0.7036,-3.77 -0.7675,-1.214 -2.4946,-1.15 -1.4073,0.83 -3.7738,-0.83 -0.2559,-5.559 -1.2793,-2.237 1.0235,-0.894 -0.5118,-2.301 0.8316,-1.789 0.3838,-3.2587 -1.0874,-2.5559 -2.0469,-1.1501 -0.5117,-1.5975 0.3198,-2.3642 -6.8441,-0.1917 -1.791,-4.7923 1.0874,-0.0639 -0.1919,-1.7252 -0.7676,-1.2141 -0.3198,-2.3642 -2.1748,-1.2141 h -2.2387 l -1.5991,-1.1502 -2.4946,-0.8306 -1.4712,-1.5336 -4.0936,-0.7028 -4.1577,-3.6422 0.1919,-2.7476 -0.5757,-1.5975 0.2559,-3.0671 -4.6694,0.7029 -1.855,1.5336 -3.0702,1.6613 -0.7036,1.2141 -1.855,0.1278 -2.6865,-0.3834 -2.0468,0.7029 -1.6631,-0.4473 -0.0639,-6.1981 -2.8145,2.3642 L 8.03604,63.7476 6.56487,61.5112 4.13425,61.3195 4.77389,59.5303 2.66305,57.0384 1,53.3323 1.95946,52.6294 1.83152,50.8403 4.00631,49.6901 3.55856,47.4537 4.45407,46.0479 4.64595,44.131 8.67568,41.3195 11.618,40.5527 l 0.5117,-0.639 3.2622,0.1917 1.4072,-11.246 0.064,-1.7891 -0.5757,-2.3003 -1.6631,-1.5336 0.064,-3.0032 2.0468,-0.639 0.7036,0.4473 0.128,-1.5974 -2.1109,-0.4473 v -2.5559 l 7.0361,0.1278 1.2153,-1.4697 1.0234,1.3419 0.6397,2.4281 0.7036,-0.5112 1.9828,2.1726 2.8145,-0.2557 0.7036,-1.2779 2.6865,-0.9585 1.5351,-0.7028 0.4477,-1.7253 2.6226,-1.1501 L 38.6748,12.5655 35.6045,12.246 35.1568,9.6262 35.3487,6.87858 33.7496,5.85622 34.4531,5.47284 37.0757,5.98402 39.9541,7.00639 41.0414,6.04792 43.664,5.40894 47.7576,3.8754 49.1009,2.27796 48.6532,1.12778 50.5721,1 l 0.7675,0.89456 -0.5117,1.85304 1.2793,0.57507 0.7676,1.91694 -1.0235,1.46966 -0.6396,3.45043 0.8955,2.1087 0.1919,1.9169 2.2387,1.9169 1.791,0.1917 0.3838,-0.8307 1.1514,-0.1916 1.663,-0.7029 1.1514,-1.0863 2.0468,0.3834 z"
         stroke="#000000"
         stroke-width="0.2"
         stroke-linecap="round"
         stroke-linejoin="round"
         id="path2"
         style="fill:#ffb2bc;fill-opacity:1" />
    </g>
  </g>
</svg>
