<?xml version="1.0" encoding="UTF-8" standalone="no"?>
<!-- Created with Inkscape (http://www.inkscape.org/) -->

<svg
   width="37.770828mm"
   height="42.533276mm"
   viewBox="0 0 37.770828 42.533276"
   version="1.1"
   id="svg1"
   inkscape:version="1.3.2 (091e20ef0f, 2023-11-25)"
   sodipodi:docname="brazil.svg"
   xmlns:inkscape="http://www.inkscape.org/namespaces/inkscape"
   xmlns:sodipodi="http://sodipodi.sourceforge.net/DTD/sodipodi-0.dtd"
   xmlns="http://www.w3.org/2000/svg"
   xmlns:svg="http://www.w3.org/2000/svg">
  <sodipodi:namedview
     id="namedview1"
     pagecolor="#505050"
     bordercolor="#eeeeee"
     borderopacity="1"
     inkscape:showpageshadow="0"
     inkscape:pageopacity="0"
     inkscape:pagecheckerboard="0"
     inkscape:deskcolor="#d1d1d1"
     inkscape:document-units="mm"
     inkscape:zoom="0.73406285"
     inkscape:cx="190.03822"
     inkscape:cy="264.28255"
     inkscape:window-width="1920"
     inkscape:window-height="1019"
     inkscape:window-x="0"
     inkscape:window-y="30"
     inkscape:window-maximized="1"
     inkscape:current-layer="layer1" />
  <defs
     id="defs1" />
  <g
     inkscape:label="Layer 1"
     inkscape:groupmode="layer"
     id="layer1"
     transform="translate(-54.668749,-78.481298)">
    <path
       d="m 71.320211,82.199189 0.524668,0.101441 0.101521,-0.236696 -0.169228,-0.202856 0.101521,-0.321231 0.389281,0.101442 0.456909,-0.118349 0.541576,0.236697 0.423095,0.219763 0.287708,-0.287391 0.220001,0.03381 0.135388,0.304297 0.456961,-0.0676 0.372322,-0.422671 0.304615,-0.794594 0.575416,-0.997472 0.338481,-0.05072 0.220001,0.608627 0.507709,1.893501 0.524642,0.185976 0.01693,0.743876 -0.727737,0.896038 0.287708,0.321204 1.709314,0.169068 0.03384,1.098921 0.727736,-0.710062 1.201579,0.388831 1.607767,0.659342 0.473869,0.625528 -0.1524,0.608621 1.11707,-0.338111 1.861609,0.574807 1.438539,-0.03381 1.421607,0.896038 1.252273,1.217243 0.744802,0.304323 0.81227,0.05072 0.355336,0.338138 0.338402,1.38631 0.186267,0.659342 -0.355336,1.792049 -0.456935,0.710089 -1.303338,1.504659 -0.575204,1.234149 -0.677069,0.929852 -0.236802,0.03381 -0.220133,0.794596 0.1524,2.028746 -0.186267,1.67373 -0.0508,0.71006 -0.270668,0.43955 -0.08467,1.45396 -0.880004,1.40309 -0.08467,1.13295 -0.727604,0.4564 -0.186267,0.65934 h -1.015471 l -1.438539,0.40561 -0.626004,0.49027 -1.015471,0.32121 -1.032404,0.86227 -0.69387,1.08215 -0.05077,0.81148 0.220001,0.59161 -0.05077,1.09907 -0.135387,0.52388 -0.575416,0.60881 -0.761577,1.91029 -0.676936,0.84534 -0.541576,0.52414 -0.253841,1.03135 -0.490802,0.60854 -0.355389,-0.60854 0.304642,-0.52414 -0.643123,-0.72708 -0.81235,-0.60854 -1.066192,-0.69321 -0.321548,0.0339 -1.066191,-0.84534 -0.575416,0.11827 1.015418,-1.47082 0.896964,-1.06495 0.558482,-0.43974 0.710803,-0.59161 -0.06768,-0.86227 -0.541576,-0.64241 -0.440002,0.21987 0.118454,-0.62574 0.05077,-0.64241 -0.05077,-0.60854 -0.355415,-0.186 -0.338455,0.16906 -0.355415,-0.0508 -0.135387,-0.4056 -0.186161,-0.99748 -0.203067,-0.32121 -0.66003,-0.30427 -0.372348,0.21961 -0.998485,-0.21961 -0.06771,-1.47081 -0.338481,-0.59188 0.270801,-0.23654 -0.135414,-0.6088 0.220028,-0.47334 0.101547,-0.8622 -0.287708,-0.67625 -0.541576,-0.30429 -0.135387,-0.42268 0.08461,-0.62552 -1.810835,-0.0507 -0.473869,-1.26797 0.287708,-0.0169 -0.05077,-0.45646 -0.203095,-0.321225 -0.08461,-0.625528 -0.575416,-0.32123 h -0.592318 l -0.423095,-0.304319 -0.66003,-0.219763 -0.389255,-0.405739 -1.083098,-0.185975 -1.100058,-0.963666 0.05077,-0.726969 -0.15232,-0.422672 0.06771,-0.811503 -1.235445,0.185975 -0.490802,0.405765 -0.812324,0.439553 -0.186161,0.32123 -0.490802,0.03381 -0.710803,-0.101441 -0.541549,0.185976 -0.440029,-0.118349 -0.01691,-1.639914 -0.74467,0.625528 -0.84618,-0.01691 -0.389247,-0.591714 -0.643102,-0.05072 0.169238,-0.473393 -0.558493,-0.659315 -0.440015,-0.980572 0.253857,-0.185976 -0.03385,-0.473366 0.575414,-0.304324 -0.118468,-0.591714 0.236937,-0.371951 0.05077,-0.50718 1.066199,-0.743876 0.778489,-0.202882 0.135387,-0.169069 0.863124,0.05072 0.372322,-2.975504 0.01693,-0.473366 -0.152321,-0.608621 -0.440028,-0.405765 0.01693,-0.794597 0.541549,-0.169069 0.186161,0.118349 0.03387,-0.422646 -0.558509,-0.118348 v -0.676249 l 1.861635,0.03381 0.321548,-0.388858 0.270774,0.355044 0.169254,0.642435 0.186161,-0.135255 0.524616,0.574834 0.74467,-0.06765 0.18616,-0.338111 0.710804,-0.253603 0.406161,-0.185949 0.118454,-0.456486 0.693897,-0.304297 -0.05077,-0.236696 -0.81235,-0.08454 -0.118454,-0.693155 0.05077,-0.726975 -0.423096,-0.270502 0.186135,-0.101433 0.693896,0.13525 0.761577,0.270502 0.287681,-0.253596 0.693897,-0.169063 1.083098,-0.405749 0.355415,-0.422656 -0.118454,-0.304319 0.507709,-0.03381 0.203067,0.236686 -0.135387,0.490283 0.338482,0.152154 0.203094,0.50719 -0.270801,0.388848 -0.169228,0.912926 0.236935,0.557927 0.05077,0.50718 0.592323,0.50718 0.473869,0.05072 0.101547,-0.21979 0.304641,-0.05069 0.440002,-0.185975 0.304641,-0.287417 0.541549,0.101441 z"
       fill="#ffb2bc"
       stroke="#000000"
       stroke-width="0.2"
       stroke-linecap="round"
       stroke-linejoin="round"
       id="path1" />
  </g>
</svg>
