<?xml version="1.0" encoding="UTF-8" standalone="no"?>
<!-- Created with Inkscape (http://www.inkscape.org/) -->

<svg
   width="48.883247mm"
   height="23.747829mm"
   viewBox="0 0 48.883247 23.747829"
   version="1.1"
   id="svg1"
   inkscape:version="1.3.2 (091e20ef0f, 2023-11-25)"
   sodipodi:docname="canada.svg"
   xmlns:inkscape="http://www.inkscape.org/namespaces/inkscape"
   xmlns:sodipodi="http://sodipodi.sourceforge.net/DTD/sodipodi-0.dtd"
   xmlns="http://www.w3.org/2000/svg"
   xmlns:svg="http://www.w3.org/2000/svg">
  <sodipodi:namedview
     id="namedview1"
     pagecolor="#505050"
     bordercolor="#eeeeee"
     borderopacity="1"
     inkscape:showpageshadow="0"
     inkscape:pageopacity="0"
     inkscape:pagecheckerboard="0"
     inkscape:deskcolor="#d1d1d1"
     inkscape:document-units="mm"
     showgrid="false"
     inkscape:zoom="0.73406285"
     inkscape:cx="89.229417"
     inkscape:cy="144.4018"
     inkscape:window-width="1920"
     inkscape:window-height="1019"
     inkscape:window-x="0"
     inkscape:window-y="30"
     inkscape:window-maximized="1"
     inkscape:current-layer="layer1" />
  <defs
     id="defs1" />
  <g
     inkscape:label="Layer 1"
     inkscape:groupmode="layer"
     id="layer1"
     transform="translate(-81.38181,-110.38124)">
    <path
       d="m 120.51545,131.40084 -0.29025,-0.47786 0.38286,-1.12826 -0.21141,-0.23895 -0.48842,0.13274 -0.14525,-0.21238 -0.72602,0.62386 -0.42228,0.65043 -0.36962,0.38494 -0.32993,0.13274 -0.22463,0.0398 -0.145,0.19913 h -1.22766 l -1.02976,0.0133 -0.3564,0.14602 -0.89746,0.58404 v -0.0133 l -0.1188,-0.0531 -0.26405,0.11946 -0.25083,0.17256 -0.23759,-0.14599 -0.62045,0.10617 -0.51488,0.11946 -0.25083,0.10621 -0.30347,0.27874 0.23759,0.0929 0.22437,-0.0531 h 0.0394 l -0.0394,0.25222 -0.63368,0.0929 -0.36962,0.10621 -0.22437,0.13274 -0.34316,-0.0796 -0.2114,0.0398 -0.38259,0.23892 -0.60722,0.26548 -0.35666,-0.0531 0.26405,-0.29202 0.48843,-0.46458 0.54133,-0.27877 0.14526,-0.23891 0.1188,-0.39823 0.50165,-0.46458 0.1188,-0.53097 0.14499,0.51769 0.50165,0.11948 0.31697,-0.27876 -0.18495,-0.63715 -0.11879,-0.26548 -0.52785,-0.15928 -0.50165,-0.0929 h -0.51488 l -0.44873,-0.1062 -0.0529,-0.18582 -0.18468,0.11946 -0.15849,-0.0266 0.25083,-0.27874 -0.2376,-0.1062 0.25083,-0.31856 -0.15849,-0.23894 0.22437,-0.23892 -0.68633,-0.11946 -0.0132,-0.47787 -0.10557,-0.1062 -0.43577,-0.0265 -0.54107,-0.15928 -0.19807,0.10618 -0.23762,0.19912 -0.43561,0.13274 -0.4092,0.33184 -0.71284,-0.22566 -0.58082,0.10621 -0.51482,-0.25223 -0.60722,-0.13274 -0.43561,-0.0531 -0.132,-0.13275 0.11879,-0.45132 h -0.22441 l -0.17161,0.31858 h -1.34644 -2.244088 -2.21765 -1.96689 -1.95366 -1.940481 -1.99326 -0.63363 -1.94048 -1.861236 -0.09242 l -0.712814,-0.80971 -0.211217,-0.3584 -0.924034,-0.34513 0.171604,-0.73006 0.475226,-0.49112 -0.541226,-0.35841 0.409215,-0.65042 -0.277212,-0.58404 0.330012,-0.42479 0.673227,-0.38492 0.422407,-0.50442 -0.607218,-0.50441 0.184811,-0.9159 0.145203,-0.55751 -0.211216,-0.35838 -0.105596,-0.31858 0.07922,-0.41148 -0.858042,0.2522 -1.003236,0.43804 -0.0396,-0.50442 -0.066,-0.34513 -0.369612,-0.21238 -0.554421,-0.0265 4.69937,-4.34057 3.247313,-2.70789 0.79203,0.17256 0.43561,0.34513 0.48842,0.0664 0.83164,-0.29203 0.92403,-0.22566 0.699613,0.0797 1.17486,-0.3053 1.08243,-0.17256 0.0264,0.29202 0.59402,-0.17256 0.51482,-0.33185 0.27721,0.0797 0.18481,0.63714 1.25405,-0.49113 -0.51483,0.54423 0.79203,-0.11946 0.42241,-0.19911 0.607218,0.0398 0.51482,0.29202 0.99005,0.26548 0.62042,0.11947 0.58081,-0.0398 0.3828,0.37168 -1.12202,0.35837 0.84482,0.14603 1.57085,-0.0796 0.58082,-0.13274 0.18481,0.43804 0.93723,-0.35841 -0.2772,-0.31858 0.59401,-0.23892 0.68644,-0.0398 0.5148,-0.0664 0.27723,0.17255 0.19791,0.38494 0.66013,-0.0531 0.69956,0.33185 0.95039,-0.11946 0.79216,0.0132 0.3167,-0.4513 0.59399,-0.11947 0.64691,0.23893 -0.56753,0.69025 0.81835,-0.58404 0.42254,0.0265 0.84482,-0.73006 -0.2114,-0.43804 -0.38286,-0.29203 0.72629,-0.78316 1.08241,-0.5044 0.59399,0.11946 0.26405,0.3053 0.0526,0.79644 -0.7657,0.34512 0.8845,0.14601 -0.58076,0.73006 1.17475,-0.5575 0.29051,0.46459 -0.56753,0.53095 0.17145,0.49115 0.96361,-0.51768 0.85805,-0.63716 0.62044,-0.78316 0.72602,0.0531 0.71279,0.10619 0.47519,0.3584 -0.22437,0.3584 -0.6731,0.38493 0.1188,0.38494 -0.31697,0.35841 -1.43881,0.51768 -0.85804,0.11946 -0.42228,-0.22566 -0.43577,0.37169 -0.97684,0.62386 -0.39581,0.33186 -1.01653,0.50441 -0.85805,0.0531 -0.67336,0.31856 -0.38259,0.5044 -0.75247,0.0929 -1.14856,0.62389 -1.2409,0.8628 -0.65987,0.61058 -0.6469,0.91591 0.79216,0.13274 -0.19817,0.73007 -0.10557,0.6106 0.96361,-0.15928 0.92419,0.34513 0.4355,0.30527 0.22437,0.37169 0.64691,0.22563 0.47519,0.33187 1.0033,0.0531 0.63368,0.0796 -0.47546,0.69025 -0.22437,0.8097 0.0132,0.91588 0.58076,0.78317 0.62045,-0.26548 0.73925,-0.84953 0.30374,-1.27428 -0.22437,-0.42477 1.18798,-0.38494 0.99007,-0.5575 0.63368,-0.55751 0.22437,-0.53096 -0.0529,-0.67696 -0.42228,-0.59733 1.17475,-0.82298 0.13203,-0.70353 0.51488,-1.19465 0.50138,-0.18584 0.88451,0.21238 0.55456,0.0797 0.59399,-0.21241 0.40905,0.26548 0.47545,0.45133 0.0262,0.29202 1.01653,0.0664 -0.34316,0.65042 -0.30374,0.98227 0.50165,0.13274 0.21113,0.46461 1.08241,-0.43805 0.99007,-0.87609 0.55457,-0.3584 0.14526,0.70353 0.34316,0.99554 0.26406,0.95573 -0.449,0.5044 0.63368,0.4513 0.38285,0.45133 0.91069,0.21238 0.31697,0.2522 v 0.69025 l 0.44874,0.1062 0.14525,0.30528 -0.26405,0.9159 -0.56753,0.30531 -0.55457,0.29202 -1.16152,0.29202 -1.04272,0.66371 -1.13533,0.14602 -1.33323,-0.18584 h -0.96362 l -0.69982,0.0531 -0.75221,0.59732 -0.97684,0.37166 -1.33324,1.08847 -1.04298,0.76988 0.62044,-0.13274 1.43881,-1.10172 1.62375,-0.69025 1.0033,-0.0797 0.4355,0.41151 -0.80513,0.5575 -0.0794,0.88935 0.0132,0.63717 0.73925,0.41148 1.13533,-0.11946 0.95038,-0.94245 -0.13203,0.61058 0.32994,0.3053 -0.97684,0.54425 -1.63672,0.5044 -0.7657,0.33184 -0.95038,0.61061 -0.48843,-0.0664 0.19791,-0.70353 1.37293,-0.70353 -1.06919,0.0266 z"
       fill="#ffb2bc"
       stroke="#000000"
       stroke-width="0.2"
       stroke-linecap="round"
       stroke-linejoin="round"
       id="path1" />
  </g>
</svg>
