<?xml version="1.0" encoding="UTF-8" standalone="no"?>
<!-- Created with Inkscape (http://www.inkscape.org/) -->

<svg
   width="44.569328mm"
   height="25.188438mm"
   viewBox="0 0 44.569328 25.188438"
   version="1.1"
   id="svg1"
   inkscape:version="1.3.2 (091e20ef0f, 2023-11-25)"
   sodipodi:docname="canada.svg"
   xmlns:inkscape="http://www.inkscape.org/namespaces/inkscape"
   xmlns:sodipodi="http://sodipodi.sourceforge.net/DTD/sodipodi-0.dtd"
   xmlns="http://www.w3.org/2000/svg"
   xmlns:svg="http://www.w3.org/2000/svg">
  <sodipodi:namedview
     id="namedview1"
     pagecolor="#505050"
     bordercolor="#eeeeee"
     borderopacity="1"
     inkscape:showpageshadow="0"
     inkscape:pageopacity="0"
     inkscape:pagecheckerboard="0"
     inkscape:deskcolor="#d1d1d1"
     inkscape:document-units="mm"
     showgrid="false"
     inkscape:zoom="0.73406285"
     inkscape:cx="98.765385"
     inkscape:cy="136.22812"
     inkscape:window-width="1920"
     inkscape:window-height="1019"
     inkscape:window-x="0"
     inkscape:window-y="30"
     inkscape:window-maximized="1"
     inkscape:current-layer="layer1" />
  <defs
     id="defs1">
    <filter
       id="filter0_d_210_476"
       x="0.900002"
       y="0.89965802"
       width="168.451"
       height="95.200401"
       filterUnits="userSpaceOnUse"
       color-interpolation-filters="sRGB">
      <feFlood
         flood-opacity="0"
         result="BackgroundImageFix"
         id="feFlood30" />
      <feColorMatrix
         in="SourceAlpha"
         type="matrix"
         values="0 0 0 0 0 0 0 0 0 0 0 0 0 0 0 0 0 0 127 0"
         result="hardAlpha"
         id="feColorMatrix30" />
      <feOffset
         dy="5"
         id="feOffset30" />
      <feComposite
         in2="hardAlpha"
         operator="out"
         id="feComposite30" />
      <feColorMatrix
         type="matrix"
         values="0 0 0 0 0.490196 0 0 0 0 0.160784 0 0 0 0 0.231373 0 0 0 1 0"
         id="feColorMatrix31" />
      <feBlend
         mode="normal"
         in2="BackgroundImageFix"
         result="effect1_dropShadow_210_476"
         id="feBlend31" />
      <feBlend
         mode="normal"
         in="SourceGraphic"
         in2="effect1_dropShadow_210_476"
         result="shape"
         id="feBlend32" />
    </filter>
  </defs>
  <g
     inkscape:label="Layer 1"
     inkscape:groupmode="layer"
     id="layer1"
     transform="translate(-79.083959,-112.42136)">
    <g
       filter="url(#filter0_d_210_476)"
       id="g30"
       transform="matrix(0.26458333,0,0,0.26458333,78.845833,112.18333)">
      <path
         d="m 125.426,79.7597 1.331,0.3524 1.841,-0.0783 -1.292,1.0183 -0.784,0.1566 -2.154,-1.0574 -0.235,-0.8225 0.979,-0.7441 z"
         fill="#ffb2bc"
         stroke="#000000"
         stroke-width="0.2"
         stroke-linecap="round"
         stroke-linejoin="round"
         id="path1" />
      <path
         d="m 131.065,73.4934 -0.94,0.0392 -2.271,-0.7441 -1.371,-1.175 0.744,-0.1958 2.311,0.6267 1.645,1.0182 z"
         fill="#ffb2bc"
         stroke="#000000"
         stroke-width="0.2"
         stroke-linecap="round"
         stroke-linejoin="round"
         id="path2" />
      <path
         d="M 10.4779,74.9425 9.26376,75.295 6.7964,74.1984 v -0.8616 l -1.13576,-0.8617 0.11748,-0.7049 -1.68406,-0.4308 0.23498,-1.3316 0.58747,-0.5483 1.60574,0.5091 0.93996,0.3917 1.60573,0.2349 0.07833,0.8617 0.15666,1.1357 1.25327,1.0183 z"
         fill="#ffb2bc"
         stroke="#000000"
         stroke-width="0.2"
         stroke-linecap="round"
         stroke-linejoin="round"
         id="path3" />
      <path
         d="m 143.285,69.6553 -1.959,2.1149 1.528,-0.8224 1.136,0.5483 -0.94,0.8224 1.488,0.6658 1.097,-0.5875 1.684,0.7442 -1.097,1.8015 1.488,-0.4308 -0.117,1.2925 0.196,1.5274 -1.41,2.1932 -0.94,0.0783 -1.136,-0.47 0.979,-1.9974 -0.47,-0.3133 -2.859,2.1149 -1.175,-0.0783 1.723,-1.1749 -1.723,-0.5875 -2.154,0.1566 -3.76,-0.0783 -0.078,-0.7049 1.488,-0.9008 -0.666,-0.6267 2.115,-1.4882 3.212,-3.8773 1.645,-1.3708 1.958,-0.8224 0.822,0.0783 -0.587,0.6658 z"
         fill="#ffb2bc"
         stroke="#000000"
         stroke-width="0.2"
         stroke-linecap="round"
         stroke-linejoin="round"
         id="path4" />
      <path
         d="m 2.29242,61.2742 0.58747,0.3133 1.95823,-0.1958 -2.81985,2.7023 0.1175,1.9582 H 1.39165 L 1.11749,64.9556 1.31331,63.8199 1,63.0757 1.50913,62.0183 Z"
         fill="#ffb2bc"
         stroke="#000000"
         stroke-width="0.2"
         stroke-linecap="round"
         stroke-linejoin="round"
         id="path5" />
      <path
         d="m 113.285,42.671 -1.41,1.1749 -0.666,-0.1958 -0.039,-0.6658 0.156,-0.1566 1.097,-0.6658 0.666,0.0391 z"
         fill="#ffb2bc"
         stroke="#000000"
         stroke-width="0.2"
         stroke-linecap="round"
         stroke-linejoin="round"
         id="path6" />
      <path
         d="m 109.486,41.4177 -2.82,1.2533 -1.175,-0.0783 v -0.5875 l 1.958,-1.0574 2.35,0.0391 z"
         fill="#ffb2bc"
         stroke="#000000"
         stroke-width="0.2"
         stroke-linecap="round"
         stroke-linejoin="round"
         id="path7" />
      <path
         d="m 108.272,34.8381 -0.353,0.9791 1.058,-0.3525 0.587,0.5875 1.371,0.7832 1.488,0.6658 -0.548,1.0575 1.37,-0.1567 0.745,0.7442 -1.959,0.7049 -2.31,-0.5483 -0.314,-1.0183 -2.467,1.2141 -3.212,1.1358 0.275,-1.2924 -2.468,0.1958 2.233,-1.0966 1.41,-1.7624 1.997,-1.9974 z"
         fill="#ffb2bc"
         stroke="#000000"
         stroke-width="0.2"
         stroke-linecap="round"
         stroke-linejoin="round"
         id="path8" />
      <path
         d="m 125.857,31.5874 -1.92,0.1175 0.275,-1.0575 1.488,-1.2141 1.684,-0.2741 0.901,0.5874 -0.588,0.9008 -0.352,0.3133 z"
         fill="#ffb2bc"
         stroke="#000000"
         stroke-width="0.2"
         stroke-linecap="round"
         stroke-linejoin="round"
         id="path9" />
      <path
         d="m 96.6789,27.3968 -1.6058,0.7442 -1.6449,-0.6267 -1.5274,0.1958 -1.3316,-0.9399 1.9582,-0.6658 1.9191,-0.9008 1.1749,0.5875 0.6267,0.3916 0.1566,0.3917 z"
         fill="#ffb2bc"
         stroke="#000000"
         stroke-width="0.2"
         stroke-linecap="round"
         stroke-linejoin="round"
         id="path10" />
      <path
         d="m 117.436,83.2455 -0.861,-1.4099 1.135,-3.329 -0.626,-0.705 -1.449,0.3917 -0.431,-0.6267 -2.154,1.8408 -1.254,1.919 -1.096,1.1358 -0.979,0.3916 -0.666,0.1175 -0.431,0.5875 h -3.642 l -3.055,0.0392 -1.057,0.4308 -2.6636,1.7232 v -0.0392 l -0.3525,-0.1566 -0.7833,0.3525 -0.7441,0.5091 -0.705,-0.4308 -1.8407,0.3133 -1.5274,0.3525 -0.7442,0.3133 -0.9008,0.8225 0.705,0.2741 0.6658,-0.1566 h 0.1175 l -0.1175,0.7441 -1.8799,0.2741 -1.0966,0.3134 -0.6658,0.3916 -1.0183,-0.235 -0.6266,0.1175 -1.1358,0.705 -1.8015,0.7833 -1.0575,-0.1567 0.7833,-0.8616 1.4491,-1.3708 1.6057,-0.8224 0.4308,-0.705 0.3525,-1.1749 1.4883,-1.3708 0.3525,-1.5666 0.4308,1.5274 1.4882,0.3525 0.94,-0.8224 -0.5483,-1.8799 -0.3525,-0.7833 -1.5666,-0.47 -1.4882,-0.2741 h -1.5275 l -1.3316,-0.3134 -0.1566,-0.5483 -0.5483,0.3525 -0.47,-0.0783 0.7441,-0.8225 -0.7049,-0.3133 0.7441,-0.9399 -0.47,-0.705 0.6658,-0.7049 -2.0365,-0.3525 -0.0392,-1.4099 -0.3133,-0.3134 -1.2925,-0.0783 -1.6057,-0.47 -0.5875,0.3134 -0.7049,0.5874 -1.2925,0.3917 -1.214,0.9791 -2.1149,-0.6658 -1.7233,0.3133 -1.5274,-0.7441 -1.8015,-0.3917 -1.2925,-0.1566 -0.3916,-0.3917 0.3524,-1.3316 h -0.6658 l -0.5091,0.94 H 62.2533 55.5954 49.0157 43.1802 37.3839 31.6267 25.7128 23.833 18.0758 12.5536 12.2794 L 10.1645,71.3786 9.53791,70.3212 6.79639,69.3029 7.30552,67.1489 8.71545,65.6998 7.1097,64.6423 8.3238,62.7233 7.50135,61 8.48046,59.7468 10.4779,58.611 11.7311,57.1228 9.92955,55.6345 10.4779,52.9322 10.9087,51.2872 10.282,50.2298 9.96872,49.2899 10.2037,48.0758 7.65801,48.8199 4.68151,50.1123 4.56401,48.6241 4.36819,47.6058 3.27159,46.9791 1.62667,46.9008 15.5692,34.094 l 9.6345,-7.9895 2.3499,0.5091 1.2924,1.0183 1.4491,0.1958 2.4674,-0.8616 2.7415,-0.6658 2.0757,0.235 3.4856,-0.9008 3.2115,-0.5091 0.0784,0.8616 1.7624,-0.5092 1.5274,-0.9791 0.8224,0.235 0.5483,1.8799 3.7207,-1.4491 -1.5275,1.6058 2.3499,-0.3525 1.2533,-0.5875 1.8016,0.1175 1.5274,0.8616 2.9373,0.7833 1.8407,0.3525 1.7233,-0.1175 1.1357,1.0966 -3.3289,1.0575 2.5065,0.4308 4.6606,-0.235 1.7232,-0.3917 0.5483,1.2925 2.7807,-1.0575 -0.8225,-0.9399 1.7624,-0.705 2.0366,-0.1175 1.5274,-0.1958 0.8225,0.5091 0.5874,1.1358 1.9583,-0.1567 2.0757,0.9792 2.8198,-0.3525 2.3499,0.0391 0.9399,-1.3316 1.7624,-0.3524 1.9191,0.7049 -1.6841,2.0366 2.4282,-1.7233 1.2533,0.0784 2.5065,-2.1541 -0.6266,-1.2924 -1.1358,-0.8616 2.1541,-2.3107 3.211,-1.4883 1.763,0.3525 0.783,0.9008 0.157,2.3499 -2.272,1.0182 2.624,0.4308 -1.723,2.1541 3.486,-1.6449 0.861,1.3707 -1.684,1.5666 0.509,1.4491 2.859,-1.5274 2.546,-1.8799 1.841,-2.3107 2.154,0.1566 2.115,0.3134 1.41,1.0574 -0.666,1.0574 -1.998,1.1358 0.353,1.1358 -0.94,1.0574 -4.269,1.5274 -2.546,0.3525 -1.253,-0.6658 -1.292,1.0966 -2.898,1.8408 -1.175,0.9791 -3.016,1.4882 -2.5458,0.1567 -1.9974,0.9399 -1.1358,1.4883 -2.2323,0.2741 -3.4073,1.8408 -3.6815,2.5457 -1.9582,1.8015 -1.9191,2.7024 2.3499,0.3916 -0.5875,2.1541 -0.3133,1.8015 2.859,-0.4699 2.7415,1.0182 1.2925,0.9008 0.6658,1.0966 1.919,0.6658 1.4099,0.9791 2.9765,0.1567 1.8799,0.235 -1.4099,2.0365 -0.6658,2.3891 0.0392,2.7023 1.7232,2.3107 1.8405,-0.7833 2.193,-2.5065 0.901,-3.7598 -0.666,-1.2532 3.525,-1.1358 2.938,-1.6449 1.879,-1.6449 0.666,-1.5666 -0.156,-1.9974 -1.254,-1.7624 3.486,-2.4282 0.392,-2.0757 1.527,-3.5248 1.488,-0.5483 2.624,0.6266 1.645,0.235 1.763,-0.6266 1.214,0.7832 1.41,1.3316 0.078,0.8617 3.016,0.1958 -1.019,1.919 -0.9,2.8982 1.488,0.3917 0.627,1.3707 3.211,-1.2924 2.937,-2.5849 1.645,-1.0574 0.431,2.0757 1.018,2.9373 0.784,2.8199 -1.332,1.4882 1.88,1.3316 1.136,1.3316 2.702,0.6267 0.94,0.7441 v 2.0365 l 1.332,0.3134 0.43,0.9007 -0.783,2.7024 -1.684,0.9008 -1.645,0.8616 -3.446,0.8616 -3.094,1.9582 -3.369,0.4309 -3.955,-0.5484 h -2.859 l -2.076,0.1567 -2.232,1.7624 -2.898,1.0966 -3.956,3.2115 -3.094,2.2715 1.841,-0.3916 4.269,-3.2506 4.817,-2.0366 2.976,-0.235 1.293,1.2141 -2.389,1.6449 -0.235,2.624 0.039,1.8799 2.193,1.2141 3.368,-0.3524 2.82,-2.7807 -0.391,1.8015 0.979,0.9008 -2.899,1.6058 -4.856,1.4882 -2.271,0.9791 -2.82,1.8016 -1.449,-0.1958 0.587,-2.0757 4.073,-2.0758 -3.172,0.0784 z"
         fill="#ffb2bc"
         stroke="#000000"
         stroke-width="0.2"
         stroke-linecap="round"
         stroke-linejoin="round"
         id="path11" />
      <path
         d="m 75.7259,19.094 -1.8407,0.94 4.1122,-0.5875 1.0183,1.0183 2.859,-1.0574 0.705,0.6658 -0.8616,1.9973 1.684,-0.8224 1.0967,-2.0757 1.684,-0.3134 1.175,0.3134 0.8616,0.8224 -1.0575,1.9974 -0.9399,1.4491 1.6449,1.0183 1.9582,1.0183 -1.0182,0.9007 -2.7807,0.1959 0.3133,0.7833 -1.2533,0.7832 -2.624,-0.3133 -2.2324,-0.5874 -1.9974,0.1175 -3.7206,0.7441 -4.4256,0.3133 -3.094,0.1958 0.1175,-1.0183 -1.6057,-0.5483 -1.6841,0.235 -0.235,-1.6841 1.2924,-0.2349 2.859,-0.3525 2.1541,0.1175 2.4282,-0.3917 -2.5457,-0.4699 -3.564,0.1566 -2.2323,-0.0392 v -0.7441 l 4.5822,-0.8616 -2.4674,0.0392 -2.1148,-0.5483 3.0548,-1.5275 2.0365,-0.8224 5.5614,-1.2141 z"
         fill="#ffb2bc"
         stroke="#000000"
         stroke-width="0.2"
         stroke-linecap="round"
         stroke-linejoin="round"
         id="path12" />
      <path
         d="m 91.1959,18.5066 -2.7416,1.3316 -0.9007,-1.4099 0.8224,-0.3133 2.1541,-0.0784 z"
         fill="#ffb2bc"
         stroke="#000000"
         stroke-width="0.2"
         stroke-linecap="round"
         stroke-linejoin="round"
         id="path13" />
      <path
         d="m 133.729,19.1331 -0.275,0.5483 -1.605,-0.0392 -1.606,-0.0391 -1.919,0.2741 -0.353,-0.1566 -0.822,-1.0575 0.666,-0.7049 0.861,-0.1567 3.29,0.235 z"
         fill="#ffb2bc"
         stroke="#000000"
         stroke-width="0.2"
         stroke-linecap="round"
         stroke-linejoin="round"
         id="path14" />
      <path
         d="m 118.141,19.0156 0.118,1.2532 2.819,-1.6057 4.583,-0.8225 0.9,2.0758 -1.253,1.3316 3.525,-0.5875 2.076,-0.8225 2.663,1.0183 1.449,0.9791 -0.431,0.9008 3.212,-0.47 0.744,1.3316 3.29,0.8225 0.861,0.8224 0.353,1.9974 -3.564,0.9791 3.015,1.41 2.311,0.4699 1.292,1.9583 2.546,0.1566 -1.292,1.5274 -4.269,2.5457 -1.567,-0.9399 -1.488,-2.1149 -2.311,0.2741 -0.901,1.2925 1.058,1.2532 1.762,1.0183 0.392,0.5875 -0.039,2.2324 -1.41,1.6057 -1.841,-0.6266 -3.368,-1.7624 1.41,1.919 1.097,1.3708 -0.118,0.7833 -4.269,-0.9008 -2.976,-1.3316 -1.489,-1.0574 0.94,-0.6658 -1.88,-1.1358 -1.84,-1.0575 -0.353,0.6267 -5.13,0.3525 -0.94,-0.7442 2.115,-1.6449 3.172,-0.0391 3.642,-0.2742 -0.078,-0.7833 1.214,-1.0966 3.446,-2.1149 0.157,-0.9791 -0.196,-0.7049 -1.84,-1.0575 -2.781,-0.7049 1.371,-0.5484 -0.784,-1.3315 -1.331,-0.1175 -0.744,-0.705 -1.293,0.6266 -3.094,0.2742 -5.483,-0.47 -2.898,-0.6266 -2.311,-0.3133 -0.744,-0.7442 2.468,-0.9399 h -2.233 l 1.293,-2.0757 2.78,-1.8016 2.35,-0.8225 4.387,-0.5483 z"
         fill="#ffb2bc"
         stroke="#000000"
         stroke-width="0.2"
         stroke-linecap="round"
         stroke-linejoin="round"
         id="path15" />
      <path
         d="m 98.4022,17.6448 1.4099,0.4308 2.9769,-0.2742 -0.196,0.5875 -2.389,0.9791 1.488,0.8616 -2.0366,1.8408 -3.2898,0.7833 -1.3316,-0.1567 -0.3525,-0.7833 -2.3107,-1.5666 0.6658,-0.6658 2.8982,0.235 -0.3525,-1.2924 z"
         fill="#ffb2bc"
         stroke="#000000"
         stroke-width="0.2"
         stroke-linecap="round"
         stroke-linejoin="round"
         id="path16" />
      <path
         d="m 107.253,19.7989 -3.054,1.5274 -1.724,-0.0783 0.705,-1.8016 1.019,-0.9791 1.644,-0.8616 2.037,-0.5483 3.094,0.0783 2.428,0.47 -3.955,1.8015 z"
         fill="#ffb2bc"
         stroke="#000000"
         stroke-width="0.2"
         stroke-linecap="round"
         stroke-linejoin="round"
         id="path17" />
      <path
         d="m 61.9009,22.6189 -5.2873,1.0183 0.235,-0.9008 -2.3498,-1.0966 1.7232,-0.8616 2.9373,-1.4883 2.9765,-1.3316 0.1567,-1.2141 5.483,-0.3133 1.6449,0.4308 3.7207,0.1175 0.7441,0.5483 0.6266,0.8616 -2.5457,0.5092 -5.4438,1.4099 -3.6032,1.4491 z"
         fill="#ffb2bc"
         stroke="#000000"
         stroke-width="0.2"
         stroke-linecap="round"
         stroke-linejoin="round"
         id="path18" />
      <path
         d="m 110.935,15.4124 -1.606,0.7441 -2.037,-0.1566 -1.253,-0.5092 1.763,-0.8616 2.702,-0.5483 0.548,0.705 z"
         fill="#ffb2bc"
         stroke="#000000"
         stroke-width="0.2"
         stroke-linecap="round"
         stroke-linejoin="round"
         id="path19" />
      <path
         d="m 107.488,12.0051 0.079,0.9008 -1.097,0.9791 -2.272,1.4883 -2.702,0.1958 -1.253,-0.3133 1.331,-1.1358 -2.5844,0.1175 1.6844,-1.4882 1.488,0.0783 3.016,-0.6658 1.919,0.1175 z"
         fill="#ffb2bc"
         stroke="#000000"
         stroke-width="0.2"
         stroke-linecap="round"
         stroke-linejoin="round"
         id="path20" />
      <path
         d="m 92.0575,13.0235 -0.2742,0.6658 1.7233,-0.3134 1.4099,0.0784 -0.9008,0.9791 -1.9974,0.9008 -5.4438,0.3133 -4.8173,0.8616 -2.3498,0.0392 0.5874,-0.6267 4.1906,-0.9007 -7.0104,0.2349 -1.6449,-0.3524 4.5822,-1.8799 2.1149,-0.5483 3.2507,0.6658 1.1357,1.1357 2.3891,0.1567 0.2741,-1.8407 2.2716,-0.705 1.2141,0.1958 z"
         fill="#ffb2bc"
         stroke="#000000"
         stroke-width="0.2"
         stroke-linecap="round"
         stroke-linejoin="round"
         id="path21" />
      <path
         d="m 113.872,11.3001 0.901,0.6266 h 2.898 l 0.548,0.6267 -1.096,0.7049 1.214,0.4308 0.47,0.47 1.919,0.0783 1.997,0.1567 2.781,-0.3916 3.172,-0.1959 2.272,0.1567 0.901,0.7441 -0.392,0.7833 -1.41,0.5483 -2.624,0.4308 -1.684,-0.2741 -4.621,0.3133 -3.134,0.0392 -2.193,-0.235 -3.368,-0.6267 0.627,-1.0966 0.822,-0.9399 -0.548,-0.8616 -2.742,-0.235 -1.018,-0.5875 1.488,-0.7833 z"
         fill="#ffb2bc"
         stroke="#000000"
         stroke-width="0.2"
         stroke-linecap="round"
         stroke-linejoin="round"
         id="path22" />
      <path
         d="m 84.2246,10.282 -2.2716,1.4491 -2.0757,0.6658 -1.4882,0.0783 -3.8773,0.8225 -2.7807,0.3133 -1.4099,-0.4308 4.5822,-1.4491 4.7781,-1.2141 2.154,0.0391 z"
         fill="#ffb2bc"
         stroke="#000000"
         stroke-width="0.2"
         stroke-linecap="round"
         stroke-linejoin="round"
         id="path23" />
      <path
         d="m 116.026,10.5169 -0.705,0.0392 -2.585,-0.1175 0.275,-0.50916 2.819,0.03917 0.627,0.31329 z"
         fill="#ffb2bc"
         stroke="#000000"
         stroke-width="0.2"
         stroke-linecap="round"
         stroke-linejoin="round"
         id="path24" />
      <path
         d="m 92.9974,10.1645 -3.4464,0.5483 -1.2925,-0.5875 1.9974,-0.58744 2.3499,-0.19582 1.6058,0.27415 z"
         fill="#ffb2bc"
         stroke="#000000"
         stroke-width="0.2"
         stroke-linecap="round"
         stroke-linejoin="round"
         id="path25" />
      <path
         d="M 96.0523,8.51943 93.8199,8.87191 H 91.47 l 0.3917,-0.27415 2.2323,-0.50914 0.6658,0.07833 z"
         fill="#ffb2bc"
         stroke="#000000"
         stroke-width="0.2"
         stroke-linecap="round"
         stroke-linejoin="round"
         id="path26" />
      <path
         d="m 114.381,9.49865 -2.585,0.39164 -0.626,-0.43081 0.235,-0.66579 0.861,-0.74413 1.724,0.07833 0.665,0.11749 0.901,0.62664 z"
         fill="#ffb2bc"
         stroke="#000000"
         stroke-width="0.2"
         stroke-linecap="round"
         stroke-linejoin="round"
         id="path27" />
      <path
         d="m 108.977,9.02876 -0.431,0.74413 -2.076,-0.19583 -1.567,-0.58746 -3.054,-0.07833 2.075,-0.50914 -1.096,-0.43081 0.861,-0.70496 2.389,0.23498 2.938,0.6658 z"
         fill="#ffb2bc"
         stroke="#000000"
         stroke-width="0.2"
         stroke-linecap="round"
         stroke-linejoin="round"
         id="path28" />
      <path
         d="m 130.165,6.63975 1.057,0.58747 -2.546,0.50914 -4.151,1.37075 -2.663,0.1175 -2.664,-0.23499 -0.626,-0.74413 0.822,-0.62663 1.684,-0.46997 h -2.584 l -0.784,-0.58747 0.157,-0.74413 1.919,-0.74412 1.606,-0.50914 1.566,-0.11749 -0.117,-0.39165 3.25,-0.07833 0.627,0.86162 1.841,0.35248 1.88,0.35248 z"
         fill="#ffb2bc"
         stroke="#000000"
         stroke-width="0.2"
         stroke-linecap="round"
         stroke-linejoin="round"
         id="path29" />
      <path
         d="m 161.183,1.15666 3.407,0.11749 2.624,0.19582 2.037,0.39165 -0.431,0.39164 -3.838,0.6658 -3.525,0.31332 -1.567,0.35248 h 2.938 l -4.112,0.97911 -2.664,0.46997 -3.642,1.37076 -3.172,0.27415 -1.214,0.39165 -4.426,0.15666 1.723,0.23498 -1.292,0.31332 0.274,0.90078 -1.958,0.62664 -2.703,0.50913 -1.37,0.70499 -2.585,0.5874 -0.196,0.4309 2.546,-0.0784 -0.431,0.47 -4.974,1.1358 -3.329,-0.5483 -4.582,0.3133 -1.959,-0.235 -2.663,-0.1175 0.823,-0.9008 3.133,-0.4308 0.783,-1.33159 1.018,-0.11749 2.938,0.78328 -0.666,-1.17492 -1.919,-0.35248 1.958,-0.70497 2.977,-0.43081 1.096,-0.62663 -1.175,-0.66579 0.431,-0.86162 3.682,0.03916 0.861,0.19582 2.859,-0.62663 -2.859,-0.19582 -4.934,0.11749 -1.724,-0.5483 -0.313,-0.6658 -0.979,-0.46997 0.431,-0.50914 2.35,-0.31332 1.644,-0.03916 2.899,-0.23499 2.663,-0.58747 1.527,0.07833 0.94,0.43081 1.958,-0.78329 2.037,-0.23498 2.546,-0.15666 4.073,-0.07833 0.509,0.15666 L 155.7,1 l 2.741,0.07833 z"
         fill="#ffb2bc"
         stroke="#000000"
         stroke-width="0.2"
         stroke-linecap="round"
         stroke-linejoin="round"
         id="path30" />
    </g>
  </g>
</svg>
