<?xml version="1.0" encoding="UTF-8" standalone="no"?>
<!-- Created with Inkscape (http://www.inkscape.org/) -->

<svg
   width="34.595814mm"
   height="43.936382mm"
   viewBox="0 0 34.595814 43.936382"
   version="1.1"
   id="svg1"
   inkscape:version="1.3.2 (091e20ef0f, 2023-11-25)"
   sodipodi:docname="europe.svg"
   xmlns:inkscape="http://www.inkscape.org/namespaces/inkscape"
   xmlns:sodipodi="http://sodipodi.sourceforge.net/DTD/sodipodi-0.dtd"
   xmlns="http://www.w3.org/2000/svg"
   xmlns:svg="http://www.w3.org/2000/svg">
  <sodipodi:namedview
     id="namedview1"
     pagecolor="#505050"
     bordercolor="#eeeeee"
     borderopacity="1"
     inkscape:showpageshadow="0"
     inkscape:pageopacity="0"
     inkscape:pagecheckerboard="0"
     inkscape:deskcolor="#d1d1d1"
     inkscape:document-units="mm"
     showgrid="false"
     inkscape:zoom="1.0381216"
     inkscape:cx="49.127191"
     inkscape:cy="89.584878"
     inkscape:window-width="1920"
     inkscape:window-height="1019"
     inkscape:window-x="0"
     inkscape:window-y="30"
     inkscape:window-maximized="1"
     inkscape:current-layer="layer1" />
  <defs
     id="defs1" />
  <g
     inkscape:label="Layer 1"
     inkscape:groupmode="layer"
     id="layer1"
     transform="translate(-95.150004,-92.768782)">
    <g
       id="g1">
      <path
         d="m 117.06558,113.92696 0.29451,0.65215 -0.25246,0.35764 0.39973,0.44177 0.31554,0.69424 -0.0421,0.46281 0.50488,0.82045 -0.46281,0.12623 -0.27347,-0.14727 -0.23141,0.25247 -0.73631,0.25244 -0.35763,0.3366 -0.71525,0.27347 0.21037,0.37867 0.14724,0.56804 0.54697,0.31565 0.63114,0.54689 -0.33663,0.61013 -0.35761,0.16827 0.21037,0.86255 -0.0842,0.23124 -0.35761,-0.27331 -0.50491,-0.0421 -0.73631,0.23124 -0.92564,-0.063 -0.12621,0.35746 -0.568,-0.35746 -0.29451,0.063 -1.15705,-0.39952 -0.21037,0.27332 h -0.88358 l 0.0841,-0.94668 0.50491,-0.88345 -1.51469,-0.25241 -0.50488,-0.33681 0.0421,-0.5679 -0.21037,-0.29451 0.0841,-0.88358 -0.2314,-1.36742 h 0.61007 l 0.25247,-0.48384 0.18934,-1.17809 -0.18934,-0.44177 0.16827,-0.2735 0.84151,-0.0631 0.21037,0.27347 0.65215,-0.63111 -0.27348,-0.48384 -0.0842,-0.71528 0.77838,0.16831 0.6101,-0.18934 0.0631,0.48384 1.03082,0.29454 0.021,0.46281 0.98875,-0.25244 0.54697,-0.3366 1.17809,0.5049 z"
         fill="#ffb2bc"
         stroke="#000000"
         stroke-width="0.2"
         stroke-linecap="round"
         stroke-linejoin="round"
         id="path1" />
      <path
         d="m 96.61742,113.7797 -0.736304,-0.25244 -0.631116,0.021 0.25245,-0.69422 -0.189342,-0.6732 0.841489,-0.0631 1.030827,0.79941 z"
         fill="#ffb2bc"
         stroke="#000000"
         stroke-width="0.2"
         stroke-linecap="round"
         stroke-linejoin="round"
         id="path2" />
      <path
         d="m 99.962335,107.74206 -1.072912,1.36742 0.988774,-0.1683 h 1.072883 l -0.27347,1.03085 -0.904611,1.13598 1.030821,0.0631 0.0631,0.14724 0.88355,1.49366 0.67318,0.21037 0.61011,1.47261 0.2945,0.50488 1.24119,0.23141 -0.12621,0.8415 -0.5049,0.37865 0.39971,0.67321 -0.92565,0.67317 -1.36742,-0.021 -1.76712,0.37867 -0.462812,-0.27347 -0.69424,0.61007 -0.946653,-0.14726 -0.757346,0.5049 -0.525928,-0.25246 1.535713,-1.36742 0.925645,-0.29451 -1.598851,-0.21037 -0.273468,-0.52594 1.072907,-0.39971 -0.525939,-0.69421 0.21037,-0.84151 1.493652,0.12624 0.168275,-0.75735 -0.652145,-0.77838 -0.02103,-0.021 -1.199118,-0.2314 -0.231405,-0.33661 0.378672,-0.568 -0.315569,-0.35764 -0.546962,0.6101 -0.02103,-1.24121 -0.462822,-0.63111 0.399701,-1.30432 0.799417,-1.00978 0.757343,0.0842 z"
         fill="#ffb2bc"
         stroke="#000000"
         stroke-width="0.2"
         stroke-linecap="round"
         stroke-linejoin="round"
         id="path3" />
      <path
         d="m 120.07392,134.43823 -0.35761,1.07289 0.18934,0.39978 -0.18934,0.69427 -0.88355,-0.50483 -0.56803,-0.14737 -1.57779,-0.6731 0.1052,-0.69427 1.30431,0.12621 1.13599,-0.14737 z"
         fill="#ffb2bc"
         stroke="#000000"
         stroke-width="0.2"
         stroke-linecap="round"
         stroke-linejoin="round"
         id="path4" />
      <path
         d="m 112.92126,130.44117 0.69424,0.94668 -0.0842,1.78805 -0.50491,-0.0841 -0.44177,0.44186 -0.42074,-0.35772 -0.10518,-1.61978 -0.27347,-0.75724 0.61005,0.063 z"
         fill="#ffb2bc"
         stroke="#000000"
         stroke-width="0.2"
         stroke-linecap="round"
         stroke-linejoin="round"
         id="path5" />
      <path
         d="m 117.48638,123.39373 -0.0842,0.6522 0.29453,0.56806 -0.86251,-0.21035 -0.82048,0.48366 0.0842,0.6522 -0.1052,0.37862 0.39968,0.67336 1.05188,0.6731 0.61008,1.11496 1.28325,1.07288 0.84151,-0.0209 0.29451,0.29448 -0.29451,0.27332 1.00978,0.48392 0.84143,0.39979 0.98875,0.71517 0.12621,0.23151 -0.16828,0.48392 -0.6522,-0.6313 -0.96758,-0.21034 -0.39973,0.86254 0.82042,0.50483 -0.0841,0.69426 -0.44175,0.0841 -0.52594,1.15703 -0.46283,0.1053 -0.021,-0.42069 0.18936,-0.71543 0.2314,-0.29448 -0.48387,-0.77841 -0.37867,-0.6731 -0.46283,-0.16827 -0.37865,-0.56806 -0.71527,-0.25241 -0.50488,-0.5469 -0.79941,-0.0841 -0.90461,-0.58923 -1.03082,-0.88344 -0.77838,-0.7575 -0.39971,-1.3253 -0.54697,-0.14711 -0.88357,-0.44185 -0.48385,0.16827 -0.61007,0.63103 -0.44178,0.0841 0.10517,-0.56779 -0.58904,-0.16828 -0.31557,-1.03081 0.35764,-0.39979 -0.31554,-0.50482 0.021,-0.37889 0.46281,0.29475 0.52594,-0.0632 0.568,-0.46276 0.18931,0.21035 0.50491,-0.0421 0.21037,-0.526 0.79944,0.16828 0.44177,-0.23125 0.0631,-0.52599 0.65214,0.18918 0.10518,-0.25241 1.03084,-0.23125 0.27345,0.44159 z"
         fill="#ffb2bc"
         stroke="#000000"
         stroke-width="0.2"
         stroke-linecap="round"
         stroke-linejoin="round"
         id="path6" />
      <path
         d="m 129.64583,94.698987 -1.34646,0.441782 -0.6731,0.105186 0.16827,-0.799413 -1.22025,-0.441782 -1.24117,0.378669 -0.23124,0.841488 -0.71543,0.504905 -0.98875,-0.2735 -1.11496,0.04207 -1.07283,-0.589031 -0.46281,0.294521 -0.54694,0.04207 0.021,0.75734 -1.68299,-0.189336 -0.12621,0.652145 h -0.84151 l -0.48384,0.820473 -0.71527,1.283256 -1.19912,1.66196 0.37864,0.42074 -0.27344,0.46281 -0.90461,-0.021 -0.50491,1.13602 0.21037,1.61986 0.65217,0.61007 -0.1683,1.45156 -0.71527,0.84151 -0.37867,0.71524 -0.69422,-0.75734 -1.80919,1.43055 -1.28329,0.29451 -1.36741,-0.63111 -0.37868,-1.32535 -0.42074,-2.84001 0.84148,-0.77838 2.37721,-1.03082 1.70402,-1.24121 1.51466,-1.640898 1.87232,-2.250996 1.34639,-0.862515 2.16683,-1.430528 1.78816,-0.504891 1.40938,0.06311 1.09405,-0.925637 1.55681,0.04207 1.47267,-0.210373 2.88184,0.820452 -1.03055,0.294521 z"
         fill="#ffb2bc"
         stroke="#000000"
         stroke-width="0.2"
         stroke-linecap="round"
         stroke-linejoin="round"
         id="path7" />
      <path
         d="m 122.53516,113.06448 1.24116,0.14726 1.85129,-0.021 0.52599,0.14724 0.29448,0.39971 0.12621,0.56801 0.35771,0.48387 0.0841,0.50487 -0.58896,0.2735 0.39978,0.58905 0.10504,0.58904 0.6731,1.13599 -0.063,0.35763 -0.48392,0.14727 -0.79931,1.09392 0.33655,0.58896 -0.23151,-0.0841 -1.05172,-0.50482 -0.73633,0.18944 -0.50483,-0.12621 -0.58922,0.27332 -0.56806,-0.46276 -0.39952,0.18944 -0.0632,-0.0841 -0.5469,-0.65227 -0.77838,-0.0631 -0.14726,-0.42074 -0.71528,-0.14727 -0.1262,0.3366 -0.58905,-0.2735 0.0421,-0.35764 -0.77837,-0.10517 -0.52594,-0.42074 -0.50488,-0.82044 0.0421,-0.46284 -0.31554,-0.69421 -0.39974,-0.4418 0.25247,-0.35762 -0.29451,-0.65217 0.65215,-0.37867 1.49362,-0.58904 1.22018,-0.42074 1.00976,0.21037 0.12628,0.31557 z"
         fill="#ffb2bc"
         stroke="#000000"
         stroke-width="0.2"
         stroke-linecap="round"
         stroke-linejoin="round"
         id="path8" />
      <path
         d="m 124.28141,98.801237 -1.47267,0.336603 -0.73634,0.820447 0.27358,0.736313 -1.30434,0.94667 -1.64092,1.05186 -0.44178,1.70402 0.77838,0.86251 1.00978,0.69424 -0.69424,1.38846 -0.96769,0.29451 -0.12623,2.10372 -0.44177,1.19912 -1.19912,-0.12623 -0.46281,1.00978 -1.15705,0.0631 -0.39973,-1.19912 -0.94665,-1.45158 -0.88355,-1.76713 0.37864,-0.71524 0.71528,-0.84151 0.1683,-1.45156 -0.65217,-0.61007 -0.21037,-1.61986 0.5049,-1.13602 0.90461,0.021 0.27345,-0.46281 -0.37865,-0.42077 1.19912,-1.661928 0.71527,-1.283282 0.48385,-0.820446 h 0.84151 l 0.1262,-0.652145 1.68299,0.189336 -0.021,-0.757344 0.54695,-0.04207 1.26232,0.568013 1.51448,0.778378 0.37888,1.78816 z"
         fill="#ffb2bc"
         stroke="#000000"
         stroke-width="0.2"
         stroke-linecap="round"
         stroke-linejoin="round"
         id="path9" />
      <path
         d="m 109.19767,117.7558 -0.58904,-0.31557 -0.65215,-0.568 -0.94668,0.27347 -0.75734,-0.10517 0.52594,-0.35764 0.84148,-1.89336 1.36742,-0.54694 0.84151,0.0421 0.18933,0.44177 -0.18933,1.17808 -0.25247,0.48387 h -0.61008 z"
         fill="#ffb2bc"
         stroke="#000000"
         stroke-width="0.2"
         stroke-linecap="round"
         stroke-linejoin="round"
         id="path10" />
      <path
         d="m 113.23682,129.17884 -0.31556,1.03082 -0.50488,-0.27331 -0.2735,-0.88371 0.18936,-0.50483 0.67318,-0.50482 z"
         fill="#ffb2bc"
         stroke="#000000"
         stroke-width="0.2"
         stroke-linecap="round"
         stroke-linejoin="round"
         id="path11" />
      <path
         d="m 108.75589,119.41784 0.23141,0.10503 0.29453,-0.0209 0.50488,0.33655 1.51469,0.25242 -0.50491,0.88344 -0.0841,0.94668 -0.27347,0.23151 -0.48387,-0.12621 0.0421,0.33655 -0.75732,0.73634 v 0.61013 l 0.50488,-0.21034 0.37867,0.56779 -0.021,0.37888 0.31557,0.50483 -0.35764,0.39978 0.31555,1.03082 0.58906,0.16828 -0.10519,0.56806 -0.94668,0.75723 -2.1458,-0.35771 -1.55676,0.44185 -0.12621,0.79931 -1.24121,0.16827 -1.22015,-0.60986 -0.39971,0.29448 -1.99853,-0.61013 -0.42076,-0.50483 0.568,-0.79957 0.2104,-2.65059 -1.07291,-1.38854 -0.77838,-0.6731 -1.598824,-0.50482 -0.08414,-0.96785 1.36742,-0.27331 1.746064,0.33655 -0.31554,-1.49384 0.98875,0.56806 2.39823,-1.00973 0.31557,-1.07288 0.88355,-0.2735 0.1683,0.46283 0.46281,0.021 0.50491,0.52591 0.73631,0.61008 0.52591,-0.10517 z"
         fill="#ffb2bc"
         stroke="#000000"
         stroke-width="0.2"
         stroke-linecap="round"
         stroke-linejoin="round"
         id="path12" />
    </g>
  </g>
</svg>
