<?xml version="1.0" encoding="UTF-8" standalone="no"?>
<!-- Created with Inkscape (http://www.inkscape.org/) -->

<svg
   width="34.44875mm"
   height="45.112251mm"
   viewBox="0 0 34.44875 45.112251"
   version="1.1"
   id="svg1"
   inkscape:version="1.3.2 (091e20ef0f, 2023-11-25)"
   sodipodi:docname="europe.svg"
   xmlns:inkscape="http://www.inkscape.org/namespaces/inkscape"
   xmlns:sodipodi="http://sodipodi.sourceforge.net/DTD/sodipodi-0.dtd"
   xmlns="http://www.w3.org/2000/svg"
   xmlns:svg="http://www.w3.org/2000/svg">
  <sodipodi:namedview
     id="namedview1"
     pagecolor="#505050"
     bordercolor="#eeeeee"
     borderopacity="1"
     inkscape:showpageshadow="0"
     inkscape:pageopacity="0"
     inkscape:pagecheckerboard="0"
     inkscape:deskcolor="#d1d1d1"
     inkscape:document-units="mm"
     showgrid="false"
     inkscape:zoom="1.1706737"
     inkscape:cx="35.449673"
     inkscape:cy="94.817199"
     inkscape:window-width="1920"
     inkscape:window-height="1019"
     inkscape:window-x="0"
     inkscape:window-y="30"
     inkscape:window-maximized="1"
     inkscape:current-layer="layer1" />
  <defs
     id="defs1">
    <filter
       id="filter0_d_209_7"
       x="0.89999402"
       y="0.89990199"
       width="130.2"
       height="170.50301"
       filterUnits="userSpaceOnUse"
       color-interpolation-filters="sRGB">
      <feFlood
         flood-opacity="0"
         result="BackgroundImageFix"
         id="feFlood12" />
      <feColorMatrix
         in="SourceAlpha"
         type="matrix"
         values="0 0 0 0 0 0 0 0 0 0 0 0 0 0 0 0 0 0 127 0"
         result="hardAlpha"
         id="feColorMatrix12" />
      <feOffset
         dy="5"
         id="feOffset12" />
      <feComposite
         in2="hardAlpha"
         operator="out"
         id="feComposite12" />
      <feColorMatrix
         type="matrix"
         values="0 0 0 0 0.490196 0 0 0 0 0.160784 0 0 0 0 0.231373 0 0 0 1 0"
         id="feColorMatrix13" />
      <feBlend
         mode="normal"
         in2="BackgroundImageFix"
         result="effect1_dropShadow_209_7"
         id="feBlend13" />
      <feBlend
         mode="normal"
         in="SourceGraphic"
         in2="effect1_dropShadow_209_7"
         result="shape"
         id="feBlend14" />
    </filter>
  </defs>
  <g
     inkscape:label="Layer 1"
     inkscape:groupmode="layer"
     id="layer1"
     transform="translate(-71.41104,-81.994349)">
    <g
       filter="url(#filter0_d_209_7)"
       id="g12"
       transform="matrix(0.26458333,0,0,0.26458333,71.172917,81.75625)">
      <path
         d="m 83.4526,80.5901 1.1131,2.4648 -0.9542,1.3517 1.5108,1.6697 1.1926,2.6239 -0.159,1.7492 1.9082,3.1009 -1.7492,0.4771 -1.0337,-0.5566 -0.8745,0.9542 -2.7829,0.9541 -1.3517,1.2722 -2.7033,1.0336 0.7951,1.4312 0.5565,2.1469 2.0673,1.193 2.3854,2.067 -1.2723,2.306 -1.3516,0.636 0.7951,3.26 -0.3181,0.874 -1.3516,-1.033 -1.9083,-0.159 -2.7829,0.874 -3.4985,-0.238 -0.477,1.351 -2.1468,-1.351 -1.1131,0.238 -4.3731,-1.51 -0.7951,1.033 h -3.3395 l 0.318,-3.578 1.9083,-3.339 -5.7248,-0.954 -1.9082,-1.273 0.159,-2.1464 -0.7951,-1.1131 0.318,-3.3395 -0.8746,-5.1682 h 2.3058 l 0.9542,-1.8287 0.7156,-4.4526 -0.7156,-1.6697 0.636,-1.0337 3.1805,-0.2385 0.7951,1.0336 2.4648,-2.3853 -1.0336,-1.8287 -0.3181,-2.7034 2.9419,0.6361 2.3059,-0.7156 0.2385,1.8287 3.896,1.1132 0.0795,1.7492 3.737,-0.9541 2.0673,-1.2722 4.4526,1.9083 z"
         fill="#ffb2bc"
         stroke="#000000"
         stroke-width="0.2"
         stroke-linecap="round"
         stroke-linejoin="round"
         id="path1" />
      <path
         d="M 6.1682,80.0335 3.38532,79.0794 1,79.1589 1.95414,76.5351 1.23852,73.9907 4.41895,73.7522 8.31499,76.7736 Z"
         fill="#ffb2bc"
         stroke="#000000"
         stroke-width="0.2"
         stroke-linecap="round"
         stroke-linejoin="round"
         id="path2" />
      <path
         d="m 18.8104,57.2141 -4.0551,5.1682 3.7371,-0.6361 h 4.055 l -1.0336,3.8961 -3.419,4.2935 3.896,0.2386 0.2386,0.5565 3.3394,5.6453 2.5443,0.7951 2.3059,5.5658 1.1131,1.9082 4.6911,0.8746 -0.477,3.1805 -1.9083,1.4311 1.5107,2.5444 -3.4985,2.5443 -5.1682,-0.0795 -6.6789,1.4312 -1.7492,-1.0336 -2.6239,2.3058 -3.5779,-0.5566 -2.86241,1.9083 -1.98776,-0.9542 5.80427,-5.1682 3.4985,-1.1131 -6.0429,-0.7951 -1.03358,-1.9878 4.05508,-1.5107 -1.9878,-2.6238 0.7951,-3.1805 5.6453,0.4771 0.636,-2.8624 -2.4648,-2.9419 -0.0795,-0.0795 -4.5321,-0.8746 -0.8746,-1.2722 1.4312,-2.1468 -1.1927,-1.3517 -2.06726,2.3059 -0.07949,-4.6912 -1.74925,-2.3853 1.51068,-4.9297 3.02142,-3.8165 2.8624,0.3181 z"
         fill="#ffb2bc"
         stroke="#000000"
         stroke-width="0.2"
         stroke-linecap="round"
         stroke-linejoin="round"
         id="path3" />
      <path
         d="m 94.8227,158.113 -1.3516,4.055 0.7156,1.511 -0.7156,2.624 -3.3394,-1.908 -2.1469,-0.557 -5.9633,-2.544 0.3976,-2.624 4.9297,0.477 4.2935,-0.557 z"
         fill="#ffb2bc"
         stroke="#000000"
         stroke-width="0.2"
         stroke-linecap="round"
         stroke-linejoin="round"
         id="path4" />
      <path
         d="m 67.789,143.006 2.6239,3.578 -0.3181,6.758 -1.9083,-0.318 -1.6697,1.67 -1.5902,-1.352 -0.3975,-6.122 -1.0336,-2.862 2.3057,0.238 z"
         fill="#ffb2bc"
         stroke="#000000"
         stroke-width="0.2"
         stroke-linecap="round"
         stroke-linejoin="round"
         id="path5" />
      <path
         d="m 85.043,116.37 -0.3181,2.465 1.1132,2.147 -3.2599,-0.795 -3.101,1.828 0.3181,2.465 -0.3976,1.431 1.5106,2.545 3.9756,2.544 2.3058,4.214 4.8501,4.055 3.1805,-0.079 1.1131,1.113 -1.1131,1.033 3.8165,1.829 3.1802,1.511 3.737,2.703 0.477,0.875 -0.636,1.829 -2.465,-2.386 -3.657,-0.795 -1.5108,3.26 3.1008,1.908 -0.318,2.624 -1.6696,0.318 -1.9878,4.373 -1.7493,0.398 -0.0795,-1.59 0.7157,-2.704 0.8746,-1.113 -1.8288,-2.942 -1.4312,-2.544 -1.7493,-0.636 -1.4311,-2.147 -2.7034,-0.954 -1.9082,-2.067 -3.0214,-0.318 -3.419,-2.227 -3.896,-3.339 -2.9419,-2.863 -1.5107,-5.009 -2.0673,-0.556 -3.3395,-1.67 -1.8287,0.636 -2.3058,2.385 -1.6697,0.318 0.3975,-2.146 -2.2263,-0.636 -1.1927,-3.896 1.3517,-1.511 -1.1926,-1.908 0.0795,-1.432 1.7492,1.114 1.9878,-0.239 2.1468,-1.749 0.7155,0.795 1.9083,-0.159 0.7951,-1.988 3.0215,0.636 1.6697,-0.874 0.2386,-1.988 2.4648,0.715 0.3975,-0.954 3.8961,-0.874 1.0335,1.669 z"
         fill="#ffb2bc"
         stroke="#000000"
         stroke-width="0.2"
         stroke-linecap="round"
         stroke-linejoin="round"
         id="path6" />
      <path
         d="m 131,7.91743 -5.089,1.66973 -2.544,0.39755 0.636,-3.0214 -4.612,-1.66973 -4.691,1.43119 -0.874,3.18043 -2.704,1.9083 -3.737,-1.0337 -4.214,0.159 -4.0548,-2.22626 -1.7492,1.11315 -2.0672,0.15902 0.0795,2.86239 -6.3609,-0.7156 -0.477,2.4648 h -3.1805 l -1.8287,3.101 -2.7034,4.8501 -4.5321,6.2814 1.4311,1.5902 -1.0335,1.7492 -3.419,-0.0795 -1.9083,4.2936 0.7951,6.1223 2.4649,2.3058 -0.6361,5.4862 -2.7034,3.1805 -1.4312,2.7033 -2.6238,-2.8624 -6.8379,5.4068 -4.8502,1.1131 -5.1682,-2.3853 -1.4312,-5.0092 -1.5902,-10.7339 3.1804,-2.9419 8.9847,-3.896 6.4404,-4.6912 5.7247,-6.2018 7.0765,-8.5077 5.0887,-3.2599 8.1896,-5.40672 6.7584,-1.90825 5.3268,0.23853 4.135,-3.49847 5.884,0.15902 L 119.71,1 l 10.892,3.10092 -3.896,1.11315 z"
         fill="#ffb2bc"
         stroke="#000000"
         stroke-width="0.2"
         stroke-linecap="round"
         stroke-linejoin="round"
         id="path7" />
      <path
         d="m 104.125,77.3303 4.691,0.5566 6.997,-0.0795 1.988,0.5565 1.113,1.5107 0.477,2.1468 1.352,1.8288 0.318,1.9082 -2.226,1.0337 1.511,2.2263 0.397,2.2263 2.544,4.2935 -0.238,1.3517 -1.829,0.5566 -3.021,4.1345 1.272,2.226 -0.875,-0.318 -3.975,-1.908 -2.783,0.716 -1.908,-0.477 -2.227,1.033 -2.147,-1.749 -1.51,0.716 -0.239,-0.318 -2.067,-2.4653 -2.9419,-0.2385 -0.5566,-1.5902 -2.7034,-0.5566 -0.477,1.2722 -2.2263,-1.0337 0.159,-1.3517 -2.9419,-0.3975 -1.9878,-1.5902 -1.9082,-3.1009 0.159,-1.7493 -1.1926,-2.6238 -1.5108,-1.6698 0.9542,-1.3516 -1.1131,-2.4649 2.4648,-1.4312 5.6452,-2.2263 4.6117,-1.5902 3.8164,0.7951 0.4773,1.1927 z"
         fill="#ffb2bc"
         stroke="#000000"
         stroke-width="0.2"
         stroke-linecap="round"
         stroke-linejoin="round"
         id="path8" />
      <path
         d="m 110.725,23.422 -5.566,1.2722 -2.783,3.1009 1.034,2.7829 -4.9298,3.578 -6.2019,3.9755 -1.6697,6.4404 2.9419,3.2599 3.8165,2.6239 -2.6239,5.2477 -3.6574,1.1131 -0.4771,7.9511 -1.6697,4.5321 -4.5321,-0.4771 -1.7492,3.8165 -4.3731,0.2386 -1.5108,-4.5321 -3.5779,-5.4863 -3.3394,-6.6789 1.4311,-2.7033 2.7034,-3.1805 0.6361,-5.4862 -2.4649,-2.3058 -0.7951,-6.1223 1.9083,-4.2936 3.419,0.0795 1.0335,-1.7492 -1.4311,-1.5903 4.5321,-6.2813 2.7034,-4.8502 1.8287,-3.1009 h 3.1805 l 0.477,-2.4648 6.3609,0.7156 -0.0795,-2.8624 2.0672,-0.15902 4.771,2.14682 5.724,2.9419 1.432,6.7584 z"
         fill="#ffb2bc"
         stroke="#000000"
         stroke-width="0.2"
         stroke-linecap="round"
         stroke-linejoin="round"
         id="path9" />
      <path
         d="m 53.7156,95.0613 -2.2263,-1.1927 -2.4648,-2.1468 -3.578,1.0336 -2.8624,-0.3975 1.9878,-1.3517 3.1804,-7.156 5.1682,-2.0672 3.1805,0.159 0.7156,1.6697 -0.7156,4.4526 -0.9542,1.8288 H 52.841 Z"
         fill="#ffb2bc"
         stroke="#000000"
         stroke-width="0.2"
         stroke-linecap="round"
         stroke-linejoin="round"
         id="path10" />
      <path
         d="m 68.9817,138.235 -1.1927,3.896 -1.9082,-1.033 -1.0337,-3.34 0.7157,-1.908 2.5443,-1.908 z"
         fill="#ffb2bc"
         stroke="#000000"
         stroke-width="0.2"
         stroke-linecap="round"
         stroke-linejoin="round"
         id="path11" />
      <path
         d="m 52.0459,101.343 0.8746,0.397 1.1132,-0.079 1.9082,1.272 5.7248,0.954 -1.9083,3.339 -0.318,3.578 -1.0336,0.875 -1.8288,-0.477 0.159,1.272 -2.8623,2.783 v 2.306 l 1.9082,-0.795 1.4312,2.146 -0.0795,1.432 1.1927,1.908 -1.3517,1.511 1.1926,3.896 2.2264,0.636 -0.3976,2.147 -3.578,2.862 -8.1101,-1.352 -5.8838,1.67 -0.477,3.021 -4.6912,0.636 -4.6116,-2.305 -1.5107,1.113 -7.5535,-2.306 -1.5903,-1.908 2.1468,-3.022 0.7952,-10.018 -4.0551,-5.248 -2.9419,-2.544 -6.0428,-1.908 -0.318,-3.658 5.1682,-1.033 6.5993,1.272 -1.1926,-5.646 3.737,2.147 9.0642,-3.8163 1.1927,-4.055 3.3394,-1.0337 0.6361,1.7493 1.7492,0.0795 1.9083,1.9877 2.7829,2.3058 1.9877,-0.3975 z"
         fill="#ffb2bc"
         stroke="#000000"
         stroke-width="0.2"
         stroke-linecap="round"
         stroke-linejoin="round"
         id="path12" />
    </g>
  </g>
</svg>
