<?xml version="1.0" encoding="UTF-8" standalone="no"?>
<!-- Created with Inkscape (http://www.inkscape.org/) -->

<svg
   width="41.43375mm"
   height="48.154167mm"
   viewBox="0 0 41.43375 48.154167"
   version="1.1"
   id="svg1"
   inkscape:version="1.3.2 (091e20ef0f, 2023-11-25)"
   sodipodi:docname="india.svg"
   xmlns:inkscape="http://www.inkscape.org/namespaces/inkscape"
   xmlns:sodipodi="http://sodipodi.sourceforge.net/DTD/sodipodi-0.dtd"
   xmlns="http://www.w3.org/2000/svg"
   xmlns:svg="http://www.w3.org/2000/svg">
  <sodipodi:namedview
     id="namedview1"
     pagecolor="#505050"
     bordercolor="#eeeeee"
     borderopacity="1"
     inkscape:showpageshadow="0"
     inkscape:pageopacity="0"
     inkscape:pagecheckerboard="0"
     inkscape:deskcolor="#d1d1d1"
     inkscape:document-units="mm"
     showgrid="false"
     inkscape:zoom="0.73406285"
     inkscape:cx="240.44263"
     inkscape:cy="108.98249"
     inkscape:window-width="1920"
     inkscape:window-height="1019"
     inkscape:window-x="0"
     inkscape:window-y="30"
     inkscape:window-maximized="1"
     inkscape:current-layer="layer1" />
  <defs
     id="defs1">
    <filter
       id="filter0_d_207_115"
       x="0.89999402"
       y="0.89990199"
       width="156.60001"
       height="182"
       filterUnits="userSpaceOnUse"
       color-interpolation-filters="sRGB">
      <feFlood
         flood-opacity="0"
         result="BackgroundImageFix"
         id="feFlood2" />
      <feColorMatrix
         in="SourceAlpha"
         type="matrix"
         values="0 0 0 0 0 0 0 0 0 0 0 0 0 0 0 0 0 0 127 0"
         result="hardAlpha"
         id="feColorMatrix2" />
      <feOffset
         dy="5"
         id="feOffset2" />
      <feComposite
         in2="hardAlpha"
         operator="out"
         id="feComposite2" />
      <feColorMatrix
         type="matrix"
         values="0 0 0 0 0.490196 0 0 0 0 0.160784 0 0 0 0 0.231373 0 0 0 1 0"
         id="feColorMatrix3" />
      <feBlend
         mode="normal"
         in2="BackgroundImageFix"
         result="effect1_dropShadow_207_115"
         id="feBlend3" />
      <feBlend
         mode="normal"
         in="SourceGraphic"
         in2="effect1_dropShadow_207_115"
         result="shape"
         id="feBlend4" />
    </filter>
  </defs>
  <g
     inkscape:label="Layer 1"
     inkscape:groupmode="layer"
     id="layer1"
     transform="translate(-41.513123,-119.82977)">
    <g
       filter="url(#filter0_d_207_115)"
       id="g2"
       transform="matrix(0.26458333,0,0,0.26458333,41.275,119.59167)"
       style="fill:#ffb2bc;fill-opacity:1">
      <path
         d="m 65.1,35.1 -2.8,3 -0.9,6 5.8,2.4 5.8,3.1 7.8,3.6 7.7,0.9 3.8,3.2 4.3,0.6 6.9,1.5 4.6,-0.1 0.1,-2.5 -1.5,-4.1 -0.2,-2.7 3.1,-1.4 1.5,5.1 0.4,1.2 5.5,2.5 3.2,-1 4.7,0.4 4.5,-0.2 -0.5,-3.9 -2.6,-2.1 4.2,-0.8 3.9,-4.8 5.4,-4 4.9,1.5 3.2,-2.7 3.6,4 -1.2,2.7 6.1,1 1,2.4 -1.7,1.2 1.4,3.9 -4.2,-1.1 -6.2,4.4 0.9,3.7 -2,5.4 0.3,3.1 -1.6,5.3 -4.6,-1.5 0.9,6.7 -1,2.2 1,2.7 -2.5,1.5 -4.4,-10.2 h -1.5 l -0.3,4.2 -3.6,-3.4 1.2,-3.6 2.4,-0.4 1.6,-5.4 -3.4,-1.1 -5.1,0.1 -5.4,-0.9 -1.2,-4.5 -2.7,-0.3 -4.9,-2.8 -1.2,4.4 4.6,3.4 -3,2.4 -0.9,2.3 3.7,1.7 -0.3,3.9 2.6,4.8 1.6,5.3 -0.5,2.4 -3.8,-0.1 -6.6,1.3 0.9,4.8 -2.4,3.8 -7.5,4.4 -5.3,7.5 -3.8,4.1 -5,4.2 0.3,2.9 -2.6,1.6 -4.8,2.3 -2.6,0.3 -1.2,4.9 1.9,8.4 0.7,5.3 -1.9,6.1 0.7,10.9 -2.9,0.3 -2.3,4.9 1.9,2.2 -5.1,1.8 -1.7,4.3 -2.2,1.9 -5.6,-6 -3.1,-9 -2.5,-6.5 -2.2,-3 -3.4,-6.2 -2,-8 -1.4,-4 -5.9,-8.8 -3.5,-12.5 -2.6,-8.2 -0.8,-7.8 -1.7,-6 -7.7,3.9 -4,-0.8 L 7.59998,87.1 10,84.8 8.09998,82.3 1,76.8 4.19995,72.5 H 16.3 L 14.5,67 11,63.8 l -1.40002,-5 -4,-2.8 4.90002,-6.8 6.5,0.5 4.5,-6.7 2.2,-6.5 3.9,-6.5 -1,-4.6 3.8,-3.7 -5.1,-3.1 -2.9,-4.4 -3.3,-5.59999 2,-2.79999 8.5,1.59997 5.7,-1 L 39.1,1 46.8,8.60001 47.6,13.8 l 3,3.3 0.6,3.3 -4.1,-0.9 3.2,7.1 6.2,4 z"
         fill="#ffb2bc"
         id="path1"
         style="fill:#ffb2bc;fill-opacity:1" />
      <path
         d="m 65.1,35.1 -2.8,3 -0.9,6 5.8,2.4 5.8,3.1 7.8,3.6 7.7,0.9 3.8,3.2 4.3,0.6 6.9,1.5 4.6,-0.1 0.1,-2.5 -1.5,-4.1 -0.2,-2.7 3.1,-1.4 1.5,5.1 0.4,1.2 5.5,2.5 3.2,-1 4.7,0.4 4.5,-0.2 -0.5,-3.9 -2.6,-2.1 4.2,-0.8 3.9,-4.8 5.4,-4 4.9,1.5 3.2,-2.7 3.6,4 -1.2,2.7 6.1,1 1,2.4 -1.7,1.2 1.4,3.9 -4.2,-1.1 -6.2,4.4 0.9,3.7 -2,5.4 0.3,3.1 -1.6,5.3 -4.6,-1.5 0.9,6.7 -1,2.2 1,2.7 -2.5,1.5 -4.4,-10.2 h -1.5 l -0.3,4.2 -3.6,-3.4 1.2,-3.6 2.4,-0.4 1.6,-5.4 -3.4,-1.1 -5.1,0.1 -5.4,-0.9 -1.2,-4.5 -2.7,-0.3 -4.9,-2.8 -1.2,4.4 4.6,3.4 -3,2.4 -0.9,2.3 3.7,1.7 -0.3,3.9 2.6,4.8 1.6,5.3 -0.5,2.4 -3.8,-0.1 -6.6,1.3 0.9,4.8 -2.4,3.8 -7.5,4.4 -5.3,7.5 -3.8,4.1 -5,4.2 0.3,2.9 -2.6,1.6 -4.8,2.3 -2.6,0.3 -1.2,4.9 1.9,8.4 0.7,5.3 -1.9,6.1 0.7,10.9 -2.9,0.3 -2.3,4.9 1.9,2.2 -5.1,1.8 -1.7,4.3 -2.2,1.9 -5.6,-6 -3.1,-9 -2.5,-6.5 -2.2,-3 -3.4,-6.2 -2,-8 -1.4,-4 -5.9,-8.8 -3.5,-12.5 -2.6,-8.2 -0.8,-7.8 -1.7,-6 -7.7,3.9 -4,-0.8 L 7.59998,87.1 10,84.8 8.09998,82.3 1,76.8 4.19995,72.5 H 16.3 L 14.5,67 11,63.8 l -1.40002,-5 -4,-2.8 4.90002,-6.8 6.5,0.5 4.5,-6.7 2.2,-6.5 3.9,-6.5 -1,-4.6 3.8,-3.7 -5.1,-3.1 -2.9,-4.4 -3.3,-5.59999 2,-2.79999 8.5,1.59997 5.7,-1 L 39.1,1 46.8,8.60001 47.6,13.8 l 3,3.3 0.6,3.3 -4.1,-0.9 3.2,7.1 6.2,4 z"
         stroke="#000000"
         stroke-width="0.2"
         stroke-linecap="round"
         stroke-linejoin="round"
         id="path2"
         style="fill:#ffb2bc;fill-opacity:1" />
    </g>
  </g>
</svg>
