<?xml version="1.0" encoding="UTF-8" standalone="no"?>
<!-- Created with Inkscape (http://www.inkscape.org/) -->

<svg
   width="41.580936mm"
   height="46.97831mm"
   viewBox="0 0 41.580936 46.97831"
   version="1.1"
   id="svg1"
   inkscape:version="1.3.2 (091e20ef0f, 2023-11-25)"
   sodipodi:docname="india.svg"
   xmlns:inkscape="http://www.inkscape.org/namespaces/inkscape"
   xmlns:sodipodi="http://sodipodi.sourceforge.net/DTD/sodipodi-0.dtd"
   xmlns="http://www.w3.org/2000/svg"
   xmlns:svg="http://www.w3.org/2000/svg">
  <sodipodi:namedview
     id="namedview1"
     pagecolor="#505050"
     bordercolor="#eeeeee"
     borderopacity="1"
     inkscape:showpageshadow="0"
     inkscape:pageopacity="0"
     inkscape:pagecheckerboard="0"
     inkscape:deskcolor="#d1d1d1"
     inkscape:document-units="mm"
     inkscape:zoom="0.73406285"
     inkscape:cx="113.75048"
     inkscape:cy="153.93777"
     inkscape:window-width="1920"
     inkscape:window-height="1019"
     inkscape:window-x="0"
     inkscape:window-y="30"
     inkscape:window-maximized="1"
     inkscape:current-layer="layer1" />
  <defs
     id="defs1" />
  <g
     inkscape:label="Layer 1"
     inkscape:groupmode="layer"
     id="layer1"
     transform="translate(-74.832632,-107.74135)">
    <path
       d="m 91.892469,116.86361 -0.740833,0.79375 -0.238125,1.5875 1.534583,0.635 1.534583,0.82021 2.06375,0.9525 2.037292,0.23813 1.005417,0.84666 1.137704,0.15875 1.82563,0.39688 1.21708,-0.0265 0.0265,-0.66146 -0.39687,-1.08479 -0.0529,-0.71438 0.82021,-0.37041 0.39687,1.34937 0.10583,0.3175 1.45521,0.66146 0.84667,-0.26458 1.24354,0.10583 1.19063,-0.0529 -0.1323,-1.03187 -0.68791,-0.55563 1.11125,-0.21167 1.03187,-1.27 1.42875,-1.05833 1.29646,0.39688 0.84667,-0.71438 0.9525,1.05833 -0.3175,0.71438 1.61396,0.26458 0.26458,0.635 -0.44979,0.3175 0.37041,1.03188 -1.11125,-0.29104 -1.64041,1.16416 0.23812,0.97896 -0.52916,1.42875 0.0794,0.82021 -0.42334,1.40229 -1.21708,-0.39687 0.23812,1.7727 -0.26458,0.58209 0.26458,0.71437 -0.66145,0.39688 -1.16417,-2.69875 H 109.646 l -0.0794,1.11125 -0.9525,-0.89959 0.3175,-0.9525 0.635,-0.10583 0.42334,-1.42875 -0.89959,-0.29104 -1.34937,0.0265 -1.42875,-0.23813 -0.3175,-1.19062 -0.71438,-0.0794 -1.29645,-0.74083 -0.3175,1.16416 1.21708,0.89959 -0.79375,0.635 -0.23813,0.60854 0.97896,0.44979 -0.0794,1.03187 0.68792,1.27 0.42333,1.4023 -0.13229,0.635 -1.00542,-0.0265 -1.74625,0.34395 0.23813,1.27 -0.635,1.00542 -1.98438,1.16417 -1.402288,1.98437 -1.005417,1.08479 -1.322916,1.11125 0.07937,0.7673 -0.687917,0.42333 -1.27,0.60854 -0.687917,0.0794 -0.3175,1.29646 0.502709,2.2225 0.185208,1.40229 -0.502708,1.61396 0.185208,2.88396 -0.767292,0.0794 -0.608541,1.29646 0.502708,0.58208 -1.349375,0.47625 -0.449792,1.13771 -0.582083,0.50271 -1.481667,-1.5875 -0.820208,-2.38125 -0.661458,-1.7198 -0.582084,-0.79375 -0.899571,-1.64039 -0.529167,-2.11667 -0.370416,-1.05833 -1.561042,-2.32834 -0.926041,-3.30729 -0.687917,-2.16958 -0.211667,-2.06375 -0.449791,-1.5875 -2.037292,1.03187 -1.058333,-0.21166 -2.143131,-2.06375 0.635006,-0.60854 -0.502714,-0.66146 -1.878536,-1.45521 0.846653,-1.13771 h 3.201472 l -0.47625,-1.45521 -0.926042,-0.84666 -0.370422,-1.32292 -1.058333,-0.74083 1.296463,-1.79917 1.719792,0.13229 1.190625,-1.77271 0.582083,-1.71979 1.031875,-1.71979 -0.264583,-1.21708 1.005417,-0.97896 -1.349375,-0.82021 -0.767292,-1.16417 -0.873125,-1.48166 0.529167,-0.74083 2.248958,0.42332 1.508125,-0.26458 1.005416,-1.42875 2.037292,2.01084 0.211667,1.37583 0.79375,0.87312 0.15875,0.87313 -1.084792,-0.23813 0.846667,1.87855 1.640416,1.05833 z"
       fill="#ffb2bc"
       stroke="#000000"
       stroke-width="0.2"
       stroke-linecap="round"
       stroke-linejoin="round"
       id="path1" />
  </g>
</svg>
