<?xml version="1.0" encoding="UTF-8" standalone="no"?>
<!-- Created with Inkscape (http://www.inkscape.org/) -->

<svg
   width="25.335409mm"
   height="43.752213mm"
   viewBox="0 0 25.335409 43.752213"
   version="1.1"
   id="svg1"
   inkscape:version="1.3.2 (091e20ef0f, 2023-11-25)"
   sodipodi:docname="japan.svg"
   xmlns:inkscape="http://www.inkscape.org/namespaces/inkscape"
   xmlns:sodipodi="http://sodipodi.sourceforge.net/DTD/sodipodi-0.dtd"
   xmlns="http://www.w3.org/2000/svg"
   xmlns:svg="http://www.w3.org/2000/svg">
  <sodipodi:namedview
     id="namedview1"
     pagecolor="#505050"
     bordercolor="#eeeeee"
     borderopacity="1"
     inkscape:showpageshadow="0"
     inkscape:pageopacity="0"
     inkscape:pagecheckerboard="0"
     inkscape:deskcolor="#d1d1d1"
     inkscape:document-units="mm"
     inkscape:zoom="0.73406285"
     inkscape:cx="107.62021"
     inkscape:cy="163.47374"
     inkscape:window-width="1920"
     inkscape:window-height="1019"
     inkscape:window-x="0"
     inkscape:window-y="30"
     inkscape:window-maximized="1"
     inkscape:current-layer="layer1" />
  <defs
     id="defs1" />
  <g
     inkscape:label="Layer 1"
     inkscape:groupmode="layer"
     id="layer1"
     transform="translate(-76.31787,-105.22672)">
    <path
       d="m 88.539272,139.48282 0.751682,1.03346 -0.610712,1.83224 -1.456504,-0.98663 -0.986605,0.70485 0.04696,1.73831 -2.020196,-0.84561 -0.563801,-1.40943 0.610791,-1.83251 1.597395,0.37598 0.469821,-1.26842 z"
       fill="#ffb2bc"
       stroke="#000000"
       stroke-width="0.2"
       stroke-linecap="round"
       stroke-linejoin="round"
       id="path1" />
    <path
       d="m 100.09685,130.46209 0.28186,2.39609 1.17457,1.50336 -0.28189,2.11429 -2.537034,1.40943 -4.322339,0.18786 -2.067216,3.47662 -2.208133,-1.17448 -1.127575,-2.25505 -4.040452,0.65776 -2.396067,1.40943 -2.91293,0.0939 3.476678,2.20821 0.375894,5.12101 -1.174565,1.26842 -1.691402,-1.17449 -0.422778,-2.72494 -1.926325,-0.84561 -1.879283,-2.06719 2.020253,-0.9398 0.516784,-1.92617 1.832319,-1.55046 0.939641,-2.06719 4.557236,-0.8927 2.959894,0.61092 v -5.35606 l 2.396093,1.45645 2.11418,-3.00686 0.798724,-1.17454 -0.469821,-3.66461 -2.396119,-3.3827 -0.09395,-1.87928 2.255176,-0.5638 3.852492,4.1814 1.315535,2.39609 -0.61079,3.05385 z"
       fill="#ffb2bc"
       stroke="#000000"
       stroke-width="0.2"
       stroke-linecap="round"
       stroke-linejoin="round"
       id="path2" />
    <path
       d="m 94.505918,109.41414 2.114179,0.61076 0.845714,-1.22153 2.818919,3.33574 -3.006879,0.7987 -0.187933,2.95986 -5.120984,-2.02022 0.751681,3.24175 -2.678006,0.047 -2.208134,-2.95986 -0.281887,-2.30214 2.443057,-0.14095 -2.067216,-4.13442 -0.845661,-2.30212 4.933129,3.10081 z"
       fill="#ffb2bc"
       stroke="#000000"
       stroke-width="0.2"
       stroke-linecap="round"
       stroke-linejoin="round"
       id="path3" />
  </g>
</svg>
