<?xml version="1.0" encoding="UTF-8" standalone="no"?>
<!-- Created with Inkscape (http://www.inkscape.org/) -->

<svg
   width="25.188332mm"
   height="44.928368mm"
   viewBox="0 0 25.188332 44.928368"
   version="1.1"
   id="svg1"
   inkscape:version="1.3.2 (091e20ef0f, 2023-11-25)"
   sodipodi:docname="japan.svg"
   xmlns:inkscape="http://www.inkscape.org/namespaces/inkscape"
   xmlns:sodipodi="http://sodipodi.sourceforge.net/DTD/sodipodi-0.dtd"
   xmlns="http://www.w3.org/2000/svg"
   xmlns:svg="http://www.w3.org/2000/svg">
  <sodipodi:namedview
     id="namedview1"
     pagecolor="#505050"
     bordercolor="#eeeeee"
     borderopacity="1"
     inkscape:showpageshadow="0"
     inkscape:pageopacity="0"
     inkscape:pagecheckerboard="0"
     inkscape:deskcolor="#d1d1d1"
     inkscape:document-units="mm"
     inkscape:zoom="0.73406285"
     inkscape:cx="113.75048"
     inkscape:cy="213.87814"
     inkscape:window-width="1920"
     inkscape:window-height="1019"
     inkscape:window-x="0"
     inkscape:window-y="30"
     inkscape:window-maximized="1"
     inkscape:current-layer="layer1" />
  <defs
     id="defs1">
    <filter
       id="filter0_d_209_6"
       x="0.900002"
       y="0.89990199"
       width="95.199997"
       height="169.808"
       filterUnits="userSpaceOnUse"
       color-interpolation-filters="sRGB">
      <feFlood
         flood-opacity="0"
         result="BackgroundImageFix"
         id="feFlood3" />
      <feColorMatrix
         in="SourceAlpha"
         type="matrix"
         values="0 0 0 0 0 0 0 0 0 0 0 0 0 0 0 0 0 0 127 0"
         result="hardAlpha"
         id="feColorMatrix3" />
      <feOffset
         dy="5"
         id="feOffset3" />
      <feComposite
         in2="hardAlpha"
         operator="out"
         id="feComposite3" />
      <feColorMatrix
         type="matrix"
         values="0 0 0 0 0.490196 0 0 0 0 0.160784 0 0 0 0 0.231373 0 0 0 1 0"
         id="feColorMatrix4" />
      <feBlend
         mode="normal"
         in2="BackgroundImageFix"
         result="effect1_dropShadow_209_6"
         id="feBlend4" />
      <feBlend
         mode="normal"
         in="SourceGraphic"
         in2="effect1_dropShadow_209_6"
         result="shape"
         id="feBlend5" />
    </filter>
  </defs>
  <g
     inkscape:label="Layer 1"
     inkscape:groupmode="layer"
     id="layer1"
     transform="translate(-75.115209,-92.048516)">
    <g
       filter="url(#filter0_d_209_6)"
       id="g3"
       transform="matrix(0.26458333,0,0,0.26458333,74.877083,91.810417)">
      <path
         d="m 46.8132,130.094 2.841,3.906 -2.3082,6.925 -5.5049,-3.729 -3.7289,2.664 0.1775,6.57 -7.6354,-3.196 -2.1309,-5.327 2.3085,-6.926 6.0374,1.421 1.7757,-4.794 z"
         fill="#ffb2bc"
         stroke="#000000"
         stroke-width="0.2"
         stroke-linecap="round"
         stroke-linejoin="round"
         id="path1" />
      <path
         d="m 90.4954,95.9999 1.0653,9.0561 4.4393,5.682 -1.0654,7.991 -9.5888,5.327 -16.3364,0.71 -7.8131,13.14 -8.3457,-4.439 -4.2617,-8.523 -15.271,2.486 -9.056,5.327 -11.0095,0.355 13.1402,8.346 1.4207,19.355 -4.4393,4.794 -6.3927,-4.439 L 15.3834,150.869 8.1028,147.673 1,139.86 l 7.6356,-3.552 1.9532,-7.28 6.9253,-5.86 3.5514,-7.813 17.2242,-3.374 11.187,2.309 V 94.0466 l 9.0561,5.5047 7.9906,-11.3645 3.0188,-4.4392 -1.7757,-13.8505 -9.0562,-12.785 -0.3551,-7.1028 8.5235,-2.1309 14.5606,15.8037 4.9721,9.0561 -2.3085,11.5421 z"
         fill="#ffb2bc"
         stroke="#000000"
         stroke-width="0.2"
         stroke-linecap="round"
         stroke-linejoin="round"
         id="path2" />
      <path
         d="m 69.3643,16.4486 7.9906,2.3084 3.1964,-4.6168 10.6542,12.6075 -11.3646,3.0187 -0.7103,11.1869 -19.3549,-7.6355 2.841,12.2523 L 52.4951,45.7477 44.1494,34.5608 43.084,25.8598 52.3176,25.3271 44.5045,9.70095 41.3083,1 59.9532,12.7196 Z"
         fill="#ffb2bc"
         stroke="#000000"
         stroke-width="0.2"
         stroke-linecap="round"
         stroke-linejoin="round"
         id="path3" />
    </g>
  </g>
</svg>
