<?xml version="1.0" encoding="UTF-8" standalone="no"?>
<!-- Created with Inkscape (http://www.inkscape.org/) -->

<svg
   width="32.067497mm"
   height="31.009165mm"
   viewBox="0 0 32.067497 31.009165"
   version="1.1"
   id="svg1"
   inkscape:version="1.3.2 (091e20ef0f, 2023-11-25)"
   sodipodi:docname="nigeria.svg"
   xmlns:inkscape="http://www.inkscape.org/namespaces/inkscape"
   xmlns:sodipodi="http://sodipodi.sourceforge.net/DTD/sodipodi-0.dtd"
   xmlns="http://www.w3.org/2000/svg"
   xmlns:svg="http://www.w3.org/2000/svg">
  <sodipodi:namedview
     id="namedview1"
     pagecolor="#505050"
     bordercolor="#eeeeee"
     borderopacity="1"
     inkscape:showpageshadow="0"
     inkscape:pageopacity="0"
     inkscape:pagecheckerboard="0"
     inkscape:deskcolor="#d1d1d1"
     inkscape:document-units="mm"
     showgrid="false"
     inkscape:zoom="0.73406285"
     inkscape:cx="121.92416"
     inkscape:cy="102.17109"
     inkscape:window-width="1920"
     inkscape:window-height="1019"
     inkscape:window-x="0"
     inkscape:window-y="30"
     inkscape:window-maximized="1"
     inkscape:current-layer="layer1" />
  <defs
     id="defs1">
    <filter
       id="filter0_d_209_5"
       x="0.89999402"
       y="0.89990199"
       width="121.2"
       height="117.2"
       filterUnits="userSpaceOnUse"
       color-interpolation-filters="sRGB">
      <feFlood
         flood-opacity="0"
         result="BackgroundImageFix"
         id="feFlood2" />
      <feColorMatrix
         in="SourceAlpha"
         type="matrix"
         values="0 0 0 0 0 0 0 0 0 0 0 0 0 0 0 0 0 0 127 0"
         result="hardAlpha"
         id="feColorMatrix2" />
      <feOffset
         dy="5"
         id="feOffset2" />
      <feComposite
         in2="hardAlpha"
         operator="out"
         id="feComposite2" />
      <feColorMatrix
         type="matrix"
         values="0 0 0 0 0.490196 0 0 0 0 0.160784 0 0 0 0 0.231373 0 0 0 1 0"
         id="feColorMatrix3" />
      <feBlend
         mode="normal"
         in2="BackgroundImageFix"
         result="effect1_dropShadow_209_5"
         id="feBlend3" />
      <feBlend
         mode="normal"
         in="SourceGraphic"
         in2="effect1_dropShadow_209_5"
         result="shape"
         id="feBlend4" />
    </filter>
  </defs>
  <g
     inkscape:label="Layer 1"
     inkscape:groupmode="layer"
     id="layer1"
     transform="translate(-72.733956,-121.41727)">
    <g
       filter="url(#filter0_d_209_5)"
       id="g2"
       transform="matrix(0.26458333,0,0,0.26458333,72.495833,121.17917)"
       style="fill:#ffb2bc;fill-opacity:1">
      <path
         d="m 117.84,17.1295 4.16,4.5307 -1.085,2.1748 -0.543,3.8058 -8.501,9.0615 -2.532,7.4304 -1.447,5.9806 -2.17,2.7184 -1.99,8.1553 -5.4255,4.712 -1.447,5.7994 -2.3512,4.7119 -0.9043,4.8933 -7.0539,3.987 -5.7878,-4.8932 -3.7982,0.1813 -6.1495,6.8867 h -2.8938 l -4.8834,11.2362 -2.5321,8.3364 -10.6712,4.168 -3.7982,-0.543 -3.979,2.537 -8.1391,-0.181 -5.6068,-7.431 -3.4365,-8.3362 -7.2347,-7.6117 H 10.0433 1 L 1.54269,70.7734 1.18093,63.3431 3.17042,56.0939 6.24518,52.4693 11.3094,45.2201 10.2243,42.1392 12.2138,37.4272 9.86252,30.5405 10.2243,26.7346 10.9477,16.2233 13.8416,11.5114 15.2885,4.80584 17.8207,2.44987 28.8535,1 38.982,5.34956 l 3.7982,4.3495 5.2452,0.18124 4.8835,-2.71845 12.2988,5.98055 5.2452,-0.3625 5.9687,-4.89314 5.9685,0.36243 2.8938,-1.63106 5.426,0.54372 7.9582,3.44335 7.7769,-6.52427 2.533,0.54366 7.053,12.68611 z"
         fill="#ffb2bc"
         id="path1"
         style="fill:#ffb2bc;fill-opacity:1" />
      <path
         d="m 117.84,17.1295 4.16,4.5307 -1.085,2.1748 -0.543,3.8058 -8.501,9.0615 -2.532,7.4304 -1.447,5.9806 -2.17,2.7184 -1.99,8.1553 -5.4255,4.712 -1.447,5.7994 -2.3512,4.7119 -0.9043,4.8933 -7.0539,3.987 -5.7878,-4.8932 -3.7982,0.1813 -6.1495,6.8867 h -2.8938 l -4.8834,11.2362 -2.5321,8.3364 -10.6712,4.168 -3.7982,-0.543 -3.979,2.537 -8.1391,-0.181 -5.6068,-7.431 -3.4365,-8.3362 -7.2347,-7.6117 H 10.0433 1 L 1.54269,70.7734 1.18093,63.3431 3.17042,56.0939 6.24518,52.4693 11.3094,45.2201 10.2243,42.1392 12.2138,37.4272 9.86252,30.5405 10.2243,26.7346 10.9477,16.2233 13.8416,11.5114 15.2885,4.80584 17.8207,2.44987 28.8535,1 38.982,5.34956 l 3.7982,4.3495 5.2452,0.18124 4.8835,-2.71845 12.2988,5.98055 5.2452,-0.3625 5.9687,-4.89314 5.9685,0.36243 2.8938,-1.63106 5.426,0.54372 7.9582,3.44335 7.7769,-6.52427 2.533,0.54366 7.053,12.68611 z"
         stroke="#000000"
         stroke-width="0.2"
         stroke-linecap="round"
         stroke-linejoin="round"
         id="path2"
         style="fill:#ffb2bc;fill-opacity:1" />
    </g>
  </g>
</svg>
