<?xml version="1.0" encoding="UTF-8" standalone="no"?>
<!-- Created with Inkscape (http://www.inkscape.org/) -->

<svg
   width="32.214577mm"
   height="29.833344mm"
   viewBox="0 0 32.214577 29.833344"
   version="1.1"
   id="svg1"
   inkscape:version="1.3.2 (091e20ef0f, 2023-11-25)"
   sodipodi:docname="nigeria.svg"
   xmlns:inkscape="http://www.inkscape.org/namespaces/inkscape"
   xmlns:sodipodi="http://sodipodi.sourceforge.net/DTD/sodipodi-0.dtd"
   xmlns="http://www.w3.org/2000/svg"
   xmlns:svg="http://www.w3.org/2000/svg">
  <sodipodi:namedview
     id="namedview1"
     pagecolor="#505050"
     bordercolor="#eeeeee"
     borderopacity="1"
     inkscape:showpageshadow="0"
     inkscape:pageopacity="0"
     inkscape:pagecheckerboard="0"
     inkscape:deskcolor="#d1d1d1"
     inkscape:document-units="mm"
     inkscape:zoom="0.73406285"
     inkscape:cx="117.83732"
     inkscape:cy="208.42902"
     inkscape:window-width="1920"
     inkscape:window-height="1019"
     inkscape:window-x="0"
     inkscape:window-y="30"
     inkscape:window-maximized="1"
     inkscape:current-layer="layer1" />
  <defs
     id="defs1" />
  <g
     inkscape:label="Layer 1"
     inkscape:groupmode="layer"
     id="layer1"
     transform="translate(-73.71875,-93.297937)">
    <path
       d="m 104.73267,97.665514 1.10066,1.198747 -0.28707,0.575416 -0.14367,1.006953 -2.24922,2.39752 -0.66993,1.96596 -0.38285,1.58237 -0.57414,0.71924 -0.52653,2.15776 -1.435492,1.24671 -0.382852,1.53443 -0.622088,1.24669 -0.239263,1.29468 -1.866344,1.0549 -1.531355,-1.29466 -1.004941,0.048 -1.627055,1.8221 h -0.765651 l -1.292067,2.97292 -0.669951,2.20567 -2.823422,1.10278 -1.00494,-0.14367 -1.052777,0.67125 -2.153471,-0.0479 -1.483466,-1.96612 -0.90924,-2.20562 -1.914181,-2.01393 H 76.211456 73.81875 l 0.143587,-4.93889 -0.09572,-1.96594 0.526386,-1.91802 0.81353,-0.959 1.339908,-1.91802 -0.287099,-0.81516 0.526389,-1.24671 -0.62211,-1.82211 0.09572,-1.00698 0.1914,-2.781112 0.765677,-1.24669 0.382826,-1.774179 0.669978,-0.623351 2.919095,-0.383611 2.679832,1.150821 1.004941,1.150805 1.387792,0.04795 1.292093,-0.719257 3.254058,1.582354 1.387792,-0.09591 1.579219,-1.294643 1.579165,0.09589 0.765652,-0.431551 1.435629,0.143859 2.105607,0.911053 2.057633,-1.726213 0.67019,0.143843 1.86612,3.356533 z"
       fill="#ffb2bc"
       stroke="#000000"
       stroke-width="0.2"
       stroke-linecap="round"
       stroke-linejoin="round"
       id="path1" />
  </g>
</svg>
