<svg width="133" height="133" viewBox="0 0 133 133" fill="none" xmlns="http://www.w3.org/2000/svg">
<g clip-path="url(#clip0_221_2)">
<path d="M9.072 89.356C9.072 89.612 9.012 89.844 8.892 90.052C8.772 90.26 8.598 90.424 8.37 90.544C8.142 90.664 7.868 90.724 7.548 90.724C7.22 90.724 6.942 90.66 6.714 90.532C6.486 90.4 6.312 90.228 6.192 90.016C6.072 89.8 6.012 89.568 6.012 89.32C6.012 89.128 6.046 88.964 6.114 88.828C6.182 88.688 6.262 88.568 6.354 88.468L6.678 88.72C6.602 88.804 6.54 88.894 6.492 88.99C6.444 89.082 6.42 89.186 6.42 89.302C6.42 89.478 6.468 89.636 6.564 89.776C6.656 89.912 6.788 90.02 6.96 90.1C7.128 90.176 7.324 90.214 7.548 90.214C7.88 90.214 8.15 90.132 8.358 89.968C8.562 89.8 8.664 89.582 8.664 89.314C8.664 89.178 8.636 89.052 8.58 88.936C8.52 88.82 8.45 88.718 8.37 88.63L8.7 88.414C8.816 88.546 8.908 88.692 8.976 88.852C9.04 89.012 9.072 89.18 9.072 89.356ZM9 86.2717L6.084 86.2717L6.084 85.8637L6.612 85.8217L6.612 85.8037C6.428 85.7037 6.282 85.5817 6.174 85.4377C6.066 85.2937 6.012 85.1397 6.012 84.9757C6.012 84.8597 6.032 84.7557 6.072 84.6637L6.504 84.7597C6.488 84.8077 6.476 84.8517 6.468 84.8917C6.46 84.9317 6.456 84.9817 6.456 85.0417C6.456 85.1657 6.506 85.2957 6.606 85.4317C6.706 85.5637 6.88 85.6797 7.128 85.7797L9 85.7797L9 86.2717ZM9.072 81.5682C9.072 81.8282 9.012 82.0642 8.892 82.2762C8.768 82.4882 8.592 82.6562 8.364 82.7802C8.136 82.9042 7.864 82.9662 7.548 82.9662C7.228 82.9662 6.954 82.9042 6.726 82.7802C6.498 82.6522 6.322 82.4882 6.198 82.2882C6.074 82.0882 6.012 81.8782 6.012 81.6582C6.012 81.2862 6.136 81.0002 6.384 80.8002C6.632 80.5962 6.964 80.4942 7.38 80.4942C7.432 80.4942 7.484 80.4962 7.536 80.5002C7.584 80.5002 7.626 80.5042 7.662 80.5122L7.662 82.4802C7.97 82.4602 8.216 82.3642 8.4 82.1922C8.584 82.0162 8.676 81.7882 8.676 81.5082C8.676 81.3682 8.656 81.2402 8.616 81.1242C8.572 81.0042 8.516 80.8902 8.448 80.7822L8.772 80.6082C8.852 80.7322 8.922 80.8742 8.982 81.0342C9.042 81.1902 9.072 81.3682 9.072 81.5682ZM7.308 82.4862L7.308 80.9262C7.012 80.9262 6.788 80.9902 6.636 81.1182C6.48 81.2422 6.402 81.4182 6.402 81.6462C6.402 81.8502 6.482 82.0342 6.642 82.1982C6.798 82.3582 7.02 82.4542 7.308 82.4862ZM9.072 77.6837C9.072 77.9277 9 78.1317 8.856 78.2957C8.708 78.4557 8.504 78.5357 8.244 78.5357C7.924 78.5357 7.68 78.3937 7.512 78.1097C7.34 77.8217 7.22 77.3677 7.152 76.7477C7.028 76.7477 6.91 76.7657 6.798 76.8017C6.686 76.8337 6.596 76.8937 6.528 76.9817C6.456 77.0657 6.42 77.1877 6.42 77.3477C6.42 77.5157 6.452 77.6737 6.516 77.8217C6.58 77.9697 6.652 78.1017 6.732 78.2177L6.39 78.4097C6.302 78.2737 6.218 78.1077 6.138 77.9117C6.054 77.7117 6.012 77.4957 6.012 77.2637C6.012 76.9077 6.122 76.6497 6.342 76.4897C6.558 76.3297 6.848 76.2497 7.212 76.2497L9 76.2497L9 76.6577L8.652 76.6997L8.652 76.7177C8.764 76.8537 8.862 77.0037 8.946 77.1677C9.03 77.3277 9.072 77.4997 9.072 77.6837ZM8.676 77.5397C8.676 77.3997 8.642 77.2677 8.574 77.1437C8.506 77.0197 8.41 76.8877 8.286 76.7477L7.476 76.7477C7.536 77.2317 7.626 77.5717 7.746 77.7677C7.866 77.9597 8.02 78.0557 8.208 78.0557C8.372 78.0557 8.492 78.0057 8.568 77.9057C8.64 77.8057 8.676 77.6837 8.676 77.5397ZM9.072 72.9962C9.072 73.3082 8.982 73.5262 8.802 73.6502C8.622 73.7702 8.388 73.8302 8.1 73.8302L6.486 73.8302L6.486 74.2622L6.114 74.2622L6.084 73.8062L5.268 73.7462L5.268 73.3322L6.084 73.3322L6.084 72.5462L6.486 72.5462L6.486 73.3322L8.106 73.3322C8.286 73.3322 8.426 73.3002 8.526 73.2362C8.622 73.1682 8.67 73.0502 8.67 72.8822C8.67 72.8302 8.662 72.7742 8.646 72.7142C8.626 72.6542 8.608 72.6002 8.592 72.5522L8.964 72.4562C8.992 72.5362 9.016 72.6242 9.036 72.7202C9.06 72.8122 9.072 72.9042 9.072 72.9962ZM9.072 66.6897C9.072 67.0537 8.94 67.3457 8.676 67.5657C8.408 67.7857 8.032 67.8957 7.548 67.8957C7.232 67.8957 6.96 67.8377 6.732 67.7217C6.5 67.6017 6.322 67.4457 6.198 67.2537C6.074 67.0577 6.012 66.8497 6.012 66.6297C6.012 66.4617 6.042 66.3157 6.102 66.1917C6.162 66.0677 6.244 65.9417 6.348 65.8137L5.85 65.8377L4.728 65.8377L4.728 65.3397L9 65.3397L9 65.7477L8.658 65.7897L8.658 65.8077C8.77 65.9197 8.868 66.0517 8.952 66.2037C9.032 66.3557 9.072 66.5177 9.072 66.6897ZM8.658 66.5817C8.658 66.3257 8.524 66.0777 8.256 65.8377L6.732 65.8377C6.62 65.9617 6.542 66.0817 6.498 66.1977C6.45 66.3097 6.426 66.4257 6.426 66.5457C6.426 66.7017 6.474 66.8437 6.57 66.9717C6.662 67.0957 6.792 67.1957 6.96 67.2717C7.124 67.3477 7.318 67.3857 7.542 67.3857C7.89 67.3857 8.164 67.3157 8.364 67.1757C8.56 67.0357 8.658 66.8377 8.658 66.5817ZM9.072 61.6756C9.072 61.9356 9.012 62.1716 8.892 62.3836C8.768 62.5956 8.592 62.7636 8.364 62.8876C8.136 63.0116 7.864 63.0736 7.548 63.0736C7.228 63.0736 6.954 63.0116 6.726 62.8876C6.498 62.7596 6.322 62.5956 6.198 62.3956C6.074 62.1956 6.012 61.9856 6.012 61.7656C6.012 61.3936 6.136 61.1076 6.384 60.9076C6.632 60.7036 6.964 60.6016 7.38 60.6016C7.432 60.6016 7.484 60.6036 7.536 60.6076C7.584 60.6076 7.626 60.6116 7.662 60.6196L7.662 62.5876C7.97 62.5676 8.216 62.4716 8.4 62.2996C8.584 62.1236 8.676 61.8956 8.676 61.6156C8.676 61.4756 8.656 61.3476 8.616 61.2316C8.572 61.1116 8.516 60.9976 8.448 60.8896L8.772 60.7156C8.852 60.8396 8.922 60.9816 8.982 61.1416C9.042 61.2976 9.072 61.4756 9.072 61.6756ZM7.308 62.5936L7.308 61.0336C7.012 61.0336 6.788 61.0976 6.636 61.2256C6.48 61.3496 6.402 61.5256 6.402 61.7536C6.402 61.9576 6.482 62.1416 6.642 62.3056C6.798 62.4656 7.02 62.5616 7.308 62.5936ZM6.798 54.9539L7.398 55.1399L7.398 53.9579L6.798 54.1439C6.578 54.2159 6.36 54.2839 6.144 54.3479C5.924 54.4119 5.7 54.4759 5.472 54.5399L5.472 54.5639C5.7 54.6239 5.924 54.6859 6.144 54.7499C6.36 54.8139 6.578 54.8819 6.798 54.9539ZM9 56.1539L5.064 54.8219L5.064 54.2579L9 52.9259L9 53.4599L7.8 53.8319L7.8 55.2659L9 55.6439L9 56.1539ZM9.072 49.4748C9.072 49.8028 8.988 50.0948 8.82 50.3508C8.652 50.6028 8.414 50.8008 8.106 50.9448C7.798 51.0848 7.434 51.1548 7.014 51.1548C6.594 51.1548 6.234 51.0848 5.934 50.9448C5.63 50.8008 5.398 50.6028 5.238 50.3508C5.074 50.0948 4.992 49.8028 4.992 49.4748C4.992 49.1428 5.074 48.8508 5.238 48.5988C5.398 48.3468 5.63 48.1488 5.934 48.0048C6.234 47.8608 6.594 47.7888 7.014 47.7888C7.434 47.7888 7.798 47.8608 8.106 48.0048C8.414 48.1488 8.652 48.3468 8.82 48.5988C8.988 48.8508 9.072 49.1428 9.072 49.4748ZM8.634 49.4748C8.634 49.2388 8.568 49.0348 8.436 48.8628C8.3 48.6868 8.112 48.5508 7.872 48.4548C7.628 48.3588 7.342 48.3108 7.014 48.3108C6.526 48.3108 6.14 48.4168 5.856 48.6288C5.572 48.8408 5.43 49.1228 5.43 49.4748C5.43 49.8268 5.572 50.1088 5.856 50.3208C6.14 50.5328 6.526 50.6388 7.014 50.6388C7.342 50.6388 7.628 50.5908 7.872 50.4948C8.112 50.3988 8.3 50.2628 8.436 50.0868C8.568 49.9108 8.634 49.7068 8.634 49.4748ZM9 45.4424L5.064 45.4424L5.064 44.2124C5.064 43.9444 5.1 43.7064 5.172 43.4984C5.24 43.2904 5.356 43.1284 5.52 43.0124C5.68 42.8924 5.896 42.8324 6.168 42.8324C6.472 42.8324 6.718 42.9124 6.906 43.0724C7.09 43.2324 7.216 43.4484 7.284 43.7204L9 42.7184L9 43.2824L7.338 44.2304L7.338 44.9444L9 44.9444L9 45.4424ZM6.93 44.9444L6.93 44.2844C6.93 43.9764 6.868 43.7404 6.744 43.5764C6.616 43.4124 6.424 43.3304 6.168 43.3304C5.908 43.3304 5.726 43.4124 5.622 43.5764C5.518 43.7404 5.466 43.9764 5.466 44.2844L5.466 44.9444L6.93 44.9444Z" fill="#FFB2BC"/>
<path d="M42.54 127V123.064H43.056L44.478 125.536L44.904 126.352H44.928C44.916 126.152 44.902 125.946 44.886 125.734C44.874 125.518 44.868 125.306 44.868 125.098V123.064H45.342V127H44.826L43.398 124.522L42.972 123.712H42.948C42.964 123.908 42.978 124.11 42.99 124.318C43.006 124.526 43.014 124.734 43.014 124.942V127H42.54ZM49.0108 127.072C48.7748 127.072 48.5528 127.012 48.3448 126.892C48.1408 126.772 47.9748 126.598 47.8468 126.37C47.7228 126.142 47.6608 125.868 47.6608 125.548C47.6608 125.22 47.7228 124.942 47.8468 124.714C47.9748 124.486 48.1408 124.312 48.3448 124.192C48.5528 124.072 48.7748 124.012 49.0108 124.012C49.2508 124.012 49.4728 124.072 49.6768 124.192C49.8808 124.312 50.0448 124.486 50.1688 124.714C50.2968 124.942 50.3608 125.22 50.3608 125.548C50.3608 125.868 50.2968 126.142 50.1688 126.37C50.0448 126.598 49.8808 126.772 49.6768 126.892C49.4728 127.012 49.2508 127.072 49.0108 127.072ZM49.0108 126.664C49.2628 126.664 49.4648 126.562 49.6168 126.358C49.7728 126.15 49.8508 125.88 49.8508 125.548C49.8508 125.212 49.7728 124.94 49.6168 124.732C49.4648 124.524 49.2628 124.42 49.0108 124.42C48.7628 124.42 48.5608 124.524 48.4048 124.732C48.2488 124.94 48.1708 125.212 48.1708 125.548C48.1708 125.88 48.2488 126.15 48.4048 126.358C48.5608 126.562 48.7628 126.664 49.0108 126.664ZM52.6287 127V124.084H53.1207V127H52.6287ZM52.8807 123.484C52.7847 123.484 52.7047 123.456 52.6407 123.4C52.5807 123.34 52.5507 123.26 52.5507 123.16C52.5507 123.064 52.5807 122.986 52.6407 122.926C52.7047 122.866 52.7847 122.836 52.8807 122.836C52.9767 122.836 53.0547 122.866 53.1147 122.926C53.1787 122.986 53.2107 123.064 53.2107 123.16C53.2107 123.26 53.1787 123.34 53.1147 123.4C53.0547 123.456 52.9767 123.484 52.8807 123.484ZM59.4585 127.072C59.2025 127.072 58.9705 127.012 58.7625 126.892C58.5545 126.772 58.3905 126.598 58.2705 126.37C58.1505 126.142 58.0905 125.868 58.0905 125.548C58.0905 125.22 58.1545 124.942 58.2825 124.714C58.4145 124.486 58.5865 124.312 58.7985 124.192C59.0145 124.072 59.2465 124.012 59.4945 124.012C59.6865 124.012 59.8505 124.046 59.9865 124.114C60.1265 124.182 60.2465 124.262 60.3465 124.354L60.0945 124.678C60.0105 124.602 59.9205 124.54 59.8245 124.492C59.7325 124.444 59.6285 124.42 59.5125 124.42C59.3365 124.42 59.1785 124.468 59.0385 124.564C58.9025 124.656 58.7945 124.788 58.7145 124.96C58.6385 125.128 58.6005 125.324 58.6005 125.548C58.6005 125.88 58.6825 126.15 58.8465 126.358C59.0145 126.562 59.2325 126.664 59.5005 126.664C59.6365 126.664 59.7625 126.636 59.8785 126.58C59.9945 126.52 60.0965 126.45 60.1845 126.37L60.4005 126.7C60.2685 126.816 60.1225 126.908 59.9625 126.976C59.8025 127.04 59.6345 127.072 59.4585 127.072ZM63.1562 127.072C62.9122 127.072 62.7082 127 62.5442 126.856C62.3842 126.708 62.3042 126.504 62.3042 126.244C62.3042 125.924 62.4462 125.68 62.7302 125.512C63.0182 125.34 63.4722 125.22 64.0922 125.152C64.0922 125.028 64.0742 124.91 64.0382 124.798C64.0062 124.686 63.9462 124.596 63.8582 124.528C63.7742 124.456 63.6522 124.42 63.4922 124.42C63.3242 124.42 63.1662 124.452 63.0182 124.516C62.8702 124.58 62.7382 124.652 62.6222 124.732L62.4302 124.39C62.5662 124.302 62.7322 124.218 62.9282 124.138C63.1282 124.054 63.3442 124.012 63.5762 124.012C63.9322 124.012 64.1902 124.122 64.3502 124.342C64.5102 124.558 64.5902 124.848 64.5902 125.212V127H64.1822L64.1402 126.652H64.1222C63.9862 126.764 63.8362 126.862 63.6722 126.946C63.5122 127.03 63.3402 127.072 63.1562 127.072ZM63.3002 126.676C63.4402 126.676 63.5722 126.642 63.6962 126.574C63.8202 126.506 63.9522 126.41 64.0922 126.286V125.476C63.6082 125.536 63.2682 125.626 63.0722 125.746C62.8802 125.866 62.7842 126.02 62.7842 126.208C62.7842 126.372 62.8342 126.492 62.9342 126.568C63.0342 126.64 63.1562 126.676 63.3002 126.676ZM67.5296 127.072C67.3456 127.072 67.2116 127.016 67.1276 126.904C67.0476 126.788 67.0076 126.624 67.0076 126.412V122.728H67.4996V126.448C67.4996 126.524 67.5136 126.58 67.5416 126.616C67.5696 126.648 67.6016 126.664 67.6376 126.664C67.6536 126.664 67.6676 126.664 67.6796 126.664C67.6956 126.66 67.7176 126.656 67.7456 126.652L67.8116 127.024C67.7796 127.04 67.7416 127.052 67.6976 127.06C67.6536 127.068 67.5976 127.072 67.5296 127.072ZM71.1889 127.072C70.9329 127.072 70.7009 127.012 70.4929 126.892C70.2849 126.772 70.1209 126.598 70.0009 126.37C69.8809 126.142 69.8209 125.868 69.8209 125.548C69.8209 125.22 69.8849 124.942 70.0129 124.714C70.1449 124.486 70.3169 124.312 70.5289 124.192C70.7449 124.072 70.9769 124.012 71.2249 124.012C71.4169 124.012 71.5809 124.046 71.7169 124.114C71.8569 124.182 71.9769 124.262 72.0769 124.354L71.8249 124.678C71.7409 124.602 71.6509 124.54 71.5549 124.492C71.4629 124.444 71.3589 124.42 71.2429 124.42C71.0669 124.42 70.9089 124.468 70.7689 124.564C70.6329 124.656 70.5249 124.788 70.4449 124.96C70.3689 125.128 70.3309 125.324 70.3309 125.548C70.3309 125.88 70.4129 126.15 70.5769 126.358C70.7449 126.562 70.9629 126.664 71.2309 126.664C71.3669 126.664 71.4929 126.636 71.6089 126.58C71.7249 126.52 71.8269 126.45 71.9149 126.37L72.1309 126.7C71.9989 126.816 71.8529 126.908 71.6929 126.976C71.5329 127.04 71.3649 127.072 71.1889 127.072ZM75.1253 127.072C74.8173 127.072 74.5913 126.976 74.4473 126.784C74.3033 126.588 74.2313 126.304 74.2313 125.932V124.084H74.7293V125.866C74.7293 126.138 74.7713 126.336 74.8553 126.46C74.9433 126.584 75.0833 126.646 75.2753 126.646C75.4273 126.646 75.5613 126.608 75.6773 126.532C75.7973 126.452 75.9253 126.326 76.0613 126.154V124.084H76.5533V127H76.1453L76.1033 126.544H76.0853C75.9493 126.704 75.8053 126.832 75.6533 126.928C75.5013 127.024 75.3253 127.072 75.1253 127.072ZM79.5589 127.072C79.3749 127.072 79.2409 127.016 79.1569 126.904C79.0769 126.788 79.0369 126.624 79.0369 126.412V122.728H79.5289V126.448C79.5289 126.524 79.5429 126.58 79.5709 126.616C79.5989 126.648 79.6309 126.664 79.6669 126.664C79.6829 126.664 79.6969 126.664 79.7089 126.664C79.7249 126.66 79.7469 126.656 79.7749 126.652L79.8409 127.024C79.8089 127.04 79.7709 127.052 79.7269 127.06C79.6829 127.068 79.6269 127.072 79.5589 127.072ZM82.7382 127.072C82.4942 127.072 82.2902 127 82.1262 126.856C81.9662 126.708 81.8862 126.504 81.8862 126.244C81.8862 125.924 82.0282 125.68 82.3122 125.512C82.6002 125.34 83.0542 125.22 83.6742 125.152C83.6742 125.028 83.6562 124.91 83.6202 124.798C83.5882 124.686 83.5282 124.596 83.4402 124.528C83.3562 124.456 83.2342 124.42 83.0742 124.42C82.9062 124.42 82.7482 124.452 82.6002 124.516C82.4522 124.58 82.3202 124.652 82.2042 124.732L82.0122 124.39C82.1482 124.302 82.3142 124.218 82.5102 124.138C82.7102 124.054 82.9262 124.012 83.1582 124.012C83.5142 124.012 83.7722 124.122 83.9322 124.342C84.0922 124.558 84.1722 124.848 84.1722 125.212V127H83.7642L83.7222 126.652H83.7042C83.5682 126.764 83.4182 126.862 83.2542 126.946C83.0942 127.03 82.9222 127.072 82.7382 127.072ZM82.8822 126.676C83.0222 126.676 83.1542 126.642 83.2782 126.574C83.4022 126.506 83.5342 126.41 83.6742 126.286V125.476C83.1902 125.536 82.8502 125.626 82.6542 125.746C82.4622 125.866 82.3662 126.02 82.3662 126.208C82.3662 126.372 82.4162 126.492 82.5162 126.568C82.6162 126.64 82.7382 126.676 82.8822 126.676ZM83.1762 123.574C82.9642 123.574 82.7902 123.53 82.6542 123.442C82.5222 123.35 82.4222 123.236 82.3542 123.1C82.2902 122.96 82.2522 122.816 82.2402 122.668L82.5462 122.62C82.5622 122.72 82.5942 122.818 82.6422 122.914C82.6942 123.01 82.7642 123.09 82.8522 123.154C82.9402 123.214 83.0482 123.244 83.1762 123.244C83.3082 123.244 83.4162 123.214 83.5002 123.154C83.5882 123.09 83.6562 123.01 83.7042 122.914C83.7562 122.818 83.7902 122.72 83.8062 122.62L84.1122 122.668C84.1042 122.816 84.0662 122.96 83.9982 123.1C83.9342 123.236 83.8342 123.35 83.6982 123.442C83.5662 123.53 83.3922 123.574 83.1762 123.574ZM86.5897 127V124.084H86.9977L87.0397 124.504H87.0577C87.1857 124.364 87.3257 124.248 87.4777 124.156C87.6297 124.06 87.7917 124.012 87.9637 124.012C88.1877 124.012 88.3617 124.062 88.4857 124.162C88.6137 124.258 88.7077 124.394 88.7677 124.57C88.9197 124.406 89.0737 124.272 89.2297 124.168C89.3857 124.064 89.5517 124.012 89.7277 124.012C90.0277 124.012 90.2497 124.11 90.3937 124.306C90.5417 124.498 90.6157 124.78 90.6157 125.152V127H90.1237V125.218C90.1237 124.946 90.0797 124.748 89.9917 124.624C89.9037 124.5 89.7677 124.438 89.5837 124.438C89.3677 124.438 89.1237 124.588 88.8517 124.888V127H88.3597V125.218C88.3597 124.946 88.3157 124.748 88.2277 124.624C88.1397 124.5 88.0017 124.438 87.8137 124.438C87.5977 124.438 87.3537 124.588 87.0817 124.888V127H86.5897Z" fill="#FFB2BC"/>
<path d="M40.632 10.072C40.356 10.072 40.1 10.02 39.864 9.916C39.628 9.808 39.424 9.666 39.252 9.49L39.552 9.142C39.692 9.29 39.856 9.41 40.044 9.502C40.236 9.59 40.434 9.634 40.638 9.634C40.898 9.634 41.1 9.576 41.244 9.46C41.388 9.34 41.46 9.184 41.46 8.992C41.46 8.856 41.43 8.748 41.37 8.668C41.314 8.588 41.236 8.52 41.136 8.464C41.04 8.408 40.93 8.352 40.806 8.296L40.242 8.05C40.118 7.998 39.994 7.93 39.87 7.846C39.75 7.762 39.648 7.654 39.564 7.522C39.484 7.39 39.444 7.228 39.444 7.036C39.444 6.836 39.496 6.658 39.6 6.502C39.708 6.342 39.856 6.218 40.044 6.13C40.232 6.038 40.444 5.992 40.68 5.992C40.916 5.992 41.134 6.038 41.334 6.13C41.534 6.218 41.704 6.334 41.844 6.478L41.574 6.802C41.454 6.686 41.32 6.596 41.172 6.532C41.028 6.464 40.864 6.43 40.68 6.43C40.46 6.43 40.282 6.482 40.146 6.586C40.014 6.69 39.948 6.83 39.948 7.006C39.948 7.13 39.98 7.234 40.044 7.318C40.112 7.398 40.196 7.464 40.296 7.516C40.396 7.568 40.498 7.616 40.602 7.66L41.16 7.9C41.312 7.964 41.448 8.042 41.568 8.134C41.692 8.222 41.79 8.332 41.862 8.464C41.934 8.592 41.97 8.754 41.97 8.95C41.97 9.158 41.916 9.348 41.808 9.52C41.7 9.688 41.546 9.822 41.346 9.922C41.146 10.022 40.908 10.072 40.632 10.072ZM44.1971 10V5.728H44.6831V8.62H44.7011L45.9431 7.084H46.4891L45.5111 8.254L46.6211 10H46.0811L45.2291 8.596L44.6831 9.232V10H44.1971ZM48.6678 10V7.084H49.1598V10H48.6678ZM48.9198 6.484C48.8238 6.484 48.7438 6.456 48.6798 6.4C48.6198 6.34 48.5898 6.26 48.5898 6.16C48.5898 6.064 48.6198 5.986 48.6798 5.926C48.7438 5.866 48.8238 5.836 48.9198 5.836C49.0158 5.836 49.0938 5.866 49.1538 5.926C49.2178 5.986 49.2498 6.064 49.2498 6.16C49.2498 6.26 49.2178 6.34 49.1538 6.4C49.0938 6.456 49.0158 6.484 48.9198 6.484ZM52.6403 10.072C52.2763 10.072 51.9843 9.94 51.7643 9.676C51.5443 9.408 51.4343 9.032 51.4343 8.548C51.4343 8.232 51.4923 7.96 51.6083 7.732C51.7283 7.5 51.8843 7.322 52.0763 7.198C52.2723 7.074 52.4803 7.012 52.7003 7.012C52.8683 7.012 53.0143 7.042 53.1383 7.102C53.2623 7.162 53.3883 7.244 53.5163 7.348L53.4923 6.85V5.728L53.9903 5.728V10H53.5823L53.5403 9.658H53.5223C53.4103 9.77 53.2783 9.868 53.1263 9.952C52.9743 10.032 52.8123 10.072 52.6403 10.072ZM52.7483 9.658C53.0043 9.658 53.2523 9.524 53.4923 9.256V7.732C53.3683 7.62 53.2483 7.542 53.1323 7.498C53.0203 7.45 52.9043 7.426 52.7843 7.426C52.6283 7.426 52.4863 7.474 52.3583 7.57C52.2343 7.662 52.1343 7.792 52.0583 7.96C51.9823 8.124 51.9443 8.318 51.9443 8.542C51.9443 8.89 52.0143 9.164 52.1543 9.364C52.2943 9.56 52.4923 9.658 52.7483 9.658ZM57.6545 10.072C57.3945 10.072 57.1585 10.012 56.9465 9.892C56.7345 9.768 56.5665 9.592 56.4425 9.364C56.3185 9.136 56.2565 8.864 56.2565 8.548C56.2565 8.228 56.3185 7.954 56.4425 7.726C56.5705 7.498 56.7345 7.322 56.9345 7.198C57.1345 7.074 57.3445 7.012 57.5645 7.012C57.9365 7.012 58.2225 7.136 58.4225 7.384C58.6265 7.632 58.7285 7.964 58.7285 8.38C58.7285 8.432 58.7265 8.484 58.7225 8.536C58.7225 8.584 58.7185 8.626 58.7105 8.662H56.7425C56.7625 8.97 56.8585 9.216 57.0305 9.4C57.2065 9.584 57.4345 9.676 57.7145 9.676C57.8545 9.676 57.9825 9.656 58.0985 9.616C58.2185 9.572 58.3325 9.516 58.4405 9.448L58.6145 9.772C58.4905 9.852 58.3485 9.922 58.1885 9.982C58.0325 10.042 57.8545 10.072 57.6545 10.072ZM56.7365 8.308H58.2965C58.2965 8.012 58.2325 7.788 58.1045 7.636C57.9805 7.48 57.8045 7.402 57.5765 7.402C57.3725 7.402 57.1885 7.482 57.0245 7.642C56.8645 7.798 56.7685 8.02 56.7365 8.308ZM61.8084 10.072C61.4964 10.072 61.2784 9.982 61.1544 9.802C61.0344 9.622 60.9744 9.388 60.9744 9.1V7.486H60.5424V7.114L60.9984 7.084L61.0584 6.268H61.4724V7.084H62.2584V7.486H61.4724V9.106C61.4724 9.286 61.5044 9.426 61.5684 9.526C61.6364 9.622 61.7544 9.67 61.9224 9.67C61.9744 9.67 62.0304 9.662 62.0904 9.646C62.1504 9.626 62.2044 9.608 62.2524 9.592L62.3484 9.964C62.2684 9.992 62.1804 10.016 62.0844 10.036C61.9924 10.06 61.9004 10.072 61.8084 10.072ZM64.4178 10V7.084H64.9098V10H64.4178ZM64.6698 6.484C64.5738 6.484 64.4938 6.456 64.4298 6.4C64.3698 6.34 64.3398 6.26 64.3398 6.16C64.3398 6.064 64.3698 5.986 64.4298 5.926C64.4938 5.866 64.5738 5.836 64.6698 5.836C64.7658 5.836 64.8438 5.866 64.9038 5.926C64.9678 5.986 64.9998 6.064 64.9998 6.16C64.9998 6.26 64.9678 6.34 64.9038 6.4C64.8438 6.456 64.7658 6.484 64.6698 6.484ZM68.5463 10.072C68.2903 10.072 68.0583 10.012 67.8503 9.892C67.6423 9.772 67.4783 9.598 67.3583 9.37C67.2383 9.142 67.1783 8.868 67.1783 8.548C67.1783 8.22 67.2423 7.942 67.3703 7.714C67.5023 7.486 67.6743 7.312 67.8863 7.192C68.1023 7.072 68.3343 7.012 68.5823 7.012C68.7743 7.012 68.9383 7.046 69.0743 7.114C69.2143 7.182 69.3343 7.262 69.4343 7.354L69.1823 7.678C69.0983 7.602 69.0083 7.54 68.9123 7.492C68.8203 7.444 68.7163 7.42 68.6003 7.42C68.4243 7.42 68.2663 7.468 68.1263 7.564C67.9903 7.656 67.8823 7.788 67.8023 7.96C67.7263 8.128 67.6883 8.324 67.6883 8.548C67.6883 8.88 67.7703 9.15 67.9343 9.358C68.1023 9.562 68.3203 9.664 68.5883 9.664C68.7243 9.664 68.8503 9.636 68.9663 9.58C69.0823 9.52 69.1843 9.45 69.2723 9.37L69.4883 9.7C69.3563 9.816 69.2103 9.908 69.0503 9.976C68.8903 10.04 68.7223 10.072 68.5463 10.072ZM72.2441 10.072C72.0001 10.072 71.7961 10 71.6321 9.856C71.4721 9.708 71.3921 9.504 71.3921 9.244C71.3921 8.924 71.5341 8.68 71.8181 8.512C72.1061 8.34 72.5601 8.22 73.1801 8.152C73.1801 8.028 73.1621 7.91 73.1261 7.798C73.0941 7.686 73.0341 7.596 72.9461 7.528C72.8621 7.456 72.7401 7.42 72.5801 7.42C72.4121 7.42 72.2541 7.452 72.1061 7.516C71.9581 7.58 71.8261 7.652 71.7101 7.732L71.5181 7.39C71.6541 7.302 71.8201 7.218 72.0161 7.138C72.2161 7.054 72.4321 7.012 72.6641 7.012C73.0201 7.012 73.2781 7.122 73.4381 7.342C73.5981 7.558 73.6781 7.848 73.6781 8.212V10H73.2701L73.2281 9.652H73.2101C73.0741 9.764 72.9241 9.862 72.7601 9.946C72.6001 10.03 72.4281 10.072 72.2441 10.072ZM72.3881 9.676C72.5281 9.676 72.6601 9.642 72.7841 9.574C72.9081 9.506 73.0401 9.41 73.1801 9.286V8.476C72.6961 8.536 72.3561 8.626 72.1601 8.746C71.9681 8.866 71.8721 9.02 71.8721 9.208C71.8721 9.372 71.9221 9.492 72.0221 9.568C72.1221 9.64 72.2441 9.676 72.3881 9.676ZM78.8447 10V6.064L79.3427 6.064V9.574H81.0647V10H78.8447ZM83.8867 10.072C83.6427 10.072 83.4387 10 83.2747 9.856C83.1147 9.708 83.0347 9.504 83.0347 9.244C83.0347 8.924 83.1767 8.68 83.4607 8.512C83.7487 8.34 84.2027 8.22 84.8227 8.152C84.8227 8.028 84.8047 7.91 84.7687 7.798C84.7367 7.686 84.6767 7.596 84.5887 7.528C84.5047 7.456 84.3827 7.42 84.2227 7.42C84.0547 7.42 83.8967 7.452 83.7487 7.516C83.6007 7.58 83.4687 7.652 83.3527 7.732L83.1607 7.39C83.2967 7.302 83.4627 7.218 83.6587 7.138C83.8587 7.054 84.0747 7.012 84.3067 7.012C84.6627 7.012 84.9207 7.122 85.0807 7.342C85.2407 7.558 85.3207 7.848 85.3207 8.212V10H84.9127L84.8707 9.652H84.8527C84.7167 9.764 84.5667 9.862 84.4027 9.946C84.2427 10.03 84.0707 10.072 83.8867 10.072ZM84.0307 9.676C84.1707 9.676 84.3027 9.642 84.4267 9.574C84.5507 9.506 84.6827 9.41 84.8227 9.286V8.476C84.3387 8.536 83.9987 8.626 83.8027 8.746C83.6107 8.866 83.5147 9.02 83.5147 9.208C83.5147 9.372 83.5647 9.492 83.6647 9.568C83.7647 9.64 83.8867 9.676 84.0307 9.676ZM89.0281 10.072C88.8921 10.072 88.7501 10.04 88.6021 9.976C88.4581 9.908 88.3221 9.816 88.1941 9.7H88.1761L88.1341 10H87.7381V5.728H88.2301V6.892L88.2181 7.42C88.3501 7.304 88.4941 7.208 88.6501 7.132C88.8101 7.052 88.9701 7.012 89.1301 7.012C89.5101 7.012 89.7981 7.146 89.9941 7.414C90.1901 7.682 90.2881 8.042 90.2881 8.494C90.2881 8.826 90.2281 9.11 90.1081 9.346C89.9921 9.582 89.8381 9.762 89.6461 9.886C89.4581 10.01 89.2521 10.072 89.0281 10.072ZM88.9441 9.658C89.1841 9.658 89.3821 9.556 89.5381 9.352C89.6981 9.144 89.7781 8.86 89.7781 8.5C89.7781 8.18 89.7181 7.922 89.5981 7.726C89.4821 7.526 89.2861 7.426 89.0101 7.426C88.8861 7.426 88.7601 7.46 88.6321 7.528C88.5041 7.596 88.3701 7.694 88.2301 7.822V9.352C88.3581 9.464 88.4841 9.544 88.6081 9.592C88.7361 9.636 88.8481 9.658 88.9441 9.658ZM93.3165 10.072C93.1085 10.072 92.9105 10.034 92.7225 9.958C92.5345 9.878 92.3705 9.782 92.2305 9.67L92.4765 9.34C92.6045 9.44 92.7365 9.524 92.8725 9.592C93.0085 9.656 93.1625 9.688 93.3345 9.688C93.5265 9.688 93.6705 9.644 93.7665 9.556C93.8625 9.464 93.9105 9.356 93.9105 9.232C93.9105 9.132 93.8765 9.048 93.8085 8.98C93.7445 8.912 93.6605 8.856 93.5565 8.812C93.4565 8.764 93.3525 8.72 93.2445 8.68C93.1085 8.628 92.9745 8.57 92.8425 8.506C92.7105 8.438 92.6025 8.352 92.5185 8.248C92.4345 8.14 92.3925 8.004 92.3925 7.84C92.3925 7.604 92.4805 7.408 92.6565 7.252C92.8365 7.092 93.0845 7.012 93.4005 7.012C93.5805 7.012 93.7485 7.044 93.9045 7.108C94.0605 7.172 94.1945 7.25 94.3065 7.342L94.0665 7.654C93.9665 7.578 93.8625 7.516 93.7545 7.468C93.6465 7.42 93.5285 7.396 93.4005 7.396C93.2165 7.396 93.0805 7.438 92.9925 7.522C92.9085 7.606 92.8665 7.704 92.8665 7.816C92.8665 7.908 92.8965 7.984 92.9565 8.044C93.0165 8.1 93.0945 8.15 93.1905 8.194C93.2865 8.234 93.3885 8.276 93.4965 8.32C93.6365 8.372 93.7745 8.432 93.9105 8.5C94.0465 8.564 94.1585 8.652 94.2465 8.764C94.3385 8.872 94.3845 9.018 94.3845 9.202C94.3845 9.358 94.3425 9.502 94.2585 9.634C94.1785 9.766 94.0585 9.872 93.8985 9.952C93.7425 10.032 93.5485 10.072 93.3165 10.072Z" fill="#FFB2BC"/>
<path d="M127 91.46L123.064 91.46L123.064 90.86L125.164 90.104C125.3 90.056 125.438 90.01 125.578 89.966C125.714 89.918 125.85 89.87 125.986 89.822L125.986 89.798C125.85 89.75 125.714 89.706 125.578 89.666C125.438 89.622 125.3 89.576 125.164 89.528L123.064 88.784L123.064 88.178L127 88.178L127 88.646L124.834 88.646C124.658 88.646 124.464 88.638 124.252 88.622C124.036 88.606 123.842 88.592 123.67 88.58L123.67 88.604L124.564 88.916L126.604 89.66L126.604 89.99L124.564 90.734L123.67 91.046L123.67 91.07C123.842 91.058 124.036 91.046 124.252 91.034C124.464 91.018 124.658 91.01 124.834 91.01L127 91.01L127 91.46ZM127 81.1006L123.064 81.1006L123.064 80.5006L125.164 79.7446C125.3 79.6966 125.438 79.6506 125.578 79.6066C125.714 79.5586 125.85 79.5106 125.986 79.4626L125.986 79.4386C125.85 79.3906 125.714 79.3466 125.578 79.3066C125.438 79.2626 125.3 79.2166 125.164 79.1686L123.064 78.4246L123.064 77.8186L127 77.8186L127 78.2866L124.834 78.2866C124.658 78.2866 124.464 78.2786 124.252 78.2626C124.036 78.2466 123.842 78.2326 123.67 78.2206L123.67 78.2446L124.564 78.5566L126.604 79.3006L126.604 79.6306L124.564 80.3746L123.67 80.6866L123.67 80.7106C123.842 80.6986 124.036 80.6866 124.252 80.6746C124.464 80.6586 124.658 80.6506 124.834 80.6506L127 80.6506L127 81.1006ZM127 71.1912L124.966 70.0452L123.064 71.1132L123.064 70.5612L124.072 70.0272C124.16 69.9752 124.248 69.9272 124.336 69.8832C124.424 69.8352 124.526 69.7812 124.642 69.7212L124.642 69.6972C124.526 69.6412 124.424 69.5932 124.336 69.5532C124.248 69.5092 124.16 69.4632 124.072 69.4152L123.064 68.8932L123.064 68.3652L124.99 69.4392L127 68.2932L127 68.8452L125.938 69.4212C125.842 69.4732 125.744 69.5272 125.644 69.5832C125.54 69.6352 125.428 69.6932 125.308 69.7572L125.308 69.7812C125.428 69.8372 125.54 69.8912 125.644 69.9432C125.744 69.9952 125.842 70.0452 125.938 70.0932L127 70.6632L127 71.1912ZM127 62.1151L124.966 60.9691L123.064 62.0371L123.064 61.4851L124.072 60.9511C124.16 60.8991 124.248 60.8511 124.336 60.8071C124.424 60.7591 124.526 60.7051 124.642 60.6451L124.642 60.6211C124.526 60.5651 124.424 60.5171 124.336 60.4771C124.248 60.4331 124.16 60.3871 124.072 60.3391L123.064 59.8171L123.064 59.2891L124.99 60.3631L127 59.2171L127 59.7691L125.938 60.3451C125.842 60.3971 125.744 60.4511 125.644 60.5071C125.54 60.5591 125.428 60.6171 125.308 60.6811L125.308 60.7051C125.428 60.7611 125.54 60.8151 125.644 60.8671C125.744 60.9191 125.842 60.9691 125.938 61.0171L127 61.5871L127 62.1151ZM127 52.5889L123.064 52.5889L123.064 52.0909L127 52.0909L127 52.5889ZM127 44.2927L123.064 45.5527L123.064 45.0187L125.188 44.3887C125.42 44.3167 125.638 44.2547 125.842 44.2027C126.042 44.1467 126.258 44.0807 126.49 44.0047L126.49 43.9807C126.258 43.9087 126.042 43.8447 125.842 43.7887C125.638 43.7327 125.42 43.6707 125.188 43.6027L123.064 42.9727L123.064 42.4627L127 43.7107L127 44.2927Z" fill="#FFB2BC"/>
<rect x="0.5" y="0.5" width="132" height="132" rx="3.5" stroke="#FFB2BC"/>
<path d="M65.397 72.9398L60.9075 77.1837L65.397 72.9398Z" fill="#A52D45"/>
<path d="M65.397 72.9398L60.9075 77.1837" stroke="#FFB2BC" stroke-linecap="round" stroke-linejoin="round"/>
<path d="M60.9075 72.9398L65.397 77.1837L60.9075 72.9398Z" fill="#A52D45"/>
<path d="M60.9075 72.9398L65.397 77.1837" stroke="#FFB2BC" stroke-linecap="round" stroke-linejoin="round"/>
<path d="M101.472 71.2938L96.9822 75.5377L101.472 71.2938Z" fill="#A52D45"/>
<path d="M101.472 71.2938L96.9822 75.5377" stroke="#FFB2BC" stroke-linecap="round" stroke-linejoin="round"/>
<path d="M96.9822 71.2938L101.472 75.5377L96.9822 71.2938Z" fill="#A52D45"/>
<path d="M96.9822 71.2938L101.472 75.5377" stroke="#FFB2BC" stroke-linecap="round" stroke-linejoin="round"/>
<path d="M100.625 40.4255L96.1357 44.6694L100.625 40.4255Z" fill="#A52D45"/>
<path d="M100.625 40.4255L96.1357 44.6694" stroke="#FFB2BC" stroke-linecap="round" stroke-linejoin="round"/>
<path d="M96.1357 40.4255L100.625 44.6694L96.1357 40.4255Z" fill="#A52D45"/>
<path d="M96.1357 40.4255L100.625 44.6694" stroke="#FFB2BC" stroke-linecap="round" stroke-linejoin="round"/>
<path d="M71.1829 46.5151H85.6138M69.6009 48.1851L68.7043 62.3247" stroke="#FFB2BC" stroke-linecap="round" stroke-linejoin="round"/>
<path d="M52.7214 31L70.0417 46.9422L52.7214 31Z" fill="#CB211C"/>
<path d="M52.7214 31L70.0417 46.9422" stroke="#FFB2BC" stroke-linecap="round" stroke-linejoin="round"/>
<path d="M31 47.3612L52.423 66.6809L31 47.3612ZM52.6567 101.679L31.0764 47.4679L52.6567 101.679ZM52.8354 31.2435V101.983V31.2435Z" fill="#2B0807"/>
<path d="M31 47.3612L52.423 66.6809M52.6567 101.679L31.0764 47.4679M52.8354 31.2435V101.983" stroke="#FFB2BC" stroke-linecap="round" stroke-linejoin="round"/>
<path d="M68.7358 62.2399L80.0057 72.8931L68.7358 62.2399Z" fill="#2B0807"/>
<path d="M68.7358 62.2399L80.0057 72.8931" stroke="#FFB2BC" stroke-linecap="round" stroke-linejoin="round"/>
<path d="M85.5413 46.5171L96.8112 57.1703L85.5413 46.5171Z" fill="#2B0807"/>
<path d="M85.5413 46.5171L96.8112 57.1703" stroke="#FFB2BC" stroke-linecap="round" stroke-linejoin="round"/>
<path d="M79.963 72.8054L70.0425 46.9379L79.963 72.8054Z" fill="#2B0807"/>
<path d="M79.963 72.8054L70.0425 46.9379" stroke="#FFB2BC" stroke-linecap="round" stroke-linejoin="round"/>
<path d="M70.0674 46.9106L83.4653 52.0523L96.8215 57.1779" fill="#2B0807"/>
<path d="M70.0674 46.9106L83.4653 52.0523L96.8215 57.1779" stroke="#FFB2BC" stroke-linecap="round" stroke-linejoin="round"/>
<path d="M79.9683 72.8085L89.9354 65.7139L79.9683 72.8085Z" fill="#2B0807"/>
<path d="M79.9683 72.8085L89.9354 65.7139" stroke="#FFB2BC" stroke-linecap="round" stroke-linejoin="round"/>
<path d="M96.7656 57.16L90.0017 65.6405L96.7656 57.16Z" fill="#2B0807"/>
<path d="M96.7656 57.16L90.0017 65.6405" stroke="#FFB2BC" stroke-linecap="round" stroke-linejoin="round"/>
<rect x="15.5" y="15.5" width="102.112" height="102.112" rx="3.5" stroke="#FFB2BC"/>
<rect x="122.5" y="5.5" width="5" height="5" rx="2.5" stroke="#FFB2BC"/>
<rect x="122.5" y="122.5" width="5" height="5" rx="2.5" stroke="#FFB2BC"/>
<rect x="4.5" y="5.5" width="5" height="5" rx="2.5" stroke="#FFB2BC"/>
<rect x="4.5" y="122.5" width="5" height="5" rx="2.5" stroke="#FFB2BC"/>
</g>
<defs>
<clipPath id="clip0_221_2">
<rect width="133" height="133" fill="white"/>
</clipPath>
</defs>
</svg>
