<?xml version="1.0" encoding="UTF-8" standalone="no"?>
<!-- Created with Inkscape (http://www.inkscape.org/) -->

<svg
   width="56.133862mm"
   height="29.938627mm"
   viewBox="0 0 56.133862 29.938627"
   version="1.1"
   id="svg1"
   inkscape:version="1.3.2 (091e20ef0f, 2023-11-25)"
   sodipodi:docname="us.svg"
   xmlns:inkscape="http://www.inkscape.org/namespaces/inkscape"
   xmlns:sodipodi="http://sodipodi.sourceforge.net/DTD/sodipodi-0.dtd"
   xmlns="http://www.w3.org/2000/svg"
   xmlns:svg="http://www.w3.org/2000/svg">
  <sodipodi:namedview
     id="namedview1"
     pagecolor="#505050"
     bordercolor="#eeeeee"
     borderopacity="1"
     inkscape:showpageshadow="0"
     inkscape:pageopacity="0"
     inkscape:pagecheckerboard="0"
     inkscape:deskcolor="#d1d1d1"
     inkscape:document-units="mm"
     inkscape:zoom="0.73406285"
     inkscape:cx="-31.332467"
     inkscape:cy="-46.31756"
     inkscape:window-width="1920"
     inkscape:window-height="1019"
     inkscape:window-x="0"
     inkscape:window-y="30"
     inkscape:window-maximized="1"
     inkscape:current-layer="layer1" />
  <defs
     id="defs1" />
  <g
     inkscape:label="Layer 1"
     inkscape:groupmode="layer"
     id="layer1"
     transform="translate(-113.56452,-191.66166)">
    <g
       id="g1">
      <path
         d="m 151.77982,194.02532 -0.96732,0.31713 -0.74533,0.3964 -0.72919,0.42811 -0.0794,0.14272 0.90381,-0.20614 0.33285,0.33298 0.72946,-0.23784 0.77708,-0.33298 0.85619,-0.33298 -0.4916,0.52325 0.39635,0.12686 0.39634,0.38055 0.80884,-0.22198 0.80856,-0.0793 0.0476,0.28541 0.23786,0.0317 0.19024,0.0317 0.23786,0.39642 -0.74533,0.0951 h -0.0159 l -0.58659,-0.11099 -0.71358,0.19029 -0.58658,0.0951 -0.74533,0.65008 -0.47572,0.36471 0.0635,0.11099 0.87206,-0.65011 h 0.11113 l -0.74533,0.77695 -0.45985,0.69768 -0.39635,0.57084 -0.0952,0.49151 -0.12673,0.23786 -0.0952,0.26956 0.0159,0.52324 0.0476,0.0793 0.28548,-0.0159 0.25374,-0.11099 0.22199,-0.12684 0.52308,-0.49154 0.28548,-0.66596 -0.0159,-0.61838 0.22199,-0.42813 0.41222,-0.49154 0.33311,-0.34883 0.42809,-0.23786 -0.0635,0.33298 0.34873,-0.49154 0.20637,-0.0951 0.26935,-0.38055 0.60272,0.20611 0.44397,0.38055 -0.127,0.45985 -0.25374,0.45982 -0.60245,0.3964 -0.0635,0.2537 h 0.15875 l 0.68183,-0.42812 0.25347,0.0951 -0.0791,0.58668 -0.11113,0.41225 -0.58658,0.55496 -0.31723,0.34886 -0.4281,0.38055 0.4281,0.20611 0.39661,0.0634 0.6342,-0.14269 0.58658,-0.26956 0.47573,-0.14272 0.72945,-0.2854 0.91969,-0.60254 0.0159,-0.0951 0.0474,-0.30126 0.4281,-0.12684 0.6186,0.0476 0.6342,0.0793 0.72919,-0.33298 0.0952,-0.3964 -0.0317,-0.14272 1.07818,-0.69768 0.4281,-0.17441 1.23692,-0.0159 h 1.47453 l 0.17462,-0.23783 0.26935,-0.0476 0.39661,-0.15856 0.44397,-0.45985 0.5072,-0.77695 0.87207,-0.74523 0.17463,0.2537 0.58658,-0.15856 0.25373,0.28541 -0.45984,1.34777 0.34872,0.57084 0.0317,0.33298 -1.01468,0.47567 -0.95144,0.34885 -0.95144,0.30125 -0.63421,0.60254 -0.20611,0.22198 -0.19023,0.53912 0.11086,0.52327 0.33311,0.0317 0.0317,-0.3647 0.17436,0.22199 -0.15849,0.28543 -0.60272,0.15856 -0.39635,-0.0159 -0.66595,0.17441 -0.3646,0.0476 -0.49159,0.0476 -0.7927,0.30128 1.28429,-0.19029 0.17436,0.19029 -1.25253,0.30125 h -0.52336 l 0.0635,-0.12684 -0.33311,0.28541 0.22198,0.0476 -0.39634,0.72937 -0.84032,0.77695 0.0159,-0.26953 -0.17462,-0.0476 -0.19024,-0.25371 v 0.55497 l 0.15875,0.17441 -0.0952,0.38055 -0.38047,0.3964 -0.71358,0.80867 -0.0635,-0.0317 0.45985,-0.69768 -0.31698,-0.38055 0.15849,-0.85624 -0.30136,0.444 v 0.65008 l -0.50747,-0.15857 0.47572,0.31713 -0.23786,0.96724 0.22198,0.0793 v 0.34885 l -0.15848,1.01478 -0.72946,0.74526 -0.96705,0.30125 -0.69771,0.60254 -0.44397,0.0634 -0.53922,0.38055 -0.20611,0.33297 -1.09405,0.66599 -0.60246,0.49154 -0.55509,0.60251 -0.3011,0.71353 v 0.71353 l 0.095,0.87209 0.23786,0.71353 -0.0794,0.44397 0.20638,1.17337 -0.15875,0.69768 -0.095,0.3964 -0.31724,0.61839 -0.28548,0.12684 -0.41222,-0.12684 -0.0632,-0.44398 -0.28549,-0.23783 -0.31723,-0.87209 -0.25374,-0.77698 -0.0632,-0.3964 0.31697,-0.6818 -0.12673,-0.55496 -0.4916,-0.85625 -0.30136,-0.15856 -0.96705,0.47569 -0.14288,-0.0634 -0.31697,-0.47569 -0.47572,-0.25369 -1.01494,0.14269 -0.72919,-0.12684 -0.68183,0.0793 -0.39635,0.15857 0.095,0.26955 -0.11086,0.41228 0.12674,0.20611 -0.19024,0.12687 -0.28548,-0.14272 -0.3646,0.19026 -0.61833,-0.0317 -0.52335,-0.53911 -0.77708,0.12684 -0.5707,-0.23784 -0.5551,0.0793 -0.79269,0.23784 -0.96724,0.74522 -0.96721,0.444 -0.58669,0.47567 -0.30125,0.45984 -0.15857,0.71353 -0.0634,0.47567 0.0951,0.34885 -0.34882,0.0317 -0.57082,-0.22198 -0.61841,-0.31713 -0.14269,-0.47567 -0.0317,-0.71353 -0.38055,-0.57084 -0.14269,-0.60253 -0.2537,-0.69765 -0.5074,-0.41228 -0.71352,0.0317 -0.7611,0.7928 -0.63426,-0.30126 -0.36468,-0.30128 -0.0634,-0.57081 -0.12687,-0.52326 -0.38055,-0.44398 -0.33298,-0.33297 -0.20613,-0.36471 h -1.49048 l -0.12684,0.42813 h -0.68181 -1.71249 l -1.72831,-0.71353 -1.10995,-0.49154 0.14272,-0.20611 -1.12578,0.11096 -0.99896,0.0793 0.0476,-0.50739 -0.33299,-0.58669 -0.34883,-0.12685 0.0159,-0.28543 -0.45982,-0.0634 -0.19029,-0.26956 -0.7611,-0.0951 -0.14269,-0.17442 0.12685,-0.55499 -0.3964,-1.01478 -0.0793,-1.41121 0.14272,-0.23783 -0.20614,-0.33298 -0.23783,-0.85625 0.2854,-0.82452 -0.14269,-0.55496 0.61839,-0.84037 0.44397,-0.85624 0.17441,-0.77695 0.87209,-0.95137 0.63426,-0.90381 0.63424,-0.90379 0.68183,-1.34779 0.2854,-0.84037 0.0634,-0.45984 0.22199,-0.20612 0.91966,0.34883 -0.15856,0.93552 0.34883,-0.26956 0.39639,-0.80867 0.25371,-0.80866 h 2.23573 2.33085 0.7611 2.39429 2.33085 2.34672 2.36271 2.66382 2.69531 1.6174 l 0.20611,-0.38055 h 0.26961 l -0.14261,0.53911 0.15848,0.15856 0.52335,0.0634 0.72919,0.15856 0.6186,0.30127 0.69744,-0.12685 z"
         fill="#ffb2bc"
         stroke="#ffb2bc"
         stroke-width="2"
         stroke-linecap="round"
         stroke-linejoin="round"
         id="path1-3" />
      <path
         d="m 121.97292,214.09152 -0.87744,0.72263 -1.26982,1.15832 0.14981,0.007 0.0999,0.0567 0.0178,0.0921 0.0107,0.13462 0.27107,-0.11689 0.23185,-0.0673 -0.0214,0.1098 0.0285,0.085 0.0571,0.0957 -0.0392,0.14877 -0.0499,0.24443 0.16407,0.13462 -0.11414,0.13459 -0.1819,0.10274 -0.0214,-0.0779 -0.0892,-0.0709 0.11771,-0.18421 -0.0571,-0.17356 0.0963,-0.19839 -0.14624,-0.0142 -0.25326,-0.004 -0.13554,-0.0638 -0.11769,-0.21608 -0.11771,-0.039 -0.20331,-0.0744 -0.24254,0.0177 -0.21402,-0.0956 -0.0963,-0.0886 -0.22471,0.0425 -0.12483,0.14523 -0.10345,0.0142 -0.2354,0.0425 -0.22114,0.0709 -0.22828,0.046 0.11414,-0.12396 0.29961,-0.20548 0.24254,-0.0638 0.0143,-0.0496 -0.33528,0.11335 -0.26395,0.13817 -0.3995,0.14877 0.007,0.10271 -0.32102,0.14881 -0.27464,0.0886 -0.23541,0.0673 -0.14268,0.0921 -0.37808,0.10982 -0.16051,0.0992 -0.29248,0.0921 -0.0963,-0.0142 -0.22114,0.0567 -0.24968,0.0744 -0.21758,0.0709 -0.35668,0.0638 0.0143,-0.039 0.29249,-0.0992 0.23541,-0.0673 0.30675,-0.11689 0.23184,-0.0213 0.17835,-0.0886 0.37095,-0.1275 0.082,-0.0425 0.20331,-0.0744 0.20688,-0.15939 0.22114,-0.12398 -0.26038,0.0638 -0.0107,-0.039 -0.17477,0.0779 0.0143,-0.10626 -0.12841,0.0744 0.0571,-0.10271 -0.26038,0.0815 h -0.0999 l 0.13197,-0.12398 0.11771,-0.0779 -0.0143,-0.0744 -0.25681,0.0425 -0.0214,-0.0992 -0.0464,-0.0496 0.14267,-0.1169 -0.0143,-0.0886 0.21045,-0.11689 0.27464,-0.11692 0.18905,-0.10271 0.14624,-0.0142 0.0642,0.0319 0.25323,-0.0992 0.0892,0.0177 0.19973,-0.0638 0.0892,-0.0921 -0.0392,-0.0354 0.21402,-0.0779 -0.0999,0.004 -0.22114,0.0425 -0.10345,0.0461 -0.0642,-0.0461 -0.24611,0.0248 -0.16408,-0.0496 0.0428,-0.0815 -0.0357,-0.11335 0.32815,-0.085 0.47083,-0.0956 h 0.12483 l -0.15338,0.0992 0.32816,-0.007 0.0428,-0.12398 -0.082,-0.0744 0.0285,-0.0992 -0.025,-0.0815 -0.11772,-0.0602 0.23186,-0.10274 0.26749,-0.007 0.3139,-0.085 0.17119,-0.0921 0.28178,-0.0921 0.17121,-0.0213 0.3995,-0.085 0.11056,0.0142 0.37095,-0.0992 0.15695,0.039 -0.0178,0.085 0.11771,-0.0354 0.22471,0.0106 -0.0678,0.0425 0.17478,0.0319 0.17478,-0.0177 0.22114,0.0567 0.25681,0.0212 0.0785,0.0213 0.2354,-0.0284 0.14626,0.0567 z"
         fill="#ffb2bc"
         stroke="#ffb2bc"
         stroke-width="2"
         stroke-linecap="round"
         stroke-linejoin="round"
         id="path2-6" />
      <path
         d="m 127.13398,220.42596 -0.17441,0.17436 -0.19029,-0.14287 0.0951,-0.28522 -0.0634,-0.38074 0.0793,-0.11086 0.19029,-0.15848 -0.0159,-0.20611 0.0634,-0.0952 0.0635,0.0159 0.30126,0.17436 0.14271,0.0952 0.11099,0.12673 0.14269,0.36486 -0.0317,0.0474 -0.39639,0.22199 z"
         fill="#ffb2bc"
         stroke="#ffb2bc"
         stroke-width="2"
         stroke-linecap="round"
         stroke-linejoin="round"
         id="path3-7" />
      <path
         d="m 127.02299,218.84031 -0.31713,0.0632 -0.0951,-0.20605 -0.0793,-0.0793 v -0.0634 l 0.111,-0.0951 0.2854,0.0951 0.19026,0.15856 z"
         fill="#ffb2bc"
         stroke="#ffb2bc"
         stroke-width="2"
         stroke-linecap="round"
         stroke-linejoin="round"
         id="path4-5" />
      <path
         d="m 126.5473,218.30109 -0.0476,0.11102 -0.47567,-0.0317 0.0951,-0.12684 z"
         fill="#ffb2bc"
         stroke="#ffb2bc"
         stroke-width="2"
         stroke-linecap="round"
         stroke-linejoin="round"
         id="path5-3" />
      <path
         d="m 125.80205,218.14256 -0.0634,0.0634 -0.0634,-0.0159 -0.30129,-0.0317 -0.0476,-0.23784 -0.0317,-0.0317 0.26956,-0.14271 0.0634,0.0634 z"
         fill="#ffb2bc"
         stroke="#ffb2bc"
         stroke-width="2"
         stroke-linecap="round"
         stroke-linejoin="round"
         id="path6-5" />
      <path
         d="m 124.47013,217.47663 -0.12684,0.0951 -0.25371,-0.17442 0.0634,-0.0793 0.15857,-0.0951 0.20614,0.0159 z"
         fill="#ffb2bc"
         stroke="#ffb2bc"
         stroke-width="2"
         stroke-linecap="round"
         stroke-linejoin="round"
         id="path7-6" />
    </g>
  </g>
</svg>
