<?xml version="1.0" encoding="UTF-8" standalone="no"?>
<!-- Created with Inkscape (http://www.inkscape.org/) -->

<svg
   width="54.662918mm"
   height="29.79076mm"
   viewBox="0 0 54.662918 29.79076"
   version="1.1"
   id="svg1"
   inkscape:version="1.3.2 (091e20ef0f, 2023-11-25)"
   sodipodi:docname="us.svg"
   xmlns:inkscape="http://www.inkscape.org/namespaces/inkscape"
   xmlns:sodipodi="http://sodipodi.sourceforge.net/DTD/sodipodi-0.dtd"
   xmlns="http://www.w3.org/2000/svg"
   xmlns:svg="http://www.w3.org/2000/svg">
  <sodipodi:namedview
     id="namedview1"
     pagecolor="#505050"
     bordercolor="#eeeeee"
     borderopacity="1"
     inkscape:showpageshadow="0"
     inkscape:pageopacity="0"
     inkscape:pagecheckerboard="0"
     inkscape:deskcolor="#d1d1d1"
     inkscape:document-units="mm"
     showgrid="false"
     inkscape:zoom="0.73406285"
     inkscape:cx="117.83732"
     inkscape:cy="136.22812"
     inkscape:window-width="1920"
     inkscape:window-height="1019"
     inkscape:window-x="0"
     inkscape:window-y="30"
     inkscape:window-maximized="1"
     inkscape:current-layer="layer1" />
  <defs
     id="defs1">
    <filter
       id="filter0_d_209_11"
       x="-1.52588e-05"
       y="0.170166"
       width="206.60001"
       height="112.595"
       filterUnits="userSpaceOnUse"
       color-interpolation-filters="sRGB">
      <feFlood
         flood-opacity="0"
         result="BackgroundImageFix"
         id="feFlood7" />
      <feColorMatrix
         in="SourceAlpha"
         type="matrix"
         values="0 0 0 0 0 0 0 0 0 0 0 0 0 0 0 0 0 0 127 0"
         result="hardAlpha"
         id="feColorMatrix7" />
      <feOffset
         dy="5"
         id="feOffset7" />
      <feComposite
         in2="hardAlpha"
         operator="out"
         id="feComposite7" />
      <feColorMatrix
         type="matrix"
         values="0 0 0 0 0.490196 0 0 0 0 0.160784 0 0 0 0 0.231373 0 0 0 1 0"
         id="feColorMatrix8" />
      <feBlend
         mode="normal"
         in2="BackgroundImageFix"
         result="effect1_dropShadow_209_11"
         id="feBlend8" />
      <feBlend
         mode="normal"
         in="SourceGraphic"
         in2="effect1_dropShadow_209_11"
         result="shape"
         id="feBlend9" />
    </filter>
  </defs>
  <g
     inkscape:label="Layer 1"
     inkscape:groupmode="layer"
     id="layer1"
     transform="translate(-73.914849,-112.34505)">
    <g
       filter="url(#filter0_d_209_11)"
       id="g7"
       transform="matrix(0.26458333,0,0,0.26458333,73.914853,112.30003)">
      <path
         d="M 141.656,6.32406 138,7.52263 l -2.817,1.49823 -2.756,1.61804 -0.3,0.5394 3.416,-0.7791 1.258,1.2585 2.757,-0.8989 2.937,-1.25851 3.236,-1.25851 -1.858,1.97762 1.498,0.4795 1.498,1.4383 3.057,-0.839 3.056,-0.2997 0.18,1.0787 0.899,0.1199 0.719,0.1198 0.899,1.4983 -2.817,0.3595 h -0.06 l -2.217,-0.4195 -2.697,0.7192 -2.217,0.3596 -2.817,2.457 -1.798,1.3784 0.24,0.4195 3.296,-2.4571 h 0.42 l -2.817,2.9365 -1.738,2.6369 -1.498,2.1575 -0.36,1.8577 -0.479,0.899 -0.36,1.0188 0.06,1.9776 0.18,0.2997 1.079,-0.06 0.959,-0.4195 0.839,-0.4794 1.977,-1.8578 1.079,-2.517 -0.06,-2.3372 0.839,-1.6181 1.558,-1.8578 1.259,-1.3184 1.618,-0.899 -0.24,1.2585 1.318,-1.8578 0.78,-0.3595 1.018,-1.4383 2.278,0.779 1.678,1.4383 -0.48,1.738 -0.959,1.7379 -2.277,1.4982 -0.24,0.9589 h 0.6 l 2.577,-1.6181 0.958,0.3596 -0.299,2.2174 -0.42,1.5581 -2.217,2.0975 -1.199,1.3185 -1.618,1.4383 1.618,0.779 1.499,0.2397 2.397,-0.5393 2.217,-1.0188 1.798,-0.5394 2.757,-1.0787 3.476,-2.2773 0.06,-0.3596 0.179,-1.1386 1.618,-0.4794 2.338,0.1797 2.397,0.2997 2.757,-1.2585 0.359,-1.4982 -0.12,-0.5394 4.075,-2.6369 1.618,-0.6592 4.675,-0.0599 h 5.573 l 0.659,-0.8989 1.019,-0.1798 1.499,-0.5993 1.678,-1.738 1.917,-2.9365 3.296,-2.81663 0.66,0.95886 2.217,-0.59929 0.959,1.07872 -1.738,5.09394 1.318,2.1575 0.12,1.2585 -3.835,1.7978 -3.596,1.3185 -3.596,1.1386 -2.397,2.2773 -0.779,0.839 -0.719,2.0376 0.419,1.9777 1.259,0.1198 0.12,-1.3784 0.659,0.839 -0.599,1.0788 -2.278,0.5993 -1.498,-0.06 -2.517,0.6592 -1.378,0.1798 -1.858,0.1798 -2.996,1.1387 4.854,-0.7192 0.659,0.7192 -4.734,1.1386 h -1.978 l 0.24,-0.4794 -1.259,1.0787 0.839,0.1798 -1.498,2.7567 -3.176,2.9365 0.06,-1.0188 -0.66,-0.1797 -0.719,-0.9589 v 2.0975 l 0.6,0.6592 -0.36,1.4383 -1.438,1.4982 -2.697,3.0564 -0.24,-0.1198 1.738,-2.6369 -1.198,-1.4383 0.599,-3.2362 -1.139,1.678 v 2.4571 l -1.918,-0.5993 1.798,1.1986 -0.899,3.6557 0.839,0.2996 v 1.3185 l -0.599,3.8354 -2.757,2.8167 -3.655,1.1386 -2.637,2.2773 -1.678,0.2397 -2.038,1.4383 -0.779,1.2585 -4.135,2.5171 -2.277,1.8578 -2.098,2.2772 -1.138,2.6968 v 2.6968 l 0.359,3.2961 0.899,2.6968 -0.3,1.678 0.78,4.4348 -0.6,2.6369 -0.359,1.4982 -1.199,2.3372 -1.079,0.4794 -1.558,-0.4794 -0.239,-1.678 -1.079,-0.8989 -1.199,-3.2961 -0.959,-2.9365 -0.239,-1.4983 1.198,-2.5769 -0.479,-2.0975 -1.858,-3.2362 -1.139,-0.5993 -3.655,1.7979 -0.54,-0.2397 -1.198,-1.7979 -1.798,-0.9588 -3.836,0.5393 -2.756,-0.4794 -2.577,0.2996 -1.498,0.5993 0.359,1.0188 -0.419,1.5582 0.479,0.779 -0.719,0.4795 -1.079,-0.5394 -1.378,0.7191 -2.337,-0.1198 -1.978,-2.0376 -2.937,0.4794 -2.157,-0.8989 -2.098,0.2997 -2.996,0.8989 -3.6557,2.8166 -3.6556,1.6781 -2.2174,1.7978 -1.1386,1.738 -0.5993,2.6968 -0.2397,1.7978 0.3595,1.3185 -1.3184,0.1198 -2.1574,-0.839 -2.3373,-1.1986 -0.5393,-1.7978 -0.1199,-2.6968 -1.4383,-2.1575 -0.5393,-2.2773 -0.9589,-2.6368 -1.9177,-1.5582 -2.6968,0.1199 -2.8766,2.9964 -2.3972,-1.1386 -1.3783,-1.1387 -0.2397,-2.1574 -0.4795,-1.9777 -1.4383,-1.678 -1.2585,-1.2585 -0.7791,-1.3784 h -5.6333 l -0.4794,1.6181 h -2.5769 -6.4724 l -6.5322,-2.6968 -4.1951,-1.8578 0.5394,-0.779 -4.2549,0.4194 -3.7756,0.2997 0.1798,-1.9177 L 29.5886,61.159 28.2702,60.6796 28.3301,59.6008 26.5922,59.3611 25.873,58.3423 22.9964,57.9828 22.4571,57.3236 22.9365,55.226 21.4383,51.3906 21.1386,46.0569 21.678,45.158 20.8989,43.8995 20,40.6633 l 1.0787,-3.1163 -0.5393,-2.0975 2.3372,-3.1762 1.678,-3.2362 0.6592,-2.9365 3.2961,-3.5957 2.3972,-3.416 2.3971,-3.4159 2.577,-5.094 1.0787,-3.17622 0.2397,-1.73795 0.839,-0.77906 3.4759,1.31843 -0.5993,3.5358 1.3184,-1.01879 1.4982,-3.05638 0.9589,-3.05636 h 8.45 8.8095 2.8766 9.0493 8.8095 8.8695 8.9299 10.068 10.187 6.113 l 0.779,-1.4383 h 1.019 l -0.539,2.03758 0.599,0.59929 1.978,0.23972 2.756,0.59928 2.338,1.13866 2.636,-0.47943 z"
         fill="#ffb2bc"
         stroke="#ffb2bc"
         stroke-width="2"
         stroke-linecap="round"
         stroke-linejoin="round"
         id="path1" />
      <path
         d="m 29,82.1648 -3.3163,2.7312 -4.7993,4.3779 0.5662,0.0268 0.3775,0.2142 0.0674,0.3481 0.0405,0.5088 1.0245,-0.4418 0.8763,-0.2544 -0.0809,0.415 0.1078,0.3213 0.2157,0.3615 -0.1483,0.5623 -0.1887,0.9238 0.6201,0.5088 -0.4314,0.5087 -0.6875,0.3883 -0.0809,-0.2945 -0.337,-0.2678 0.4449,-0.6962 -0.2157,-0.656 0.364,-0.7498 -0.5527,-0.0535 -0.9572,-0.0134 -0.5123,-0.241 -0.4448,-0.8167 -0.4449,-0.1473 -0.7684,-0.2811 -0.9167,0.0669 -0.8089,-0.3614 -0.364,-0.3348 -0.8493,0.1607 -0.4718,0.5489 -0.391,0.0536 -0.8897,0.1606 -0.8358,0.2678 -0.8628,0.174 0.4314,-0.4685 1.1324,-0.7766 0.9167,-0.241 0.0539,-0.1874 -1.2672,0.4284 -0.9976,0.5222 -1.5099,0.5623 0.027,0.3882 L 10.922,90.9743 9.88397,91.309 8.99422,91.5633 8.45498,91.9114 7.026,92.3265 6.41935,92.7013 5.31391,93.0494 4.94993,92.9959 4.11411,93.2101 3.17044,93.4912 2.3481,93.759 1,94 1.05392,93.8527 2.15936,93.4779 3.04911,93.2235 4.20847,92.7817 5.08474,92.7013 5.75879,92.3666 7.16081,91.8847 7.47087,91.724 8.23929,91.4428 9.02118,90.8404 9.85701,90.3718 8.87289,90.6128 8.83245,90.4655 8.17188,90.76 8.22581,90.3584 7.74049,90.6395 7.95619,90.2513 6.97208,90.5592 H 6.59461 L 7.0934,90.0906 7.53828,89.7961 7.48435,89.5149 6.51372,89.6756 6.43284,89.3007 6.25758,89.1133 6.79682,88.6715 6.7429,88.3368 7.53828,87.895 8.57631,87.4531 9.2908,87.0649 l 0.55272,-0.0536 0.24268,0.1205 0.9571,-0.3748 0.3371,0.0669 0.7549,-0.241 0.337,-0.3481 -0.1483,-0.1339 0.8089,-0.2945 -0.3775,0.0134 -0.8358,0.1606 -0.391,0.1741 -0.2426,-0.1741 -0.9302,0.0938 -0.62012,-0.1875 0.16177,-0.3079 -0.13481,-0.4284 1.24026,-0.3214 1.7795,-0.3614 h 0.4718 l -0.5797,0.3748 1.2403,-0.0267 0.1618,-0.4686 -0.3101,-0.2812 0.1078,-0.3749 -0.0943,-0.3079 -0.4449,-0.2276 0.8763,-0.3883 1.011,-0.0267 1.1864,-0.3213 0.647,-0.3481 1.065,-0.3481 0.6471,-0.0804 1.5099,-0.3213 0.4179,0.0536 1.402,-0.3749 0.5932,0.1473 -0.0674,0.3213 0.4449,-0.1339 0.8493,0.0402 -0.2562,0.1606 0.6606,0.1205 0.6606,-0.0669 0.8358,0.2142 0.9706,0.0803 0.2966,0.0804 0.8897,-0.1072 0.5528,0.2143 z"
         fill="#ffb2bc"
         stroke="#ffb2bc"
         stroke-width="2"
         stroke-linecap="round"
         stroke-linejoin="round"
         id="path2" />
      <path
         d="m 48.5064,106.106 -0.6592,0.659 -0.7192,-0.54 0.3596,-1.078 -0.2397,-1.439 0.2996,-0.419 0.7192,-0.599 -0.06,-0.779 0.2397,-0.36 0.2398,0.06 1.1386,0.659 0.5394,0.36 0.4195,0.479 0.5393,1.379 -0.1198,0.179 -1.4982,0.839 z"
         fill="#ffb2bc"
         stroke="#ffb2bc"
         stroke-width="2"
         stroke-linecap="round"
         stroke-linejoin="round"
         id="path3" />
      <path
         d="m 48.0869,100.113 -1.1986,0.239 -0.3596,-0.7788 -0.2996,-0.2996 v -0.2397 l 0.4195,-0.3596 1.0787,0.3596 0.7191,0.5993 z"
         fill="#ffb2bc"
         stroke="#ffb2bc"
         stroke-width="2"
         stroke-linecap="round"
         stroke-linejoin="round"
         id="path4" />
      <path
         d="m 46.289,98.075 -0.1798,0.4196 -1.7978,-0.1199 0.3595,-0.4794 z"
         fill="#ffb2bc"
         stroke="#ffb2bc"
         stroke-width="2"
         stroke-linecap="round"
         stroke-linejoin="round"
         id="path5" />
      <path
         d="m 43.4723,97.4758 -0.2397,0.2397 -0.2397,-0.0599 -1.1387,-0.1199 -0.1798,-0.8989 -0.1198,-0.1199 1.0188,-0.5394 0.2397,0.2398 z"
         fill="#ffb2bc"
         stroke="#ffb2bc"
         stroke-width="2"
         stroke-linecap="round"
         stroke-linejoin="round"
         id="path6" />
      <path
         d="M 38.4383,94.9589 37.9589,95.3184 37,94.6592 37.2397,94.3596 37.839,94 l 0.7791,0.0599 z"
         fill="#ffb2bc"
         stroke="#ffb2bc"
         stroke-width="2"
         stroke-linecap="round"
         stroke-linejoin="round"
         id="path7" />
    </g>
  </g>
</svg>
